<svg xmlns="http://www.w3.org/2000/svg" xmlns:xlink="http://www.w3.org/1999/xlink" width="1920" zoomAndPan="magnify" viewBox="0 0 1440 809.999993" height="1080" preserveAspectRatio="xMidYMid meet" version="1.0"><rect x="-144" width="1728" fill="#ffffff" y="-80.999999" height="971.999992" fill-opacity="1"/><rect x="-144" width="1728" fill="#feffff" y="-80.999999" height="971.999992" fill-opacity="1"/><path fill="#5bd3c7" d="M 757.894531 465.320312 C 758.171875 465.980469 758.34375 466.667969 758.40625 467.378906 C 758.472656 468.089844 758.425781 468.796875 758.273438 469.496094 C 758.121094 470.195312 757.867188 470.855469 757.507812 471.472656 C 757.152344 472.09375 756.710938 472.644531 756.183594 473.128906 C 755.683594 473.660156 755.113281 474.105469 754.472656 474.460938 C 753.835938 474.816406 753.160156 475.066406 752.441406 475.214844 C 751.726562 475.359375 751.003906 475.390625 750.277344 475.3125 C 749.550781 475.230469 748.851562 475.042969 748.183594 474.746094 C 742.96875 472.019531 738.429688 468.433594 734.570312 463.988281 C 730.054688 460.128906 726.433594 455.558594 723.714844 450.277344 C 723.472656 449.613281 723.328125 448.929688 723.28125 448.222656 C 723.234375 447.515625 723.289062 446.820312 723.441406 446.128906 C 723.59375 445.4375 723.839844 444.78125 724.179688 444.164062 C 724.519531 443.542969 724.941406 442.984375 725.441406 442.484375 C 725.941406 441.984375 726.5 441.5625 727.121094 441.222656 C 727.742188 440.882812 728.398438 440.636719 729.085938 440.484375 C 729.777344 440.332031 730.476562 440.277344 731.179688 440.324219 C 731.886719 440.371094 732.574219 440.515625 733.238281 440.757812 C 738.5 443.5 743.070312 447.117188 746.945312 451.609375 C 751.472656 455.480469 755.125 460.050781 757.894531 465.320312 Z M 655.546875 389.25 C 657.675781 391.792969 660.246094 393.761719 663.257812 395.152344 C 664 395.359375 664.742188 395.347656 665.484375 395.125 C 666.222656 394.902344 666.847656 394.496094 667.351562 393.914062 C 667.652344 393.644531 667.902344 393.335938 668.105469 392.988281 C 668.308594 392.640625 668.453125 392.273438 668.539062 391.878906 C 668.625 391.484375 668.648438 391.089844 668.605469 390.6875 C 668.566406 390.285156 668.464844 389.902344 668.304688 389.535156 C 666.914062 386.6875 665.007812 384.246094 662.589844 382.203125 C 660.664062 379.777344 658.316406 377.875 655.546875 376.488281 C 654.808594 376.285156 654.074219 376.28125 653.339844 376.488281 C 652.601562 376.695312 651.972656 377.074219 651.449219 377.632812 C 651.152344 377.890625 650.898438 378.1875 650.695312 378.527344 C 650.488281 378.863281 650.335938 379.222656 650.242188 379.609375 C 650.148438 379.992188 650.117188 380.378906 650.144531 380.773438 C 650.171875 381.167969 650.257812 381.550781 650.402344 381.917969 C 651.652344 384.6875 653.367188 387.128906 655.546875 389.25 Z M 716.957031 383.820312 C 719.078125 386.351562 721.648438 388.289062 724.667969 389.628906 C 725.023438 389.753906 725.386719 389.824219 725.761719 389.839844 C 726.140625 389.855469 726.507812 389.820312 726.875 389.726562 C 727.238281 389.632812 727.582031 389.488281 727.902344 389.292969 C 728.222656 389.097656 728.511719 388.859375 728.761719 388.582031 C 729.070312 388.308594 729.328125 387.992188 729.535156 387.640625 C 729.746094 387.285156 729.898438 386.910156 729.992188 386.507812 C 730.085938 386.109375 730.117188 385.703125 730.085938 385.292969 C 730.054688 384.882812 729.960938 384.488281 729.808594 384.105469 C 728.386719 381.289062 726.480469 378.84375 724.097656 376.777344 C 721.976562 374.21875 719.40625 372.25 716.382812 370.871094 C 715.632812 370.667969 714.882812 370.667969 714.132812 370.875 C 713.382812 371.078125 712.738281 371.457031 712.195312 372.015625 C 711.90625 372.289062 711.664062 372.601562 711.46875 372.949219 C 711.273438 373.300781 711.132812 373.667969 711.046875 374.058594 C 710.964844 374.449219 710.9375 374.84375 710.96875 375.242188 C 711.003906 375.640625 711.09375 376.023438 711.242188 376.394531 C 712.707031 379.273438 714.671875 381.746094 717.144531 383.820312 Z M 653.546875 475.222656 C 642.488281 463.4375 630.460938 452.742188 617.460938 443.136719 C 611.082031 439.328125 606.035156 439.328125 602.226562 443.136719 C 601.804688 443.597656 601.421875 444.085938 601.082031 444.609375 C 600.738281 445.132812 600.445312 445.683594 600.199219 446.257812 C 599.953125 446.828125 599.753906 447.421875 599.605469 448.027344 C 599.460938 448.632812 599.363281 449.25 599.320312 449.871094 C 599.277344 450.496094 599.289062 451.117188 599.351562 451.738281 C 599.414062 452.359375 599.527344 452.972656 599.695312 453.574219 C 599.859375 454.175781 600.078125 454.761719 600.339844 455.324219 C 600.605469 455.890625 600.917969 456.429688 601.273438 456.941406 C 610.941406 470.933594 622.078125 483.625 634.695312 495.027344 C 646.171875 507.554688 658.867188 518.695312 672.777344 528.445312 C 673.296875 528.816406 673.84375 529.136719 674.417969 529.414062 C 674.992188 529.691406 675.585938 529.917969 676.199219 530.09375 C 676.8125 530.269531 677.4375 530.390625 678.070312 530.460938 C 678.703125 530.53125 679.339844 530.546875 679.976562 530.507812 C 680.613281 530.46875 681.238281 530.375 681.859375 530.230469 C 682.480469 530.085938 683.085938 529.886719 683.671875 529.640625 C 684.257812 529.390625 684.820312 529.09375 685.359375 528.75 C 685.894531 528.40625 686.398438 528.019531 686.871094 527.589844 C 687.28125 527.136719 687.648438 526.65625 687.980469 526.144531 C 688.3125 525.632812 688.597656 525.09375 688.839844 524.535156 C 689.082031 523.976562 689.273438 523.398438 689.421875 522.808594 C 689.566406 522.214844 689.664062 521.617188 689.710938 521.007812 C 689.757812 520.402344 689.757812 519.792969 689.703125 519.183594 C 689.648438 518.578125 689.546875 517.980469 689.394531 517.390625 C 689.242188 516.796875 689.039062 516.226562 688.792969 515.667969 C 688.542969 515.109375 688.253906 514.578125 687.917969 514.070312 C 678.023438 499.796875 666.632812 486.851562 653.734375 475.222656 Z M 988.78125 111.234375 C 983.355469 148.367188 947.269531 191.589844 915.5625 223.296875 C 910.421875 228.53125 905.375 233.292969 900.617188 237.769531 C 902.132812 239.828125 903.476562 241.992188 904.652344 244.257812 C 905.828125 246.527344 906.820312 248.875 907.628906 251.300781 C 908.4375 253.722656 909.050781 256.195312 909.472656 258.71875 C 909.890625 261.238281 910.113281 263.777344 910.136719 266.332031 L 915.089844 407.050781 C 915.082031 410.804688 914.890625 414.546875 914.519531 418.28125 C 914.148438 422.015625 913.597656 425.722656 912.867188 429.402344 C 912.132812 433.082031 911.226562 436.71875 910.140625 440.3125 C 909.054688 443.902344 907.796875 447.433594 906.367188 450.902344 C 904.9375 454.371094 903.34375 457.765625 901.585938 461.078125 C 899.824219 464.394531 897.910156 467.613281 895.835938 470.742188 C 893.761719 473.871094 891.542969 476.890625 889.175781 479.800781 C 886.808594 482.714844 884.308594 485.503906 881.667969 488.171875 L 648.214844 721.339844 C 647.046875 722.5 645.824219 723.601562 644.550781 724.640625 C 643.273438 725.679688 641.953125 726.65625 640.582031 727.566406 C 639.210938 728.476562 637.800781 729.320312 636.347656 730.09375 C 634.894531 730.867188 633.40625 731.566406 631.886719 732.191406 C 630.363281 732.820312 628.816406 733.371094 627.238281 733.847656 C 625.664062 734.324219 624.070312 734.71875 622.457031 735.039062 C 620.839844 735.359375 619.214844 735.601562 617.578125 735.761719 C 615.941406 735.921875 614.296875 736 612.652344 736 C 611.007812 736 609.367188 735.921875 607.726562 735.761719 C 606.089844 735.601562 604.464844 735.359375 602.851562 735.039062 C 601.234375 734.71875 599.640625 734.324219 598.066406 733.847656 C 596.492188 733.371094 594.941406 732.820312 593.421875 732.191406 C 591.898438 731.566406 590.414062 730.867188 588.960938 730.09375 C 587.507812 729.320312 586.09375 728.476562 584.722656 727.566406 C 583.355469 726.65625 582.03125 725.679688 580.753906 724.640625 C 579.480469 723.601562 578.257812 722.5 577.09375 721.339844 L 403.617188 547.867188 C 402.460938 546.699219 401.359375 545.480469 400.320312 544.203125 C 399.277344 542.929688 398.304688 541.605469 397.390625 540.234375 C 396.480469 538.867188 395.640625 537.453125 394.867188 536 C 394.09375 534.546875 393.394531 533.0625 392.769531 531.539062 C 392.140625 530.019531 391.589844 528.46875 391.113281 526.894531 C 390.636719 525.320312 390.238281 523.722656 389.921875 522.109375 C 389.601562 520.496094 389.359375 518.871094 389.199219 517.230469 C 389.039062 515.59375 388.960938 513.953125 388.960938 512.308594 C 388.960938 510.660156 389.039062 509.019531 389.199219 507.382812 C 389.359375 505.746094 389.601562 504.117188 389.921875 502.503906 C 390.238281 500.890625 390.636719 499.296875 391.113281 497.71875 C 391.589844 496.144531 392.140625 494.597656 392.769531 493.074219 C 393.394531 491.554688 394.09375 490.066406 394.867188 488.613281 C 395.640625 487.160156 396.480469 485.75 397.390625 484.378906 C 398.304688 483.007812 399.277344 481.683594 400.320312 480.410156 C 401.359375 479.136719 402.460938 477.914062 403.617188 476.746094 L 636.503906 244.050781 C 639.21875 241.355469 642.066406 238.796875 645.035156 236.382812 C 648.007812 233.96875 651.09375 231.707031 654.292969 229.601562 C 657.488281 227.496094 660.785156 225.554688 664.175781 223.777344 C 667.566406 222 671.039062 220.394531 674.589844 218.960938 C 678.140625 217.53125 681.753906 216.28125 685.433594 215.210938 C 689.109375 214.140625 692.828125 213.253906 696.59375 212.554688 C 700.359375 211.855469 704.148438 211.34375 707.964844 211.023438 C 711.78125 210.703125 715.601562 210.574219 719.429688 210.632812 L 858.535156 218.15625 C 860.828125 209.132812 864.058594 200.457031 868.214844 192.125 C 872.371094 183.796875 877.363281 176 883.191406 168.742188 C 885.53125 165.785156 887.726562 162.726562 889.777344 159.5625 C 891.828125 156.398438 893.726562 153.144531 895.472656 149.800781 C 897.214844 146.460938 898.796875 143.042969 900.21875 139.550781 C 901.640625 136.058594 902.890625 132.507812 903.976562 128.894531 C 905.0625 125.285156 905.976562 121.632812 906.71875 117.933594 C 907.457031 114.238281 908.023438 110.515625 908.410156 106.765625 C 908.800781 103.015625 909.011719 99.253906 909.046875 95.484375 C 909.078125 91.714844 908.9375 87.949219 908.613281 84.195312 C 908.464844 82.605469 908.417969 81.015625 908.472656 79.421875 C 908.527344 77.828125 908.683594 76.246094 908.941406 74.671875 C 909.199219 73.097656 909.554688 71.546875 910.011719 70.019531 C 910.46875 68.492188 911.019531 67 911.667969 65.542969 C 912.3125 64.082031 913.050781 62.675781 913.878906 61.3125 C 914.710938 59.949219 915.621094 58.644531 916.617188 57.398438 C 917.613281 56.152344 918.683594 54.976562 919.828125 53.867188 C 920.976562 52.757812 922.1875 51.730469 923.46875 50.777344 C 924.679688 49.855469 925.941406 49.015625 927.257812 48.253906 C 928.574219 47.492188 929.929688 46.816406 931.332031 46.222656 C 932.730469 45.628906 934.164062 45.121094 935.625 44.707031 C 937.085938 44.292969 938.570312 43.96875 940.074219 43.734375 C 941.574219 43.503906 943.085938 43.367188 944.605469 43.320312 C 946.125 43.277344 947.644531 43.328125 949.15625 43.472656 C 950.671875 43.613281 952.167969 43.851562 953.652344 44.183594 C 955.136719 44.511719 956.597656 44.933594 958.027344 45.445312 C 972.214844 50.871094 995.066406 66.675781 988.78125 111.234375 Z M 865.007812 259.09375 C 867.199219 260.046875 869.195312 255.761719 869.578125 255.382812 L 865.007812 252.714844 C 865.007812 253.289062 862.914062 258.238281 865.007812 259.09375 Z M 700.578125 378.773438 C 700.824219 380.109375 701.164062 381.421875 701.605469 382.703125 C 702.046875 383.988281 702.582031 385.230469 703.214844 386.433594 C 703.84375 387.636719 704.558594 388.78125 705.363281 389.875 C 706.167969 390.96875 707.050781 391.996094 708.011719 392.957031 C 708.96875 393.917969 709.996094 394.796875 711.089844 395.601562 C 712.183594 396.40625 713.332031 397.125 714.535156 397.753906 C 715.738281 398.382812 716.980469 398.917969 718.261719 399.359375 C 719.546875 399.800781 720.855469 400.144531 722.191406 400.386719 C 723.417969 400.429688 724.636719 400.335938 725.84375 400.109375 C 727.046875 399.878906 728.214844 399.523438 729.34375 399.039062 C 730.46875 398.554688 731.53125 397.949219 732.523438 397.230469 C 733.519531 396.511719 734.421875 395.691406 735.234375 394.769531 C 736.183594 393.972656 737.035156 393.078125 737.789062 392.089844 C 738.539062 391.105469 739.175781 390.046875 739.695312 388.917969 C 740.210938 387.792969 740.601562 386.621094 740.859375 385.40625 C 741.121094 384.195312 741.246094 382.96875 741.234375 381.726562 C 740.9375 378.976562 740.144531 376.378906 738.863281 373.929688 C 737.582031 371.480469 735.898438 369.351562 733.808594 367.539062 C 732.914062 366.492188 731.925781 365.535156 730.847656 364.675781 C 729.765625 363.820312 728.613281 363.070312 727.390625 362.433594 C 726.167969 361.796875 724.894531 361.285156 723.570312 360.894531 C 722.246094 360.503906 720.898438 360.242188 719.527344 360.113281 C 718.308594 360.089844 717.101562 360.195312 715.90625 360.429688 C 714.710938 360.664062 713.558594 361.027344 712.441406 361.511719 C 711.320312 361.996094 710.269531 362.59375 709.28125 363.304688 C 708.292969 364.015625 707.390625 364.824219 706.578125 365.730469 C 705.636719 366.535156 704.792969 367.433594 704.042969 368.421875 C 703.296875 369.410156 702.664062 370.46875 702.148438 371.59375 C 701.628906 372.71875 701.238281 373.890625 700.972656 375.101562 C 700.710938 376.3125 700.578125 377.535156 700.578125 378.773438 Z M 673.445312 343.070312 L 699.4375 430 L 706.769531 422.667969 L 680.679688 335.835938 Z M 639.074219 384.203125 C 639.351562 386.957031 640.132812 389.558594 641.417969 392.011719 C 642.703125 394.464844 644.394531 396.589844 646.5 398.386719 C 648.316406 400.5 650.460938 402.207031 652.925781 403.507812 C 655.390625 404.804688 658.011719 405.605469 660.78125 405.910156 C 662.003906 405.925781 663.210938 405.8125 664.40625 405.566406 C 665.601562 405.324219 666.761719 404.953125 667.878906 404.460938 C 668.992188 403.96875 670.046875 403.363281 671.03125 402.644531 C 672.019531 401.925781 672.917969 401.109375 673.730469 400.199219 C 674.65625 399.386719 675.480469 398.488281 676.203125 397.496094 C 676.925781 396.5 677.53125 395.441406 678.015625 394.3125 C 678.503906 393.183594 678.859375 392.015625 679.082031 390.808594 C 679.308594 389.597656 679.394531 388.382812 679.347656 387.152344 C 679.117188 385.816406 678.785156 384.507812 678.351562 383.222656 C 677.917969 381.9375 677.390625 380.691406 676.769531 379.488281 C 676.144531 378.28125 675.433594 377.132812 674.632812 376.035156 C 673.835938 374.941406 672.957031 373.914062 672 372.953125 C 671.042969 371.992188 670.019531 371.109375 668.925781 370.304688 C 667.835938 369.5 666.6875 368.78125 665.484375 368.15625 C 664.285156 367.527344 663.042969 366.992188 661.757812 366.554688 C 660.476562 366.117188 659.164062 365.777344 657.832031 365.539062 C 656.597656 365.5 655.371094 365.589844 654.160156 365.820312 C 652.945312 366.046875 651.769531 366.402344 650.636719 366.886719 C 649.5 367.375 648.429688 367.976562 647.429688 368.695312 C 646.425781 369.417969 645.511719 370.238281 644.691406 371.160156 C 643.78125 371.980469 642.96875 372.886719 642.257812 373.882812 C 641.542969 374.878906 640.945312 375.941406 640.460938 377.066406 C 639.972656 378.191406 639.613281 379.355469 639.382812 380.558594 C 639.148438 381.761719 639.046875 382.976562 639.074219 384.203125 Z M 659.734375 587.761719 L 638.027344 563.101562 L 597.65625 603.472656 C 599 592.765625 599.464844 582.019531 599.050781 571.238281 C 598.632812 560.453125 597.34375 549.777344 595.183594 539.203125 C 593.402344 532.152344 590.738281 525.453125 587.1875 519.109375 C 583.632812 512.761719 579.316406 506.988281 574.234375 501.785156 C 572.117188 499.550781 569.832031 497.5 567.382812 495.632812 C 564.929688 493.765625 562.347656 492.109375 559.628906 490.660156 C 556.910156 489.210938 554.089844 487.992188 551.175781 487 C 548.257812 486.007812 545.28125 485.253906 542.246094 484.742188 C 540.792969 484.539062 539.332031 484.425781 537.867188 484.398438 C 536.398438 484.375 534.9375 484.4375 533.476562 484.59375 C 532.019531 484.75 530.574219 484.992188 529.144531 485.324219 C 527.71875 485.65625 526.3125 486.074219 524.9375 486.578125 C 523.558594 487.082031 522.21875 487.671875 520.914062 488.339844 C 519.609375 489.011719 518.347656 489.757812 517.136719 490.582031 C 515.921875 491.40625 514.761719 492.300781 513.660156 493.269531 C 512.554688 494.234375 511.515625 495.265625 510.539062 496.359375 C 493.019531 513.878906 495.65625 537.109375 518.441406 566.054688 L 541.863281 552.152344 C 536.429688 546.21875 531.988281 539.617188 528.535156 532.347656 C 528.246094 531.8125 528 531.253906 527.796875 530.679688 C 527.597656 530.101562 527.445312 529.515625 527.335938 528.914062 C 527.226562 528.3125 527.167969 527.707031 527.15625 527.097656 C 527.144531 526.488281 527.183594 525.882812 527.269531 525.277344 C 527.351562 524.671875 527.484375 524.078125 527.664062 523.496094 C 527.84375 522.914062 528.070312 522.347656 528.339844 521.800781 C 528.605469 521.253906 528.917969 520.730469 529.269531 520.230469 C 529.621094 519.734375 530.011719 519.265625 530.4375 518.828125 C 536.34375 513.019531 544.148438 515.019531 553.957031 524.828125 C 557.726562 528.835938 560.917969 533.261719 563.53125 538.101562 C 566.148438 542.945312 568.097656 548.039062 569.378906 553.390625 C 574.117188 576.703125 576.59375 600.25 576.804688 624.035156 L 599.941406 647.269531 Z M 714.003906 506.738281 C 709.257812 496.441406 703.507812 486.738281 696.757812 477.628906 C 690.003906 468.519531 682.390625 460.195312 673.921875 452.65625 C 666.789062 444.851562 658.945312 437.84375 650.382812 431.636719 C 641.820312 425.433594 632.71875 420.15625 623.078125 415.8125 C 621.421875 415.0625 619.714844 414.445312 617.960938 413.960938 C 616.207031 413.480469 614.425781 413.140625 612.617188 412.9375 C 610.808594 412.738281 608.996094 412.679688 607.179688 412.765625 C 605.363281 412.851562 603.5625 413.078125 601.78125 413.449219 C 600 413.820312 598.257812 414.328125 596.558594 414.972656 C 594.855469 415.617188 593.214844 416.390625 591.636719 417.292969 C 590.058594 418.199219 588.558594 419.222656 587.144531 420.359375 C 585.726562 421.5 584.40625 422.746094 583.183594 424.09375 C 581.871094 425.292969 580.652344 426.582031 579.535156 427.96875 C 578.417969 429.351562 577.414062 430.8125 576.519531 432.351562 C 575.625 433.890625 574.851562 435.488281 574.203125 437.144531 C 573.554688 438.800781 573.035156 440.496094 572.644531 442.230469 C 572.257812 443.964844 572 445.722656 571.878906 447.496094 C 571.757812 449.273438 571.773438 451.046875 571.925781 452.816406 C 572.078125 454.589844 572.363281 456.339844 572.78125 458.070312 C 573.199219 459.800781 573.75 461.484375 574.425781 463.132812 C 579.628906 478.046875 592.992188 496.265625 614.507812 517.78125 C 621.601562 525.519531 629.40625 532.460938 637.921875 538.601562 C 646.4375 544.742188 655.484375 549.957031 665.066406 554.246094 C 666.726562 554.996094 668.433594 555.609375 670.191406 556.089844 C 671.945312 556.566406 673.730469 556.902344 675.539062 557.101562 C 677.347656 557.296875 679.160156 557.351562 680.980469 557.261719 C 682.796875 557.171875 684.597656 556.941406 686.378906 556.566406 C 688.160156 556.191406 689.902344 555.679688 691.601562 555.03125 C 693.304688 554.382812 694.941406 553.601562 696.519531 552.695312 C 698.097656 551.785156 699.59375 550.761719 701.007812 549.613281 C 702.425781 548.46875 703.742188 547.222656 704.960938 545.867188 C 706.28125 544.671875 707.507812 543.382812 708.636719 541.996094 C 709.761719 540.613281 710.777344 539.152344 711.683594 537.613281 C 712.585938 536.074219 713.371094 534.476562 714.03125 532.820312 C 714.691406 531.160156 715.222656 529.460938 715.625 527.722656 C 716.027344 525.984375 716.292969 524.226562 716.429688 522.445312 C 716.5625 520.664062 716.558594 518.886719 716.421875 517.105469 C 716.285156 515.328125 716.015625 513.566406 715.609375 511.828125 C 715.203125 510.089844 714.667969 508.394531 714.003906 506.738281 Z M 758.085938 440.089844 C 755.234375 436.753906 751.925781 433.953125 748.164062 431.6875 C 744.402344 429.421875 740.378906 427.8125 736.09375 426.855469 C 734.339844 426.621094 732.582031 426.605469 730.824219 426.800781 C 729.066406 426.996094 727.355469 427.402344 725.699219 428.015625 C 724.039062 428.628906 722.476562 429.433594 721.015625 430.429688 C 719.550781 431.425781 718.230469 432.582031 717.050781 433.902344 C 705.5625 445.453125 707.625 459.039062 723.238281 474.652344 C 726.132812 477.941406 729.457031 480.714844 733.210938 482.972656 C 736.964844 485.234375 740.972656 486.871094 745.234375 487.886719 C 746.988281 488.140625 748.746094 488.175781 750.511719 487.988281 C 752.273438 487.804688 753.988281 487.402344 755.652344 486.785156 C 757.3125 486.171875 758.875 485.359375 760.335938 484.355469 C 761.796875 483.347656 763.109375 482.175781 764.273438 480.839844 C 775.890625 469.605469 773.828125 456.148438 758.085938 440.472656 Z M 798.742188 445.042969 L 780.652344 427.046875 L 794.457031 413.335938 L 786.648438 405.433594 L 772.84375 419.238281 L 760.941406 407.242188 L 778.746094 389.4375 L 770.941406 381.632812 L 742.375 410.195312 L 787.984375 455.894531 Z M 830.445312 413.335938 L 812.355469 395.53125 L 826.160156 381.726562 L 818.355469 373.917969 L 804.550781 387.914062 L 792.648438 375.917969 L 810.453125 358.113281 L 802.644531 350.308594 L 774.082031 378.871094 L 819.972656 424.09375 Z M 872.625 262.238281 C 869.863281 264.425781 866.625 268.519531 863.101562 267.378906 C 862.304688 267.09375 861.554688 266.707031 860.859375 266.21875 C 860.160156 265.734375 859.539062 265.164062 858.996094 264.507812 C 858.453125 263.855469 858.003906 263.144531 857.652344 262.371094 C 857.296875 261.597656 857.050781 260.792969 856.914062 259.953125 C 856.914062 259 856.34375 254.429688 856.25 253.289062 C 855.023438 253.761719 853.945312 254.460938 853.011719 255.382812 C 852.480469 255.914062 852.007812 256.492188 851.589844 257.117188 C 851.175781 257.742188 850.824219 258.402344 850.535156 259.09375 C 850.25 259.789062 850.035156 260.503906 849.886719 261.242188 C 849.742188 261.976562 849.667969 262.722656 849.671875 263.472656 C 849.671875 264.222656 849.746094 264.964844 849.890625 265.703125 C 850.039062 266.4375 850.253906 267.152344 850.542969 267.847656 C 850.832031 268.542969 851.183594 269.199219 851.601562 269.824219 C 852.015625 270.449219 852.492188 271.027344 853.023438 271.558594 C 853.554688 272.089844 854.128906 272.5625 854.753906 272.980469 C 855.378906 273.398438 856.039062 273.75 856.730469 274.035156 C 857.425781 274.324219 858.140625 274.542969 858.875 274.6875 C 859.613281 274.835938 860.355469 274.910156 861.105469 274.910156 C 861.859375 274.910156 862.601562 274.835938 863.339844 274.691406 C 864.074219 274.546875 864.789062 274.328125 865.484375 274.042969 C 866.179688 273.757812 866.835938 273.40625 867.460938 272.988281 C 868.085938 272.570312 868.664062 272.097656 869.195312 271.566406 C 870.414062 270.335938 871.324219 268.902344 871.921875 267.273438 C 872.519531 265.644531 872.753906 263.96875 872.625 262.238281 Z M 954.695312 54.296875 C 952.574219 53.5625 950.398438 53.09375 948.164062 52.894531 C 945.929688 52.695312 943.703125 52.769531 941.484375 53.117188 C 939.269531 53.464844 937.125 54.078125 935.0625 54.957031 C 932.996094 55.832031 931.066406 56.945312 929.273438 58.296875 C 928.320312 59.019531 927.410156 59.800781 926.554688 60.636719 C 925.695312 61.476562 924.894531 62.363281 924.148438 63.300781 C 923.402344 64.238281 922.71875 65.21875 922.097656 66.246094 C 921.472656 67.269531 920.917969 68.328125 920.429688 69.421875 C 919.941406 70.515625 919.519531 71.636719 919.171875 72.785156 C 918.824219 73.929688 918.550781 75.09375 918.347656 76.277344 C 918.148438 77.457031 918.019531 78.648438 917.96875 79.84375 C 917.917969 81.042969 917.941406 82.238281 918.039062 83.433594 C 918.359375 87.480469 918.492188 91.53125 918.4375 95.589844 C 918.382812 99.648438 918.140625 103.695312 917.710938 107.730469 C 917.28125 111.765625 916.664062 115.773438 915.863281 119.75 C 915.0625 123.730469 914.078125 127.664062 912.914062 131.550781 C 911.746094 135.4375 910.402344 139.261719 908.882812 143.027344 C 907.363281 146.789062 905.671875 150.472656 903.808594 154.082031 C 901.949219 157.6875 899.921875 161.199219 897.738281 164.617188 C 895.550781 168.035156 893.207031 171.347656 890.714844 174.550781 C 885.46875 181.089844 880.945312 188.09375 877.144531 195.570312 C 873.34375 203.042969 870.34375 210.824219 868.148438 218.917969 C 872.875 219.59375 877.402344 220.933594 881.730469 222.945312 C 886.058594 224.957031 890.007812 227.546875 893.570312 230.722656 C 926.988281 199.78125 972.976562 150.367188 979.261719 109.902344 C 983.355469 81.339844 974.878906 62.296875 954.695312 54.296875 Z M 954.695312 54.296875 " fill-opacity="1" fill-rule="nonzero"/></svg>