<svg xmlns="http://www.w3.org/2000/svg" xmlns:xlink="http://www.w3.org/1999/xlink" width="1920" zoomAndPan="magnify" viewBox="0 0 1440 809.999993" height="1080" preserveAspectRatio="xMidYMid meet" version="1.0"><defs><clipPath id="d09b3e55ec"><path d="M 484 175 L 1008 175 L 1008 757.929688 L 484 757.929688 Z M 484 175 " clip-rule="nonzero"/></clipPath><clipPath id="4c9eee538c"><path d="M 924 575 L 1104 575 L 1104 757.929688 L 924 757.929688 Z M 924 575 " clip-rule="nonzero"/></clipPath></defs><rect x="-144" width="1728" fill="#ffffff" y="-80.999999" height="971.999992" fill-opacity="1"/><rect x="-144" width="1728" fill="#feffff" y="-80.999999" height="971.999992" fill-opacity="1"/><g clip-path="url(#d09b3e55ec)"><path fill="#000000" d="M 1007.699219 348.878906 C 1006.710938 343.382812 1003.746094 338.546875 999.238281 335.25 C 990.558594 328.984375 978.804688 330.410156 971.664062 338.21875 C 969.574219 336.457031 967.488281 334.808594 965.839844 332.832031 C 961.445312 327.664062 961.003906 320.296875 958.367188 314.03125 C 953.863281 303.039062 941.777344 295.675781 929.910156 296.664062 C 918.046875 297.652344 907.277344 306.996094 904.75 318.648438 C 900.796875 315.570312 894.09375 317.332031 890.6875 320.957031 C 887.28125 324.585938 886.292969 329.863281 886.402344 334.808594 C 886.402344 336.679688 886.621094 338.546875 886.839844 340.414062 C 882.777344 345.910156 879.480469 351.410156 877.941406 356.574219 C 876.402344 361.632812 876.625 366.25 878.273438 370.097656 C 876.292969 371.527344 874.425781 372.953125 872.777344 374.714844 C 870.800781 376.914062 869.480469 379.660156 868.382812 382.519531 C 855.089844 385.597656 838.9375 390.875 830.148438 399.339844 C 828.171875 401.207031 824.542969 405.054688 820.148438 409.890625 C 808.285156 422.644531 788.726562 443.640625 777.738281 450.566406 L 764.445312 446.828125 C 762.90625 441.332031 760.269531 435.726562 755.765625 434.515625 C 753.347656 433.855469 751.148438 434.40625 749.503906 435.945312 C 748.511719 436.933594 747.964844 438.035156 747.632812 439.242188 C 743.019531 437.8125 737.304688 437.375 733.679688 440.121094 C 730.382812 442.648438 729.066406 446.386719 729.945312 450.457031 C 730.933594 455.511719 735.109375 460.460938 740.164062 464.085938 L 732.800781 461.230469 C 727.859375 459.25 722.253906 461.777344 720.277344 466.726562 C 718.410156 471.671875 720.824219 477.167969 725.769531 479.148438 L 727.859375 479.917969 L 722.144531 511.246094 L 712.585938 507.839844 C 712.253906 507.730469 712.035156 507.730469 711.707031 507.617188 L 715.660156 485.632812 C 709.289062 480.027344 706.871094 471.121094 709.949219 462.878906 C 710.386719 461.667969 710.9375 460.570312 711.597656 459.578125 C 707.859375 459.25 704.234375 458.921875 701.050781 458.699219 C 698.082031 442.101562 695.554688 427.808594 695.445312 412.640625 C 695.445312 407.691406 695.664062 402.964844 695.886719 398.128906 C 712.367188 397.140625 740.164062 385.265625 762.46875 374.382812 C 763.015625 374.492188 763.457031 374.714844 764.003906 374.714844 C 764.445312 374.714844 764.882812 374.605469 765.324219 374.492188 C 765.871094 374.273438 770.597656 372.515625 773.453125 368.226562 C 774.332031 367.679688 777.957031 367.347656 780.375 367.128906 C 785.980469 366.6875 792.023438 366.027344 795.320312 362.402344 C 797.84375 367.238281 800.261719 372.074219 803.230469 377.351562 C 805.425781 380.648438 808.503906 383.398438 811.910156 385.15625 C 815.535156 387.136719 819.269531 387.574219 822.675781 388.453125 C 823.664062 388.675781 824.652344 388.125 824.984375 387.136719 C 825.3125 386.035156 824.765625 384.9375 823.664062 384.71875 L 823.554688 384.605469 C 820.148438 383.617188 816.742188 382.957031 814.105469 381.308594 C 811.359375 379.660156 809.050781 377.351562 807.40625 374.714844 C 804.4375 368.886719 801.472656 361.960938 798.503906 355.585938 L 798.285156 355.695312 C 798.835938 351.957031 798.503906 339.425781 798.613281 337.667969 C 799.605469 339.644531 800.59375 341.515625 801.800781 343.605469 C 804 346.902344 807.074219 349.648438 810.480469 351.410156 C 814.105469 353.386719 817.84375 353.828125 821.136719 354.707031 C 822.238281 354.925781 823.226562 354.375 823.554688 353.386719 C 823.886719 352.289062 823.335938 351.1875 822.238281 350.96875 L 822.128906 350.859375 C 818.722656 349.871094 815.316406 349.210938 812.679688 347.5625 C 809.929688 345.910156 807.625 343.605469 805.976562 340.964844 C 803.667969 336.566406 801.472656 331.511719 799.273438 326.5625 C 801.472656 325.136719 803.230469 323.707031 804.546875 322.386719 C 811.03125 317.988281 806.304688 312.601562 805.757812 311.945312 L 793.449219 298.863281 C 792.132812 297.324219 789.164062 295.125 785.871094 297.214844 L 779.386719 282.921875 C 779.386719 282.921875 779.386719 282.8125 779.277344 282.8125 C 778.289062 280.832031 775.871094 280.0625 773.894531 281.054688 C 771.914062 282.042969 771.148438 284.460938 772.136719 286.441406 L 773.785156 289.519531 C 773.453125 289.738281 773.015625 289.847656 772.683594 290.066406 C 768.511719 293.804688 768.070312 304.578125 768.070312 310.515625 L 747.746094 333.160156 L 737.085938 324.585938 C 737.527344 323.375 737.527344 321.949219 736.757812 320.847656 C 727.199219 306.335938 715.992188 295.675781 706.761719 288.417969 C 716.539062 273.25 717.308594 254.449219 710.609375 232.902344 C 710.71875 232.246094 710.71875 231.914062 710.71875 231.585938 C 730.605469 224.988281 719.945312 184.976562 699.730469 191.019531 C 681.710938 154.195312 631.71875 187.285156 633.808594 226.746094 C 620.84375 245.4375 616.007812 261.15625 618.753906 273.6875 C 609.527344 278.636719 603.261719 286.988281 600.625 293.367188 C 588.429688 324.367188 585.574219 415.386719 585.464844 418.574219 C 584.144531 425.941406 583.046875 433.195312 582.058594 440.34375 C 577.992188 452.765625 573.597656 468.59375 572.28125 482.226562 C 571.289062 491.679688 570.960938 502.671875 570.960938 515.09375 C 564.367188 518.722656 560.304688 520.921875 560.304688 520.921875 C 560.632812 521.910156 560.960938 522.679688 561.292969 523.558594 C 558.324219 523.449219 554.921875 522.679688 552.171875 520.589844 C 546.679688 516.304688 530.199219 492.230469 525.472656 494.207031 C 522.507812 495.417969 523.277344 503.332031 525.914062 513.117188 C 524.59375 512.347656 523.386719 511.90625 522.617188 512.347656 C 515.585938 515.972656 534.921875 559.507812 547.667969 570.609375 L 498.554688 591.164062 C 492.84375 593.585938 488.335938 598.089844 486.03125 603.917969 C 483.613281 609.742188 483.722656 616.011719 486.140625 621.726562 C 489.765625 630.519531 498.226562 636.128906 507.566406 636.128906 C 510.3125 636.128906 512.839844 635.578125 515.257812 634.699219 C 518.882812 638.433594 523.9375 640.632812 529.101562 640.632812 C 531.515625 640.632812 534.042969 640.195312 536.570312 639.09375 L 571.621094 624.363281 C 571.730469 655.363281 572.5 671.632812 572.71875 721.101562 L 620.734375 721.101562 L 623.917969 623.265625 C 626.886719 626.34375 630.292969 628.980469 633.917969 631.179688 L 637.324219 710.21875 L 680.503906 710.21875 L 681.710938 637.996094 L 686.875 637.996094 L 759.609375 719.125 L 632.269531 719.125 C 621.613281 719.125 613.042969 727.699219 613.042969 738.363281 L 613.042969 745.617188 C 601.613281 743.089844 587.222656 737.8125 581.398438 735.285156 C 581.179688 743.089844 580.738281 746.9375 583.15625 753.203125 C 584.253906 755.949219 598.648438 758.039062 613.042969 757.929688 L 872.449219 757.929688 L 872.449219 738.363281 C 872.449219 727.699219 863.878906 719.125 853.222656 719.125 L 839.597656 719.125 L 810.261719 637.996094 L 842.015625 637.996094 C 862.667969 637.996094 880.910156 624.914062 887.609375 605.347656 L 926.066406 491.570312 L 954.523438 461.886719 C 959.027344 457.050781 960.675781 450.675781 959.355469 444.628906 C 962.433594 440.5625 964.191406 435.613281 964.082031 430.339844 C 963.972656 425.722656 962.542969 421.324219 959.90625 417.476562 L 965.398438 408.351562 C 970.671875 407.363281 975.398438 404.394531 978.585938 399.996094 L 1003.964844 364.488281 C 1007.261719 359.984375 1008.578125 354.375 1007.699219 348.878906 Z M 947.820312 403.40625 C 948.371094 403.953125 948.808594 404.394531 949.359375 404.835938 C 949.6875 405.054688 950.019531 405.164062 950.347656 405.273438 L 948.257812 408.792969 C 946.28125 408.132812 944.304688 407.800781 942.328125 407.691406 C 943.863281 406.042969 945.734375 404.613281 947.820312 403.40625 Z M 885.851562 358.992188 C 890.027344 345.140625 908.15625 328.214844 918.59375 322.386719 C 918.046875 333.160156 923.429688 340.414062 927.824219 346.460938 C 932.878906 353.167969 935.515625 357.234375 933.648438 364.050781 C 933.316406 365.148438 933.535156 366.359375 934.195312 367.347656 C 934.855469 368.335938 935.84375 368.996094 937.050781 369.21875 C 938.152344 369.328125 939.46875 369.765625 940.457031 370.097656 C 939.578125 370.976562 938.261719 371.527344 936.832031 371.636719 C 935.84375 371.746094 933.976562 371.746094 932.65625 370.097656 C 931.339844 368.667969 929.140625 368.226562 927.382812 369.328125 C 927.164062 369.4375 904.53125 382.957031 888.050781 370.207031 C 886.183594 368.667969 883.765625 365.808594 885.851562 358.992188 Z M 914.527344 382.847656 C 911.453125 386.476562 908.707031 390.324219 906.507812 394.609375 C 898.925781 393.402344 892.335938 389.664062 890.578125 386.585938 C 890.46875 386.585938 890.46875 386.476562 890.46875 386.476562 C 892.445312 385.597656 894.421875 384.386719 896.511719 382.957031 C 899.367188 383.617188 902.113281 383.949219 904.859375 383.949219 C 908.265625 383.949219 911.5625 383.507812 914.527344 382.847656 Z M 763.894531 455.292969 L 821.90625 471.34375 C 823.117188 471.671875 824.542969 471.34375 825.535156 470.574219 C 831.6875 465.515625 837.730469 459.910156 843.660156 454.414062 C 856.078125 442.980469 868.933594 431.109375 878.492188 428.800781 C 880.796875 428.25 882.117188 426.050781 881.566406 423.851562 C 881.019531 421.652344 878.820312 420.222656 876.625 420.773438 C 864.976562 423.523438 851.902344 435.613281 838.058594 448.367188 C 832.785156 453.203125 827.402344 458.261719 822.015625 462.765625 L 787.847656 453.3125 C 799.714844 443.96875 815.207031 427.371094 826.191406 415.496094 C 830.476562 410.878906 833.882812 407.144531 835.859375 405.273438 C 844.761719 396.699219 865.085938 390.875 882.554688 388.125 C 882.777344 389.003906 882.886719 389.882812 883.4375 390.761719 C 887.0625 397.03125 897.5 402.195312 908.375 403.183594 C 908.484375 403.953125 908.707031 404.722656 908.816406 405.492188 C 910.246094 416.925781 908.707031 424.953125 903.210938 434.957031 C 902.664062 436.054688 856.738281 484.644531 856.738281 484.644531 C 839.707031 496.515625 831.796875 500.363281 828.28125 501.574219 C 827.179688 499.375 825.421875 497.503906 823.007812 496.625 L 778.179688 479.039062 C 769.277344 473.320312 761.808594 467.933594 757.851562 465.074219 Z M 834.433594 507.949219 L 803.886719 539.828125 L 800.8125 538.730469 L 813.558594 513.554688 L 816.085938 514.542969 C 817.183594 514.984375 818.390625 515.203125 819.492188 515.203125 C 822.894531 515.203125 826.191406 513.226562 827.839844 510.148438 C 829.707031 509.816406 831.90625 509.046875 834.433594 507.949219 Z M 792.132812 513.445312 L 782.464844 532.351562 L 740.492188 517.621094 L 744.449219 494.757812 Z M 737.964844 448.804688 C 737.746094 447.707031 738.074219 447.15625 738.734375 446.71875 C 740.164062 445.617188 747.085938 447.265625 748.84375 448.804688 C 750.160156 450.015625 752.140625 450.234375 753.675781 449.246094 C 754.777344 448.695312 755.433594 447.597656 755.65625 446.386719 C 756.09375 447.597656 756.535156 449.027344 756.972656 450.785156 L 750.820312 460.679688 C 744.339844 457.929688 738.734375 452.542969 737.964844 448.804688 Z M 739.0625 525.867188 L 778.726562 539.71875 L 764.882812 566.871094 L 733.789062 555.988281 Z M 692.257812 389.992188 C 692.257812 389.992188 682.261719 387.464844 667.316406 378.011719 C 673.25 372.183594 677.867188 365.699219 681.382812 358.664062 L 695.554688 369.988281 C 696.214844 370.644531 698.742188 370.867188 698.960938 370.867188 L 753.566406 358.222656 C 753.675781 362.183594 754.667969 365.371094 756.203125 368.117188 C 725.550781 382.957031 702.476562 390.761719 692.257812 389.992188 Z M 699.402344 362.292969 C 699.730469 359.324219 700.058594 356.464844 700.390625 353.496094 L 709.839844 359.875 Z M 789.496094 335.578125 C 790.703125 336.679688 791.035156 354.046875 789.386719 357.015625 C 788.398438 358.222656 782.464844 358.664062 779.714844 358.992188 C 774.113281 359.433594 769.390625 359.875 767.082031 363.171875 C 766.203125 364.378906 765.214844 365.148438 764.335938 365.808594 C 762.90625 364.269531 761.257812 361.191406 761.917969 354.707031 L 766.75 352.949219 C 767.410156 352.726562 767.851562 352.398438 768.289062 351.957031 C 777.191406 343.382812 787.519531 335.796875 789.496094 335.578125 Z M 776.421875 311.945312 C 776.199219 306.886719 776.640625 301.390625 777.410156 298.3125 C 777.847656 300.070312 777.957031 302.929688 777.628906 305.566406 C 777.410156 306.777344 777.957031 307.875 778.726562 308.753906 C 778.289062 312.382812 778.949219 315.902344 781.144531 318.871094 C 782.574219 320.847656 784.441406 322.277344 786.527344 323.265625 C 783.234375 323.488281 780.925781 325.90625 780.925781 325.90625 C 776.75 323.488281 774.003906 321.066406 772.355469 317.988281 C 772.355469 317.988281 776.421875 313.042969 776.421875 311.945312 Z M 745.4375 341.953125 C 746.207031 342.613281 747.195312 342.835938 748.074219 342.835938 C 749.171875 342.835938 750.269531 342.394531 751.039062 341.625 L 767.082031 324.695312 C 769.5 327.992188 772.90625 330.742188 777.628906 333.378906 C 773.34375 336.238281 765.433594 340.414062 759.5 348 L 725.332031 356.246094 C 723.574219 355.035156 721.925781 353.828125 720.277344 352.507812 L 732.910156 331.730469 Z M 647.652344 230.046875 C 648.089844 229.386719 648.640625 228.945312 648.96875 228.945312 C 650.070312 229.054688 652.15625 231.363281 653.253906 233.234375 C 654.023438 234.773438 655.78125 235.542969 657.429688 235.324219 C 659.1875 235.101562 660.507812 233.785156 660.835938 232.023438 L 662.15625 225.648438 C 674.019531 223.890625 682.480469 217.183594 687.425781 211.796875 C 690.722656 221.800781 695.554688 228.617188 702.257812 232.574219 C 701.050781 239.390625 697.203125 256.980469 687.203125 264.125 C 683.359375 266.871094 678.964844 267.75 673.910156 266.652344 C 661.054688 264.015625 657.757812 245.214844 657.757812 244.996094 C 657.429688 243.238281 656 241.808594 654.132812 241.589844 C 650.398438 241.148438 647.429688 239.171875 646.332031 236.421875 C 645.453125 234.222656 645.894531 232.023438 647.652344 230.046875 Z M 672.480469 276.214844 C 670.175781 276.65625 666.4375 276.65625 661.496094 275.777344 C 654.902344 274.566406 650.835938 272.589844 649.519531 271.820312 C 651.605469 269.070312 654.464844 265.113281 655.890625 262.585938 C 659.1875 267.75 664.132812 272.589844 671.273438 274.457031 C 671.714844 275.007812 672.042969 275.667969 672.480469 276.214844 Z M 593.59375 419.457031 C 593.703125 418.574219 596.671875 326.125 608.316406 296.445312 C 610.074219 291.9375 615.679688 283.253906 625.128906 279.515625 C 628.535156 278.085938 636.882812 276.4375 642.378906 275.445312 C 644.792969 279.074219 650.398438 282.042969 658.859375 283.691406 C 662.15625 284.351562 665.671875 284.792969 668.855469 284.792969 C 673.359375 284.792969 677.316406 283.800781 679.84375 281.824219 C 680.28125 281.933594 680.613281 282.042969 680.941406 282.261719 C 682.480469 282.921875 684.019531 283.582031 685.335938 284.023438 C 685.558594 284.242188 710.277344 296.882812 728.40625 323.265625 L 711.488281 351.078125 L 701.378906 344.152344 C 702.257812 335.027344 702.917969 325.792969 702.917969 316.449219 C 702.917969 314.140625 701.050781 312.273438 698.851562 312.273438 C 696.214844 312.601562 694.675781 314.140625 694.675781 316.449219 C 694.675781 326.125 693.90625 335.6875 692.917969 345.253906 C 692.917969 345.363281 692.917969 345.363281 692.917969 345.472656 C 692.589844 349.101562 692.148438 352.726562 691.710938 356.464844 L 684.679688 350.75 C 685.117188 349.429688 684.789062 347.890625 683.800781 346.792969 L 652.925781 314.800781 C 651.277344 313.152344 648.75 313.152344 647.101562 314.691406 C 645.453125 316.230469 645.34375 318.871094 646.992188 320.519531 L 676 350.640625 C 672.261719 359.875 666.550781 368.007812 658.527344 375.261719 C 658.417969 375.261719 658.308594 375.375 658.199219 375.484375 C 649.410156 368.886719 621.5 347.230469 614.691406 336.566406 C 613.480469 334.589844 610.953125 334.039062 608.976562 335.25 C 607.109375 336.457031 606.558594 339.097656 607.769531 340.964844 C 616.667969 354.925781 654.351562 382.957031 656 384.058594 C 656.660156 384.605469 657.539062 384.9375 658.417969 384.9375 C 659.296875 384.9375 660.285156 384.605469 661.054688 383.949219 L 661.164062 383.835938 C 672.59375 391.203125 681.382812 395.710938 687.644531 397.359375 C 687.425781 402.417969 687.203125 407.472656 687.203125 412.75 C 687.316406 427.917969 689.84375 442.652344 692.589844 458.152344 C 689.183594 458.039062 686.65625 458.039062 685.445312 458.371094 C 672.703125 461.449219 619.855469 489.039062 587.003906 506.519531 C 585.683594 474.640625 588.539062 448.148438 593.59375 419.457031 Z M 513.386719 626.671875 C 506.027344 629.859375 496.796875 626.125 493.722656 618.539062 C 492.074219 614.910156 492.074219 610.734375 493.613281 606.996094 C 495.148438 603.257812 498.007812 600.398438 501.742188 598.859375 L 698.960938 515.972656 C 700.9375 515.203125 702.917969 514.765625 704.894531 514.765625 C 706.542969 514.765625 708.191406 515.09375 709.839844 515.644531 L 720.714844 519.382812 L 715.222656 549.503906 L 706.871094 546.535156 C 705.882812 546.203125 704.894531 546.3125 703.90625 546.644531 Z M 869.371094 599.191406 C 865.417969 610.953125 854.429688 618.757812 842.015625 618.757812 L 658.527344 618.757812 C 649.078125 618.757812 640.289062 614.25 634.90625 606.554688 L 630.183594 599.851562 L 705.445312 568.191406 L 803.886719 602.597656 C 811.03125 605.125 818.832031 603.257812 824.105469 597.871094 L 894.753906 524.21875 Z M 951.554688 441.332031 L 821.136719 577.316406 C 817.074219 581.492188 810.808594 582.921875 805.316406 581.050781 L 783.234375 573.355469 L 797.078125 546.203125 L 803.667969 548.511719 C 805.097656 549.0625 806.855469 548.621094 807.953125 547.414062 L 929.800781 420.335938 C 935.625 414.398438 945.183594 414.179688 951.226562 419.894531 C 954.082031 422.753906 955.730469 426.492188 955.839844 430.558594 C 955.839844 434.625 954.414062 438.363281 951.554688 441.332031 Z M 997.261719 359.652344 L 971.882812 395.160156 C 969.90625 397.910156 966.9375 399.777344 963.640625 400.328125 C 960.234375 400.878906 956.941406 400.109375 954.191406 398.128906 C 951.445312 396.148438 949.578125 393.292969 949.027344 389.882812 C 948.480469 386.585938 949.25 383.179688 951.226562 380.429688 L 976.714844 344.8125 C 979.242188 341.40625 983.089844 339.535156 987.042969 339.535156 C 989.570312 339.535156 992.207031 340.304688 994.40625 341.953125 C 997.152344 343.933594 999.019531 346.902344 999.570312 350.199219 C 1000.117188 353.496094 999.238281 356.90625 997.261719 359.652344 Z M 997.261719 359.652344 " fill-opacity="1" fill-rule="nonzero"/></g><g clip-path="url(#4c9eee538c)"><path fill="#000000" d="M 1094.386719 575.886719 L 933.535156 575.886719 C 928.703125 575.886719 924.746094 579.84375 924.746094 584.679688 L 924.746094 749.136719 C 924.746094 753.972656 928.703125 757.929688 933.535156 757.929688 L 1094.386719 757.929688 C 1099.222656 757.929688 1103.179688 753.972656 1103.179688 749.136719 L 1103.179688 584.679688 C 1103.179688 579.84375 1099.332031 575.886719 1094.386719 575.886719 Z M 935.292969 586.4375 L 1051.429688 586.4375 L 1051.429688 740.449219 L 935.292969 740.449219 Z M 935.292969 586.4375 " fill-opacity="1" fill-rule="nonzero"/></g><path fill="#000000" d="M 518.773438 108.902344 C 518.773438 107.472656 518.550781 106.15625 518.332031 104.835938 L 573.269531 71.308594 C 574.367188 70.648438 575.796875 70.757812 576.675781 71.746094 L 609.417969 104.507812 L 597.988281 115.9375 C 591.835938 122.09375 591.835938 132.207031 597.988281 138.363281 L 598.867188 139.242188 L 593.484375 144.628906 C 584.914062 153.203125 584.914062 167.167969 593.484375 175.742188 L 598.648438 180.90625 L 598.648438 181.015625 C 596.339844 183.324219 596.339844 187.171875 598.648438 189.480469 C 600.957031 191.789062 604.800781 191.789062 607.109375 189.480469 L 706.980469 89.554688 C 709.289062 87.246094 709.289062 83.398438 706.980469 81.089844 C 704.675781 78.78125 700.828125 78.78125 698.523438 81.089844 L 693.359375 75.925781 C 684.789062 67.351562 670.835938 67.351562 662.265625 75.925781 L 656.878906 81.3125 L 656 80.429688 C 649.847656 74.273438 639.742188 74.273438 633.585938 80.429688 L 621.0625 92.964844 L 588.320312 60.203125 C 582.058594 53.9375 572.28125 52.730469 564.699219 57.347656 L 509.761719 90.875 C 506.027344 88.125 501.523438 86.476562 496.578125 86.476562 C 484.273438 86.476562 474.273438 96.480469 474.273438 108.902344 C 474.273438 121.214844 484.273438 131.21875 496.578125 131.21875 C 508.882812 131.21875 518.773438 121.214844 518.773438 108.902344 Z M 485.152344 108.902344 C 485.152344 102.527344 490.207031 97.46875 496.46875 97.46875 C 502.730469 97.46875 507.785156 102.527344 507.785156 108.902344 C 507.785156 115.058594 502.730469 120.226562 496.46875 120.226562 C 490.207031 120.226562 485.152344 115.058594 485.152344 108.902344 Z M 485.152344 108.902344 " fill-opacity="1" fill-rule="nonzero"/><path fill="#000000" d="M 1124.273438 147.820312 L 1004.625 147.820312 C 996.273438 147.820312 989.351562 154.632812 989.351562 162.988281 L 989.351562 282.8125 C 989.351562 291.167969 996.164062 298.09375 1004.625 298.09375 L 1124.273438 298.09375 C 1132.625 298.09375 1139.546875 291.277344 1139.546875 282.8125 L 1139.546875 162.988281 C 1139.546875 154.632812 1132.625 147.820312 1124.273438 147.820312 Z M 1128.558594 282.8125 C 1128.558594 285.121094 1126.691406 287.097656 1124.273438 287.097656 L 1004.625 287.097656 C 1002.316406 287.097656 1000.339844 285.230469 1000.339844 282.8125 L 1000.339844 162.988281 C 1000.339844 160.679688 1002.207031 158.8125 1004.625 158.8125 L 1124.273438 158.8125 C 1126.582031 158.8125 1128.558594 160.679688 1128.558594 162.988281 Z M 1128.558594 282.8125 " fill-opacity="1" fill-rule="nonzero"/><path fill="#000000" d="M 1079.226562 184.644531 C 1076.589844 184.644531 1074.0625 185.414062 1071.753906 186.84375 C 1067.140625 189.703125 1061.425781 189.8125 1056.8125 186.953125 C 1054.503906 185.523438 1051.867188 184.644531 1049.121094 184.644531 C 1039.5625 184.644531 1032.203125 193.988281 1032.203125 205.53125 C 1032.203125 210.699219 1033.628906 215.425781 1036.15625 219.054688 C 1038.023438 221.800781 1038.464844 225.210938 1037.695312 228.398438 C 1037.035156 231.253906 1036.597656 234.441406 1036.597656 237.632812 C 1036.597656 245.984375 1039.011719 253.570312 1042.96875 259.398438 C 1045.386719 262.914062 1050.988281 260.828125 1050.550781 256.539062 C 1050.441406 255.109375 1050.332031 253.679688 1050.332031 252.25 C 1050.332031 238.070312 1056.375 226.417969 1064.0625 226.417969 C 1071.753906 226.417969 1078.238281 238.070312 1078.238281 252.25 C 1078.238281 253.460938 1078.238281 254.78125 1078.128906 255.988281 C 1077.796875 260.496094 1083.511719 262.367188 1085.929688 258.628906 C 1089.664062 252.910156 1091.863281 245.65625 1091.863281 237.742188 C 1091.863281 234.992188 1091.640625 232.355469 1091.09375 229.824219 C 1090.214844 225.867188 1090.761719 221.691406 1092.851562 218.394531 C 1095.15625 214.875 1096.476562 210.476562 1096.476562 205.640625 C 1096.585938 193.988281 1088.894531 184.644531 1079.226562 184.644531 Z M 1079.226562 184.644531 " fill-opacity="1" fill-rule="nonzero"/><path fill="#000000" d="M 947.710938 598.859375 L 1038.902344 598.859375 L 1038.902344 629.859375 L 947.710938 629.859375 Z M 947.710938 598.859375 " fill-opacity="1" fill-rule="nonzero"/><path fill="#000000" d="M 947.710938 696.917969 L 1038.902344 696.917969 L 1038.902344 727.917969 L 947.710938 727.917969 Z M 947.710938 696.917969 " fill-opacity="1" fill-rule="nonzero"/><path fill="#000000" d="M 947.710938 647.890625 L 1038.902344 647.890625 L 1038.902344 678.890625 L 947.710938 678.890625 Z M 947.710938 647.890625 " fill-opacity="1" fill-rule="nonzero"/></svg>