<svg xmlns="http://www.w3.org/2000/svg" xmlns:xlink="http://www.w3.org/1999/xlink" width="1920" zoomAndPan="magnify" viewBox="0 0 1440 809.999993" height="1080" preserveAspectRatio="xMidYMid meet" version="1.0"><rect x="-144" width="1728" fill="#ffffff" y="-80.999999" height="971.999992" fill-opacity="1"/><rect x="-144" width="1728" fill="#feffff" y="-80.999999" height="971.999992" fill-opacity="1"/><path fill="#000000" d="M 757.894531 465.230469 C 758.171875 465.886719 758.34375 466.574219 758.40625 467.285156 C 758.472656 468 758.425781 468.703125 758.273438 469.402344 C 758.121094 470.101562 757.867188 470.761719 757.507812 471.378906 C 757.152344 472 756.710938 472.550781 756.183594 473.035156 C 755.683594 473.566406 755.113281 474.011719 754.472656 474.367188 C 753.835938 474.722656 753.160156 474.972656 752.441406 475.117188 C 751.726562 475.265625 751.003906 475.296875 750.277344 475.21875 C 749.550781 475.136719 748.851562 474.949219 748.183594 474.652344 C 742.96875 471.925781 738.429688 468.339844 734.570312 463.894531 C 730.054688 460.039062 726.433594 455.46875 723.714844 450.1875 C 723.472656 449.523438 723.328125 448.839844 723.28125 448.132812 C 723.234375 447.429688 723.289062 446.730469 723.441406 446.039062 C 723.59375 445.351562 723.839844 444.695312 724.179688 444.074219 C 724.519531 443.457031 724.941406 442.894531 725.441406 442.394531 C 725.941406 441.894531 726.5 441.476562 727.121094 441.136719 C 727.742188 440.796875 728.398438 440.550781 729.085938 440.394531 C 729.777344 440.242188 730.476562 440.191406 731.179688 440.238281 C 731.886719 440.285156 732.574219 440.429688 733.238281 440.671875 C 738.5 443.414062 743.070312 447.03125 746.945312 451.523438 C 751.472656 455.390625 755.125 459.960938 757.894531 465.230469 Z M 655.546875 389.171875 C 657.675781 391.714844 660.246094 393.683594 663.257812 395.074219 C 664 395.28125 664.742188 395.273438 665.484375 395.046875 C 666.222656 394.824219 666.847656 394.421875 667.351562 393.835938 C 667.652344 393.570312 667.902344 393.261719 668.105469 392.914062 C 668.308594 392.566406 668.453125 392.195312 668.539062 391.800781 C 668.625 391.410156 668.648438 391.011719 668.605469 390.609375 C 668.566406 390.210938 668.464844 389.828125 668.304688 389.457031 C 666.914062 386.613281 665.007812 384.171875 662.589844 382.128906 C 660.664062 379.703125 658.316406 377.800781 655.546875 376.417969 C 654.808594 376.210938 654.074219 376.210938 653.339844 376.414062 C 652.601562 376.621094 651.972656 377 651.449219 377.558594 C 651.152344 377.816406 650.898438 378.117188 650.695312 378.453125 C 650.488281 378.789062 650.335938 379.148438 650.242188 379.535156 C 650.148438 379.917969 650.117188 380.308594 650.144531 380.699219 C 650.171875 381.09375 650.257812 381.476562 650.402344 381.84375 C 651.652344 384.613281 653.367188 387.054688 655.546875 389.171875 Z M 716.957031 383.746094 C 719.078125 386.277344 721.648438 388.210938 724.667969 389.554688 C 725.023438 389.675781 725.386719 389.75 725.761719 389.765625 C 726.140625 389.78125 726.507812 389.742188 726.875 389.648438 C 727.238281 389.554688 727.582031 389.414062 727.902344 389.21875 C 728.222656 389.023438 728.511719 388.785156 728.761719 388.507812 C 729.070312 388.230469 729.328125 387.917969 729.535156 387.566406 C 729.746094 387.210938 729.898438 386.835938 729.992188 386.433594 C 730.085938 386.035156 730.117188 385.628906 730.085938 385.21875 C 730.054688 384.808594 729.960938 384.414062 729.808594 384.03125 C 728.386719 381.214844 726.480469 378.769531 724.097656 376.703125 C 721.976562 374.144531 719.40625 372.179688 716.382812 370.800781 C 715.632812 370.597656 714.882812 370.597656 714.132812 370.800781 C 713.382812 371.007812 712.738281 371.386719 712.195312 371.941406 C 711.90625 372.21875 711.664062 372.53125 711.46875 372.878906 C 711.273438 373.226562 711.132812 373.597656 711.046875 373.988281 C 710.964844 374.375 710.9375 374.769531 710.96875 375.167969 C 711.003906 375.566406 711.09375 375.949219 711.242188 376.320312 C 712.707031 379.199219 714.671875 381.671875 717.144531 383.746094 Z M 653.546875 475.128906 C 642.488281 463.34375 630.460938 452.652344 617.460938 443.050781 C 611.082031 439.242188 606.035156 439.242188 602.226562 443.050781 C 601.804688 443.507812 601.421875 444 601.082031 444.523438 C 600.738281 445.046875 600.445312 445.59375 600.199219 446.167969 C 599.953125 446.742188 599.753906 447.332031 599.605469 447.9375 C 599.460938 448.546875 599.363281 449.160156 599.320312 449.785156 C 599.277344 450.40625 599.289062 451.027344 599.351562 451.648438 C 599.414062 452.269531 599.527344 452.882812 599.695312 453.484375 C 599.859375 454.085938 600.078125 454.671875 600.339844 455.234375 C 600.605469 455.800781 600.917969 456.339844 601.273438 456.851562 C 610.941406 470.839844 622.078125 483.53125 634.695312 494.929688 C 646.171875 507.453125 658.867188 518.589844 672.777344 528.339844 C 673.296875 528.710938 673.84375 529.03125 674.417969 529.308594 C 674.992188 529.585938 675.585938 529.8125 676.199219 529.988281 C 676.8125 530.164062 677.4375 530.285156 678.070312 530.355469 C 678.703125 530.421875 679.339844 530.4375 679.976562 530.402344 C 680.613281 530.363281 681.238281 530.269531 681.859375 530.125 C 682.480469 529.976562 683.085938 529.78125 683.671875 529.53125 C 684.257812 529.285156 684.820312 528.988281 685.359375 528.644531 C 685.894531 528.300781 686.398438 527.914062 686.871094 527.484375 C 687.28125 527.03125 687.648438 526.550781 687.980469 526.039062 C 688.3125 525.527344 688.597656 524.992188 688.839844 524.429688 C 689.082031 523.871094 689.273438 523.296875 689.421875 522.703125 C 689.566406 522.113281 689.664062 521.511719 689.710938 520.902344 C 689.757812 520.296875 689.757812 519.6875 689.703125 519.082031 C 689.648438 518.472656 689.546875 517.875 689.394531 517.285156 C 689.242188 516.695312 689.039062 516.121094 688.792969 515.566406 C 688.542969 515.007812 688.253906 514.476562 687.917969 513.964844 C 678.023438 499.699219 666.632812 486.753906 653.734375 475.128906 Z M 988.78125 111.21875 C 983.355469 148.34375 947.269531 191.558594 915.5625 223.257812 C 910.421875 228.492188 905.375 233.25 900.617188 237.726562 C 902.132812 239.785156 903.476562 241.945312 904.652344 244.214844 C 905.828125 246.484375 906.820312 248.828125 907.628906 251.253906 C 908.4375 253.675781 909.050781 256.148438 909.472656 258.667969 C 909.890625 261.191406 910.113281 263.726562 910.136719 266.28125 L 915.089844 406.972656 C 915.082031 410.722656 914.890625 414.464844 914.519531 418.199219 C 914.148438 421.933594 913.597656 425.640625 912.867188 429.320312 C 912.132812 433 911.226562 436.632812 910.140625 440.222656 C 909.054688 443.816406 907.796875 447.34375 906.367188 450.8125 C 904.9375 454.28125 903.34375 457.675781 901.585938 460.988281 C 899.824219 464.300781 897.910156 467.519531 895.835938 470.648438 C 893.761719 473.777344 891.542969 476.792969 889.175781 479.707031 C 886.808594 482.617188 884.308594 485.40625 881.667969 488.074219 L 648.214844 721.195312 C 647.046875 722.355469 645.824219 723.453125 644.550781 724.492188 C 643.273438 725.53125 641.953125 726.507812 640.582031 727.417969 C 639.210938 728.328125 637.800781 729.171875 636.347656 729.945312 C 634.894531 730.714844 633.40625 731.414062 631.886719 732.042969 C 630.363281 732.667969 628.816406 733.222656 627.238281 733.695312 C 625.664062 734.171875 624.070312 734.570312 622.457031 734.890625 C 620.839844 735.210938 619.214844 735.449219 617.578125 735.609375 C 615.941406 735.769531 614.296875 735.851562 612.652344 735.851562 C 611.007812 735.851562 609.367188 735.769531 607.726562 735.609375 C 606.089844 735.449219 604.464844 735.210938 602.851562 734.890625 C 601.234375 734.570312 599.640625 734.171875 598.066406 733.695312 C 596.492188 733.222656 594.941406 732.667969 593.421875 732.042969 C 591.898438 731.414062 590.414062 730.714844 588.960938 729.945312 C 587.507812 729.171875 586.09375 728.328125 584.722656 727.417969 C 583.355469 726.507812 582.03125 725.53125 580.753906 724.492188 C 579.480469 723.453125 578.257812 722.355469 577.09375 721.195312 L 403.617188 547.757812 C 402.460938 546.589844 401.359375 545.371094 400.320312 544.09375 C 399.277344 542.820312 398.304688 541.496094 397.390625 540.128906 C 396.480469 538.757812 395.640625 537.347656 394.867188 535.894531 C 394.09375 534.441406 393.394531 532.953125 392.769531 531.433594 C 392.140625 529.910156 391.589844 528.363281 391.113281 526.789062 C 390.636719 525.214844 390.238281 523.621094 389.921875 522.003906 C 389.601562 520.390625 389.359375 518.765625 389.199219 517.128906 C 389.039062 515.492188 388.960938 513.851562 388.960938 512.207031 C 388.960938 510.558594 389.039062 508.917969 389.199219 507.28125 C 389.359375 505.644531 389.601562 504.019531 389.921875 502.40625 C 390.238281 500.789062 390.636719 499.195312 391.113281 497.621094 C 391.589844 496.046875 392.140625 494.5 392.769531 492.976562 C 393.394531 491.457031 394.09375 489.96875 394.867188 488.515625 C 395.640625 487.0625 396.480469 485.652344 397.390625 484.28125 C 398.304688 482.914062 399.277344 481.589844 400.320312 480.316406 C 401.359375 479.039062 402.460938 477.820312 403.617188 476.652344 L 636.503906 244.007812 C 639.21875 241.308594 642.066406 238.753906 645.035156 236.339844 C 648.007812 233.925781 651.09375 231.667969 654.292969 229.5625 C 657.488281 227.453125 660.785156 225.511719 664.175781 223.734375 C 667.566406 221.957031 671.039062 220.355469 674.589844 218.921875 C 678.140625 217.492188 681.753906 216.242188 685.433594 215.171875 C 689.109375 214.101562 692.828125 213.214844 696.59375 212.515625 C 700.359375 211.816406 704.148438 211.308594 707.964844 210.988281 C 711.78125 210.667969 715.601562 210.535156 719.429688 210.597656 L 858.535156 218.117188 C 860.828125 209.097656 864.058594 200.421875 868.214844 192.09375 C 872.371094 183.765625 877.363281 175.972656 883.191406 168.710938 C 885.53125 165.757812 887.726562 162.699219 889.777344 159.535156 C 891.828125 156.371094 893.726562 153.121094 895.472656 149.777344 C 897.214844 146.4375 898.796875 143.019531 900.21875 139.527344 C 901.640625 136.035156 902.890625 132.484375 903.976562 128.875 C 905.0625 125.265625 905.976562 121.613281 906.71875 117.917969 C 907.457031 114.222656 908.023438 110.5 908.410156 106.75 C 908.800781 103 909.011719 99.242188 909.046875 95.472656 C 909.078125 91.703125 908.9375 87.941406 908.613281 84.183594 C 908.464844 82.597656 908.417969 81.007812 908.472656 79.414062 C 908.527344 77.820312 908.683594 76.238281 908.941406 74.664062 C 909.199219 73.089844 909.554688 71.539062 910.011719 70.011719 C 910.46875 68.484375 911.019531 66.992188 911.667969 65.535156 C 912.3125 64.078125 913.050781 62.667969 913.878906 61.304688 C 914.710938 59.945312 915.621094 58.640625 916.617188 57.394531 C 917.613281 56.148438 918.683594 54.972656 919.828125 53.863281 C 920.976562 52.757812 922.1875 51.726562 923.46875 50.773438 C 924.679688 49.855469 925.941406 49.015625 927.257812 48.253906 C 928.574219 47.488281 929.929688 46.8125 931.332031 46.21875 C 932.730469 45.625 934.164062 45.121094 935.625 44.707031 C 937.085938 44.289062 938.570312 43.964844 940.074219 43.734375 C 941.574219 43.503906 943.085938 43.363281 944.605469 43.320312 C 946.125 43.277344 947.644531 43.324219 949.15625 43.46875 C 950.671875 43.613281 952.167969 43.851562 953.652344 44.179688 C 955.136719 44.511719 956.597656 44.929688 958.027344 45.441406 C 972.214844 50.867188 995.066406 66.667969 988.78125 111.21875 Z M 865.007812 259.046875 C 867.199219 260 869.195312 255.714844 869.578125 255.335938 L 865.007812 252.671875 C 865.007812 253.242188 862.914062 258.191406 865.007812 259.046875 Z M 700.578125 378.703125 C 700.824219 380.035156 701.164062 381.347656 701.605469 382.628906 C 702.046875 383.914062 702.582031 385.15625 703.214844 386.359375 C 703.84375 387.558594 704.558594 388.707031 705.363281 389.800781 C 706.167969 390.894531 707.050781 391.921875 708.011719 392.878906 C 708.96875 393.839844 709.996094 394.722656 711.089844 395.527344 C 712.183594 396.328125 713.332031 397.046875 714.535156 397.675781 C 715.738281 398.304688 716.980469 398.84375 718.261719 399.285156 C 719.546875 399.726562 720.855469 400.066406 722.191406 400.308594 C 723.417969 400.351562 724.636719 400.257812 725.84375 400.03125 C 727.046875 399.800781 728.214844 399.445312 729.34375 398.960938 C 730.46875 398.476562 731.53125 397.871094 732.523438 397.152344 C 733.519531 396.433594 734.421875 395.613281 735.234375 394.691406 C 736.183594 393.894531 737.035156 393 737.789062 392.015625 C 738.539062 391.027344 739.175781 389.96875 739.695312 388.84375 C 740.210938 387.714844 740.601562 386.546875 740.859375 385.332031 C 741.121094 384.121094 741.246094 382.894531 741.234375 381.652344 C 740.9375 378.90625 740.144531 376.304688 738.863281 373.859375 C 737.582031 371.410156 735.898438 369.28125 733.808594 367.46875 C 732.914062 366.417969 731.925781 365.464844 730.847656 364.605469 C 729.765625 363.75 728.613281 363 727.390625 362.363281 C 726.167969 361.726562 724.894531 361.214844 723.570312 360.824219 C 722.246094 360.433594 720.898438 360.175781 719.527344 360.042969 C 718.308594 360.019531 717.101562 360.125 715.90625 360.359375 C 714.710938 360.597656 713.558594 360.957031 712.441406 361.441406 C 711.320312 361.925781 710.269531 362.523438 709.28125 363.234375 C 708.292969 363.945312 707.390625 364.753906 706.578125 365.660156 C 705.636719 366.464844 704.792969 367.363281 704.042969 368.351562 C 703.296875 369.339844 702.664062 370.398438 702.148438 371.523438 C 701.628906 372.648438 701.238281 373.816406 700.972656 375.027344 C 700.710938 376.238281 700.578125 377.460938 700.578125 378.703125 Z M 673.445312 343.003906 L 699.4375 429.914062 L 706.769531 422.582031 L 680.679688 335.769531 Z M 639.074219 384.128906 C 639.351562 386.878906 640.132812 389.484375 641.417969 391.933594 C 642.703125 394.386719 644.394531 396.511719 646.5 398.3125 C 648.316406 400.421875 650.460938 402.128906 652.925781 403.429688 C 655.390625 404.726562 658.011719 405.527344 660.78125 405.832031 C 662.003906 405.847656 663.210938 405.730469 664.40625 405.488281 C 665.601562 405.242188 666.761719 404.875 667.878906 404.382812 C 668.992188 403.890625 670.046875 403.285156 671.03125 402.566406 C 672.019531 401.847656 672.917969 401.03125 673.730469 400.121094 C 674.65625 399.3125 675.480469 398.410156 676.203125 397.417969 C 676.925781 396.425781 677.53125 395.363281 678.015625 394.234375 C 678.503906 393.105469 678.859375 391.9375 679.082031 390.730469 C 679.308594 389.523438 679.394531 388.304688 679.347656 387.078125 C 679.117188 385.742188 678.785156 384.433594 678.351562 383.148438 C 677.917969 381.863281 677.390625 380.617188 676.769531 379.414062 C 676.144531 378.207031 675.433594 377.058594 674.632812 375.964844 C 673.835938 374.867188 672.957031 373.839844 672 372.878906 C 671.042969 371.917969 670.019531 371.035156 668.925781 370.230469 C 667.835938 369.429688 666.6875 368.710938 665.484375 368.082031 C 664.285156 367.453125 663.042969 366.921875 661.757812 366.484375 C 660.476562 366.046875 659.164062 365.707031 657.832031 365.46875 C 656.597656 365.429688 655.371094 365.519531 654.160156 365.75 C 652.945312 365.976562 651.769531 366.332031 650.636719 366.816406 C 649.5 367.300781 648.429688 367.90625 647.429688 368.625 C 646.425781 369.34375 645.511719 370.164062 644.691406 371.085938 C 643.78125 371.90625 642.96875 372.816406 642.257812 373.8125 C 641.542969 374.808594 640.945312 375.867188 640.460938 376.992188 C 639.972656 378.121094 639.613281 379.285156 639.382812 380.484375 C 639.148438 381.6875 639.046875 382.902344 639.074219 384.128906 Z M 659.734375 587.644531 L 638.027344 562.988281 L 597.65625 603.347656 C 599 592.644531 599.464844 581.902344 599.050781 571.121094 C 598.632812 560.339844 597.34375 549.664062 595.183594 539.097656 C 593.402344 532.046875 590.738281 525.347656 587.1875 519.003906 C 583.632812 512.660156 579.316406 506.886719 574.234375 501.6875 C 572.117188 499.449219 569.832031 497.398438 567.382812 495.535156 C 564.929688 493.667969 562.347656 492.011719 559.628906 490.5625 C 556.910156 489.113281 554.089844 487.894531 551.175781 486.902344 C 548.257812 485.910156 545.28125 485.160156 542.246094 484.648438 C 540.792969 484.441406 539.332031 484.328125 537.867188 484.304688 C 536.398438 484.277344 534.9375 484.34375 533.476562 484.496094 C 532.019531 484.652344 530.574219 484.894531 529.144531 485.226562 C 527.71875 485.558594 526.3125 485.976562 524.9375 486.480469 C 523.558594 486.988281 522.21875 487.574219 520.914062 488.242188 C 519.609375 488.914062 518.347656 489.660156 517.136719 490.484375 C 515.921875 491.308594 514.761719 492.203125 513.660156 493.167969 C 512.554688 494.136719 511.515625 495.167969 510.539062 496.261719 C 493.019531 513.777344 495.65625 537.003906 518.441406 565.941406 L 541.863281 552.042969 C 536.429688 546.109375 531.988281 539.507812 528.535156 532.242188 C 528.246094 531.707031 528 531.148438 527.796875 530.574219 C 527.597656 529.996094 527.445312 529.410156 527.335938 528.808594 C 527.226562 528.207031 527.167969 527.601562 527.15625 526.992188 C 527.144531 526.382812 527.183594 525.777344 527.269531 525.171875 C 527.351562 524.566406 527.484375 523.972656 527.664062 523.390625 C 527.84375 522.808594 528.070312 522.242188 528.339844 521.695312 C 528.605469 521.148438 528.917969 520.625 529.269531 520.128906 C 529.621094 519.628906 530.011719 519.160156 530.4375 518.726562 C 536.34375 512.917969 544.148438 514.917969 553.957031 524.722656 C 557.726562 528.730469 560.917969 533.152344 563.53125 537.996094 C 566.148438 542.835938 568.097656 547.929688 569.378906 553.28125 C 574.117188 576.585938 576.59375 600.128906 576.804688 623.910156 L 599.941406 647.136719 Z M 714.003906 506.636719 C 709.257812 496.339844 703.507812 486.640625 696.757812 477.53125 C 690.003906 468.425781 682.390625 460.105469 673.921875 452.570312 C 666.789062 444.761719 658.945312 437.757812 650.382812 431.554688 C 641.820312 425.351562 632.71875 420.074219 623.078125 415.730469 C 621.421875 414.980469 619.714844 414.363281 617.960938 413.882812 C 616.207031 413.398438 614.425781 413.058594 612.617188 412.859375 C 610.808594 412.65625 608.996094 412.601562 607.179688 412.683594 C 605.363281 412.769531 603.5625 413 601.78125 413.367188 C 600 413.738281 598.257812 414.246094 596.558594 414.890625 C 594.855469 415.535156 593.214844 416.308594 591.636719 417.214844 C 590.058594 418.117188 588.558594 419.136719 587.144531 420.277344 C 585.726562 421.417969 584.40625 422.664062 583.183594 424.011719 C 581.871094 425.210938 580.652344 426.5 579.535156 427.882812 C 578.417969 429.265625 577.414062 430.726562 576.519531 432.265625 C 575.625 433.804688 574.851562 435.402344 574.203125 437.054688 C 573.554688 438.710938 573.035156 440.410156 572.644531 442.144531 C 572.257812 443.878906 572 445.632812 571.878906 447.410156 C 571.757812 449.183594 571.773438 450.957031 571.925781 452.730469 C 572.078125 454.5 572.363281 456.25 572.78125 457.980469 C 573.199219 459.707031 573.75 461.394531 574.425781 463.039062 C 579.628906 477.953125 592.992188 496.164062 614.507812 517.679688 C 621.601562 525.414062 629.40625 532.355469 637.921875 538.492188 C 646.4375 544.632812 655.484375 549.847656 665.066406 554.136719 C 666.726562 554.882812 668.433594 555.496094 670.191406 555.976562 C 671.945312 556.453125 673.730469 556.792969 675.539062 556.988281 C 677.347656 557.1875 679.160156 557.238281 680.980469 557.148438 C 682.796875 557.058594 684.597656 556.828125 686.378906 556.453125 C 688.160156 556.078125 689.902344 555.566406 691.601562 554.917969 C 693.304688 554.269531 694.941406 553.492188 696.519531 552.582031 C 698.097656 551.675781 699.59375 550.648438 701.007812 549.503906 C 702.425781 548.359375 703.742188 547.113281 704.960938 545.757812 C 706.28125 544.5625 707.507812 543.273438 708.636719 541.890625 C 709.761719 540.503906 710.777344 539.042969 711.683594 537.507812 C 712.585938 535.96875 713.371094 534.371094 714.03125 532.710938 C 714.691406 531.054688 715.222656 529.355469 715.625 527.617188 C 716.027344 525.878906 716.292969 524.121094 716.429688 522.339844 C 716.5625 520.5625 716.558594 518.78125 716.421875 517.003906 C 716.285156 515.222656 716.015625 513.464844 715.609375 511.726562 C 715.203125 509.988281 714.667969 508.292969 714.003906 506.636719 Z M 758.085938 440.003906 C 755.234375 436.667969 751.925781 433.867188 748.164062 431.601562 C 744.402344 429.339844 740.378906 427.730469 736.09375 426.773438 C 734.339844 426.539062 732.582031 426.519531 730.824219 426.714844 C 729.066406 426.914062 727.355469 427.316406 725.699219 427.929688 C 724.039062 428.546875 722.476562 429.351562 721.015625 430.34375 C 719.550781 431.339844 718.230469 432.496094 717.050781 433.816406 C 705.5625 445.367188 707.625 458.945312 723.238281 474.558594 C 726.132812 477.847656 729.457031 480.621094 733.210938 482.878906 C 736.964844 485.136719 740.972656 486.773438 745.234375 487.789062 C 746.988281 488.042969 748.746094 488.078125 750.511719 487.890625 C 752.273438 487.707031 753.988281 487.304688 755.652344 486.691406 C 757.3125 486.074219 758.875 485.265625 760.335938 484.257812 C 761.796875 483.25 763.109375 482.082031 764.273438 480.746094 C 775.890625 469.511719 773.828125 456.058594 758.085938 440.382812 Z M 798.742188 444.953125 L 780.652344 426.960938 L 794.457031 413.253906 L 786.648438 405.355469 L 772.84375 419.15625 L 760.941406 407.164062 L 778.746094 389.363281 L 770.941406 381.558594 L 742.375 410.113281 L 787.984375 455.804688 Z M 830.445312 413.253906 L 812.355469 395.453125 L 826.160156 381.652344 L 818.355469 373.847656 L 804.550781 387.839844 L 792.648438 375.847656 L 810.453125 358.046875 L 802.644531 350.238281 L 774.082031 378.796875 L 819.972656 424.011719 Z M 872.625 262.1875 C 869.863281 264.378906 866.625 268.472656 863.101562 267.328125 C 862.304688 267.042969 861.554688 266.65625 860.859375 266.171875 C 860.160156 265.683594 859.539062 265.113281 858.996094 264.460938 C 858.453125 263.808594 858.003906 263.09375 857.652344 262.320312 C 857.296875 261.550781 857.050781 260.742188 856.914062 259.90625 C 856.914062 258.953125 856.34375 254.382812 856.25 253.242188 C 855.023438 253.714844 853.945312 254.414062 853.011719 255.335938 C 852.480469 255.867188 852.007812 256.445312 851.589844 257.070312 C 851.175781 257.695312 850.824219 258.355469 850.535156 259.046875 C 850.25 259.742188 850.035156 260.457031 849.886719 261.191406 C 849.742188 261.929688 849.667969 262.671875 849.671875 263.421875 C 849.671875 264.175781 849.746094 264.917969 849.890625 265.652344 C 850.039062 266.390625 850.253906 267.105469 850.542969 267.796875 C 850.832031 268.492188 851.183594 269.148438 851.601562 269.773438 C 852.015625 270.398438 852.492188 270.976562 853.023438 271.507812 C 853.554688 272.039062 854.128906 272.511719 854.753906 272.929688 C 855.378906 273.347656 856.039062 273.699219 856.730469 273.984375 C 857.425781 274.273438 858.140625 274.492188 858.875 274.636719 C 859.613281 274.785156 860.355469 274.859375 861.105469 274.859375 C 861.859375 274.859375 862.601562 274.785156 863.339844 274.640625 C 864.074219 274.496094 864.789062 274.277344 865.484375 273.992188 C 866.179688 273.707031 866.835938 273.355469 867.460938 272.9375 C 868.085938 272.519531 868.664062 272.046875 869.195312 271.519531 C 870.414062 270.285156 871.324219 268.851562 871.921875 267.226562 C 872.519531 265.597656 872.753906 263.917969 872.625 262.1875 Z M 954.695312 54.292969 C 952.574219 53.558594 950.398438 53.089844 948.164062 52.890625 C 945.929688 52.691406 943.703125 52.765625 941.484375 53.113281 C 939.269531 53.464844 937.125 54.074219 935.0625 54.953125 C 932.996094 55.828125 931.066406 56.941406 929.273438 58.292969 C 928.320312 59.015625 927.410156 59.796875 926.554688 60.632812 C 925.695312 61.46875 924.894531 62.355469 924.148438 63.296875 C 923.402344 64.234375 922.71875 65.214844 922.097656 66.238281 C 921.472656 67.261719 920.917969 68.320312 920.429688 69.414062 C 919.941406 70.507812 919.519531 71.628906 919.171875 72.777344 C 918.824219 73.921875 918.550781 75.085938 918.347656 76.269531 C 918.148438 77.449219 918.019531 78.636719 917.96875 79.835938 C 917.917969 81.03125 917.941406 82.230469 918.039062 83.421875 C 918.359375 87.46875 918.492188 91.519531 918.4375 95.578125 C 918.382812 99.632812 918.140625 103.679688 917.710938 107.714844 C 917.28125 111.75 916.664062 115.753906 915.863281 119.734375 C 915.0625 123.710938 914.078125 127.644531 912.914062 131.53125 C 911.746094 135.417969 910.402344 139.242188 908.882812 143.003906 C 907.363281 146.765625 905.671875 150.449219 903.808594 154.054688 C 901.949219 157.660156 899.921875 161.171875 897.738281 164.589844 C 895.550781 168.007812 893.207031 171.316406 890.714844 174.519531 C 885.46875 181.058594 880.945312 188.0625 877.144531 195.535156 C 873.34375 203.007812 870.34375 210.789062 868.148438 218.878906 C 872.875 219.554688 877.402344 220.894531 881.730469 222.90625 C 886.058594 224.914062 890.007812 227.507812 893.570312 230.679688 C 926.988281 199.746094 972.976562 150.339844 979.261719 109.886719 C 983.355469 81.328125 974.878906 62.289062 954.695312 54.292969 Z M 954.695312 54.292969 " fill-opacity="1" fill-rule="nonzero"/></svg>