<svg xmlns="http://www.w3.org/2000/svg" xmlns:xlink="http://www.w3.org/1999/xlink" width="1920" zoomAndPan="magnify" viewBox="0 0 1440 809.999993" height="1080" preserveAspectRatio="xMidYMid meet" version="1.0"><defs><clipPath id="0b3d642872"><path d="M 375.023438 94 L 1065 94 L 1065 729 L 375.023438 729 Z M 375.023438 94 " clip-rule="nonzero"/></clipPath></defs><rect x="-144" width="1728" fill="#ffffff" y="-80.999999" height="971.999992" fill-opacity="1"/><rect x="-144" width="1728" fill="#feffff" y="-80.999999" height="971.999992" fill-opacity="1"/><g clip-path="url(#0b3d642872)"><path fill="#000000" d="M 656.6875 193.230469 L 783.238281 193.230469 C 789.503906 191.398438 795.6875 189.296875 801.8125 186.945312 C 807.242188 184.851562 809.941406 178.734375 807.839844 173.308594 C 805.765625 167.894531 799.644531 165.179688 794.210938 167.273438 C 770.386719 176.511719 745.210938 181.132812 719.96875 181.132812 C 694.738281 181.132812 669.539062 176.511719 645.738281 167.273438 C 640.289062 165.1875 634.199219 167.894531 632.109375 173.308594 C 630 178.734375 632.707031 184.851562 638.136719 186.945312 C 644.238281 189.304688 650.4375 191.398438 656.6875 193.230469 M 850.175781 410.753906 L 831.332031 410.753906 C 837.472656 415.304688 843.332031 420.25 848.886719 425.570312 C 849.117188 420.472656 849.53125 415.535156 850.175781 410.753906 Z M 879.835938 334.832031 L 559.984375 334.832031 C 561.851562 340.050781 563.84375 345.050781 565.851562 349.726562 L 873.988281 349.726562 C 875.988281 345.050781 877.996094 340.050781 879.835938 334.832031 Z M 889.597656 296.953125 L 550.242188 296.953125 C 550.902344 301.839844 551.890625 306.828125 553.070312 311.847656 L 886.753906 311.847656 C 887.949219 306.828125 888.921875 301.832031 889.597656 296.953125 Z M 549.914062 273.964844 L 889.925781 273.964844 C 889.445312 271.066406 888.730469 268.398438 887.699219 266.070312 C 885.421875 260.796875 881.261719 257.054688 874.558594 255.789062 C 867.777344 254.503906 858.605469 255.324219 846.496094 258.886719 C 845.992188 259.039062 845.492188 259.179688 844.957031 259.277344 C 824.484375 263.242188 803.710938 266.199219 782.730469 268.1875 C 761.867188 270.179688 740.917969 271.167969 719.925781 271.167969 C 698.945312 271.167969 677.972656 270.179688 657.148438 268.1875 C 636.152344 266.199219 615.378906 263.234375 594.875 259.277344 C 594.53125 259.195312 594.171875 259.117188 593.796875 259.023438 C 581.46875 255.351562 572.15625 254.496094 565.300781 255.789062 C 558.582031 257.054688 554.433594 260.796875 552.128906 266.070312 C 551.109375 268.398438 550.390625 271.066406 549.914062 273.964844 Z M 608.140625 411.058594 L 589.6875 411.058594 C 590.316406 415.742188 590.738281 420.585938 590.929688 425.601562 C 596.394531 420.394531 602.140625 415.535156 608.140625 411.058594 Z M 584.488281 388.0625 L 648.558594 388.0625 C 670.933594 378.800781 695.144531 373.84375 719.925781 373.84375 C 744.46875 373.84375 768.425781 378.6875 790.59375 387.753906 L 855.46875 387.753906 C 857.246094 382.457031 859.378906 377.445312 861.859375 372.730469 L 577.988281 372.730469 C 580.515625 377.542969 582.703125 382.648438 584.488281 388.0625 Z M 564.042969 504.847656 C 561.324219 502.433594 559.761719 498.753906 560.257812 494.835938 C 561.007812 488.78125 561.96875 482.195312 563.132812 475.121094 C 564.179688 468.773438 565.390625 462.21875 566.769531 455.441406 L 566.769531 455.359375 L 566.863281 454.628906 C 568.808594 437.207031 568.570312 421.828125 566.097656 408.445312 C 563.714844 395.621094 559.300781 384.613281 552.8125 375.429688 C 552.417969 374.882812 552.089844 374.300781 551.808594 373.703125 C 541.648438 353.988281 529.625 322.207031 526.890625 294.671875 C 525.523438 280.71875 526.515625 267.550781 531.140625 256.878906 C 536.421875 244.730469 545.914062 236.082031 561.070312 233.230469 C 571.230469 231.304688 583.949219 232.210938 599.648438 236.808594 C 619.558594 240.628906 639.457031 243.488281 659.285156 245.363281 C 679.492188 247.289062 699.71875 248.246094 719.925781 248.246094 C 740.128906 248.246094 760.375 247.289062 780.5625 245.363281 C 800.378906 243.488281 820.300781 240.628906 840.199219 236.808594 C 855.914062 232.210938 868.601562 231.304688 878.761719 233.230469 C 893.949219 236.082031 903.429688 244.730469 908.707031 256.878906 C 913.34375 267.550781 914.316406 280.710938 912.945312 294.671875 C 910.210938 322.382812 898.058594 354.371094 887.851562 374.070312 C 887.597656 374.546875 887.328125 375 887.03125 375.421875 C 880.488281 384.710938 876.003906 395.84375 873.683594 408.828125 C 871.246094 422.289062 871.046875 437.84375 873.101562 455.472656 C 874.480469 462.257812 875.675781 468.78125 876.726562 475.121094 C 877.890625 482.195312 878.847656 488.78125 879.613281 494.820312 C 880.097656 498.738281 878.546875 502.410156 875.8125 504.832031 L 950.445312 504.832031 C 950.429688 485.171875 948.652344 464.648438 945.117188 443.238281 C 942.023438 424.382812 945.777344 419.964844 954.429688 404.742188 C 988.371094 345.101562 997.667969 280.242188 987.683594 216.210938 L 452.28125 216.210938 C 442.28125 280.242188 451.578125 345.09375 485.535156 404.742188 C 494.1875 419.964844 497.957031 424.390625 494.84375 443.238281 C 491.3125 464.648438 489.550781 485.171875 489.519531 504.832031 L 564.042969 504.832031 Z M 583.046875 497.636719 C 582.703125 500.546875 581.269531 503.054688 579.230469 504.839844 L 648.457031 504.839844 C 665.070312 483.613281 690.914062 469.96875 719.964844 469.96875 C 749.011719 469.96875 774.871094 483.613281 791.484375 504.839844 L 860.597656 504.839844 C 858.558594 503.054688 857.15625 500.539062 856.796875 497.636719 C 855.992188 491.074219 855.070312 484.796875 854.082031 478.808594 C 853.171875 473.296875 852.183594 467.785156 851.085938 462.28125 C 850.664062 461.859375 850.28125 461.429688 849.90625 460.941406 C 834.429688 440.742188 814.660156 424.703125 792.394531 413.710938 C 770.1875 402.765625 745.449219 396.832031 719.917969 396.832031 C 694.058594 396.832031 669.046875 402.886719 646.671875 414.085938 C 624.207031 425.308594 604.355469 441.699219 588.878906 462.304688 L 588.699219 462.535156 C 587.636719 467.953125 586.664062 473.367188 585.75 478.792969 C 584.785156 484.796875 583.867188 491.058594 583.046875 497.636719 Z M 635.347656 527.851562 C 631.378906 538.0625 629.210938 549.15625 629.210938 560.777344 C 629.210938 560.777344 629.210938 611.730469 629.210938 713.664062 C 629.242188 719.066406 626.277344 724.035156 621.503906 726.578125 C 616.730469 729.085938 610.96875 728.757812 606.507812 725.710938 C 534.941406 676.007812 496.210938 610.066406 490.300781 527.851562 L 395.257812 527.851562 C 384.25 527.851562 375.222656 518.832031 375.222656 507.824219 L 375.222656 213.292969 C 375.222656 202.253906 384.25 193.238281 395.257812 193.238281 L 456.695312 193.238281 C 458.027344 187.398438 459.539062 181.5625 461.171875 175.746094 C 495.636719 84.355469 561.738281 69.78125 659.476562 131.980469 C 698.117188 146.953125 741.816406 146.953125 780.472656 131.980469 C 878.210938 69.78125 944.296875 84.355469 978.777344 175.738281 C 980.425781 181.554688 981.90625 187.398438 983.253906 193.230469 L 1044.773438 193.230469 C 1055.816406 193.230469 1064.824219 202.246094 1064.824219 213.285156 L 1064.824219 507.816406 C 1064.824219 518.832031 1055.816406 527.847656 1044.773438 527.847656 L 949.625 527.847656 C 943.722656 610.058594 905 675.992188 833.433594 725.703125 C 828.972656 728.75 823.195312 729.078125 818.4375 726.570312 C 813.664062 724.027344 810.699219 719.066406 810.730469 713.65625 C 810.730469 611.722656 810.730469 560.769531 810.730469 560.769531 C 810.730469 549.148438 808.5625 538.054688 804.59375 527.847656 L 635.347656 527.847656 Z M 635.347656 527.851562 " fill-opacity="1" fill-rule="evenodd"/></g></svg>