<svg xmlns="http://www.w3.org/2000/svg" xmlns:xlink="http://www.w3.org/1999/xlink" width="1920" zoomAndPan="magnify" viewBox="0 0 1440 809.999993" height="1080" preserveAspectRatio="xMidYMid meet" version="1.0"><defs><clipPath id="318d9f99f3"><path d="M 375.023438 94 L 1065 94 L 1065 728 L 375.023438 728 Z M 375.023438 94 " clip-rule="nonzero"/></clipPath></defs><rect x="-144" width="1728" fill="#ffffff" y="-80.999999" height="971.999992" fill-opacity="1"/><rect x="-144" width="1728" fill="#feffff" y="-80.999999" height="971.999992" fill-opacity="1"/><g clip-path="url(#318d9f99f3)"><path fill="#5bd3c7" d="M 656.664062 193.164062 L 783.203125 193.164062 C 789.46875 191.332031 795.652344 189.234375 801.773438 186.882812 C 807.207031 184.789062 809.902344 178.675781 807.804688 173.253906 C 805.726562 167.84375 799.605469 165.132812 794.175781 167.222656 C 770.355469 176.453125 745.179688 181.074219 719.941406 181.074219 C 694.710938 181.074219 669.511719 176.453125 645.714844 167.222656 C 640.269531 165.136719 634.175781 167.84375 632.085938 173.253906 C 629.980469 178.675781 632.683594 184.789062 638.117188 186.882812 C 644.214844 189.242188 650.414062 191.332031 656.664062 193.164062 M 850.136719 410.570312 L 831.296875 410.570312 C 837.433594 415.121094 843.292969 420.0625 848.847656 425.378906 C 849.078125 420.285156 849.492188 415.351562 850.136719 410.570312 Z M 879.792969 334.691406 L 559.96875 334.691406 C 561.835938 339.90625 563.828125 344.902344 565.835938 349.578125 L 873.949219 349.578125 C 875.945312 344.902344 877.953125 339.90625 879.792969 334.691406 Z M 889.554688 296.835938 L 550.230469 296.835938 C 550.886719 301.714844 551.875 306.703125 553.054688 311.71875 L 886.710938 311.71875 C 887.90625 306.703125 888.878906 301.707031 889.554688 296.835938 Z M 549.898438 273.855469 L 889.882812 273.855469 C 889.402344 270.960938 888.6875 268.292969 887.652344 265.964844 C 885.378906 260.695312 881.21875 256.957031 874.515625 255.691406 C 867.734375 254.402344 858.5625 255.222656 846.457031 258.785156 C 845.953125 258.941406 845.453125 259.078125 844.917969 259.175781 C 824.445312 263.136719 803.675781 266.09375 782.699219 268.078125 C 761.835938 270.070312 740.886719 271.058594 719.894531 271.058594 C 698.917969 271.058594 677.949219 270.070312 657.125 268.078125 C 636.132812 266.09375 615.359375 263.128906 594.859375 259.175781 C 594.511719 259.09375 594.152344 259.015625 593.777344 258.925781 C 581.449219 255.253906 572.140625 254.394531 565.285156 255.691406 C 558.566406 256.957031 554.417969 260.695312 552.113281 265.964844 C 551.09375 268.292969 550.375 270.960938 549.898438 273.855469 Z M 608.121094 410.878906 L 589.671875 410.878906 C 590.300781 415.558594 590.71875 420.402344 590.910156 425.410156 C 596.375 420.207031 602.121094 415.351562 608.121094 410.878906 Z M 584.46875 387.890625 L 648.535156 387.890625 C 670.90625 378.636719 695.117188 373.679688 719.894531 373.679688 C 744.433594 373.679688 768.394531 378.523438 790.558594 387.585938 L 855.429688 387.585938 C 857.207031 382.292969 859.335938 377.28125 861.820312 372.570312 L 577.972656 372.570312 C 580.5 377.378906 582.683594 382.484375 584.46875 387.890625 Z M 564.027344 504.617188 C 561.308594 502.203125 559.746094 498.527344 560.242188 494.609375 C 560.992188 488.558594 561.953125 481.976562 563.117188 474.90625 C 564.164062 468.5625 565.375 462.011719 566.753906 455.238281 L 566.753906 455.152344 L 566.847656 454.425781 C 568.792969 437.011719 568.554688 421.640625 566.082031 408.265625 C 563.699219 395.445312 559.285156 384.445312 552.796875 375.265625 C 552.40625 374.722656 552.074219 374.140625 551.792969 373.542969 C 541.632812 353.835938 529.613281 322.070312 526.875 294.550781 C 525.511719 280.605469 526.5 267.445312 531.128906 256.777344 C 536.40625 244.636719 545.898438 235.992188 561.054688 233.144531 C 571.214844 231.21875 583.933594 232.125 599.632812 236.722656 C 619.535156 240.535156 639.433594 243.394531 659.261719 245.269531 C 679.464844 247.195312 699.691406 248.152344 719.894531 248.152344 C 740.097656 248.152344 760.339844 247.195312 780.527344 245.269531 C 800.34375 243.394531 820.261719 240.535156 840.160156 236.722656 C 855.875 232.125 868.5625 231.21875 878.71875 233.144531 C 893.90625 235.992188 903.382812 244.636719 908.660156 256.777344 C 913.296875 267.445312 914.269531 280.597656 912.898438 294.550781 C 910.164062 322.246094 898.011719 354.21875 887.808594 373.910156 C 887.554688 374.386719 887.285156 374.835938 886.988281 375.257812 C 880.445312 384.542969 875.960938 395.667969 873.640625 408.648438 C 871.203125 422.101562 871.003906 437.648438 873.058594 455.269531 C 874.4375 462.050781 875.632812 468.570312 876.683594 474.90625 C 877.847656 481.976562 878.804688 488.558594 879.570312 494.59375 C 880.054688 498.511719 878.507812 502.179688 875.769531 504.601562 L 950.394531 504.601562 C 950.378906 484.949219 948.601562 464.4375 945.070312 443.039062 C 941.976562 424.191406 945.730469 419.78125 954.378906 404.5625 C 988.320312 344.957031 997.613281 280.132812 987.628906 216.132812 L 452.273438 216.132812 C 442.277344 280.132812 451.570312 344.949219 485.527344 404.5625 C 494.175781 419.78125 497.945312 424.199219 494.835938 443.039062 C 491.304688 464.4375 489.542969 484.949219 489.511719 504.601562 L 564.027344 504.601562 Z M 583.027344 497.40625 C 582.683594 500.320312 581.25 502.824219 579.210938 504.609375 L 648.433594 504.609375 C 665.046875 483.394531 690.886719 469.757812 719.933594 469.757812 C 748.980469 469.757812 774.835938 483.394531 791.445312 504.609375 L 860.554688 504.609375 C 858.515625 502.824219 857.113281 500.3125 856.753906 497.40625 C 855.949219 490.847656 855.03125 484.574219 854.042969 478.589844 C 853.128906 473.082031 852.140625 467.574219 851.046875 462.070312 C 850.625 461.652344 850.242188 461.222656 849.867188 460.730469 C 834.390625 440.542969 814.625 424.515625 792.359375 413.527344 C 770.15625 402.585938 745.417969 396.65625 719.886719 396.65625 C 694.03125 396.65625 669.023438 402.710938 646.648438 413.902344 C 624.1875 425.121094 604.335938 441.5 588.859375 462.09375 L 588.683594 462.324219 C 587.617188 467.742188 586.644531 473.152344 585.734375 478.574219 C 584.765625 484.574219 583.847656 490.832031 583.027344 497.40625 Z M 635.328125 527.609375 C 631.359375 537.816406 629.191406 548.902344 629.191406 560.515625 C 629.191406 560.515625 629.191406 611.441406 629.191406 713.320312 C 629.21875 718.71875 626.253906 723.683594 621.480469 726.230469 C 616.707031 728.734375 610.945312 728.40625 606.488281 725.363281 C 534.929688 675.683594 496.199219 609.78125 490.292969 527.609375 L 395.257812 527.609375 C 384.246094 527.609375 375.222656 518.589844 375.222656 507.589844 L 375.222656 213.214844 C 375.222656 202.183594 384.246094 193.171875 395.257812 193.171875 L 456.6875 193.171875 C 458.019531 187.335938 459.53125 181.503906 461.164062 175.6875 C 495.625 84.347656 561.722656 69.78125 659.453125 131.949219 C 698.089844 146.910156 741.785156 146.910156 780.4375 131.949219 C 878.167969 69.78125 944.25 84.347656 978.726562 175.679688 C 980.375 181.496094 981.851562 187.335938 983.203125 193.164062 L 1044.71875 193.164062 C 1055.757812 193.164062 1064.765625 202.175781 1064.765625 213.207031 L 1064.765625 507.582031 C 1064.765625 518.589844 1055.757812 527.601562 1044.71875 527.601562 L 949.574219 527.601562 C 943.675781 609.773438 904.953125 675.667969 833.394531 725.355469 C 828.933594 728.398438 823.160156 728.726562 818.402344 726.222656 C 813.628906 723.675781 810.664062 718.71875 810.691406 713.3125 C 810.691406 611.433594 810.691406 560.507812 810.691406 560.507812 C 810.691406 548.894531 808.523438 537.808594 804.554688 527.601562 L 635.328125 527.601562 Z M 635.328125 527.609375 " fill-opacity="1" fill-rule="evenodd"/></g></svg>