<svg xmlns="http://www.w3.org/2000/svg" xmlns:xlink="http://www.w3.org/1999/xlink" width="1920" zoomAndPan="magnify" viewBox="0 0 1440 809.999993" height="1080" preserveAspectRatio="xMidYMid meet" version="1.0"><defs><clipPath id="4734f83828"><path d="M 484 175 L 1009 175 L 1009 757.929688 L 484 757.929688 Z M 484 175 " clip-rule="nonzero"/></clipPath><clipPath id="3243448ee7"><path d="M 924 575 L 1104 575 L 1104 757.929688 L 924 757.929688 Z M 924 575 " clip-rule="nonzero"/></clipPath></defs><rect x="-144" width="1728" fill="#ffffff" y="-80.999999" height="971.999992" fill-opacity="1"/><rect x="-144" width="1728" fill="#feffff" y="-80.999999" height="971.999992" fill-opacity="1"/><g clip-path="url(#4734f83828)"><path fill="#5bd3c7" d="M 1007.898438 348.832031 C 1006.90625 343.335938 1003.941406 338.5 999.433594 335.203125 C 990.75 328.9375 978.988281 330.367188 971.847656 338.167969 C 969.757812 336.410156 967.667969 334.761719 966.019531 332.785156 C 961.625 327.617188 961.183594 320.253906 958.546875 313.988281 C 954.039062 302.996094 941.949219 295.632812 930.078125 296.621094 C 918.207031 297.613281 907.4375 306.953125 904.910156 318.605469 C 900.953125 315.527344 894.25 317.285156 890.839844 320.914062 C 887.433594 324.539062 886.445312 329.816406 886.554688 334.761719 C 886.554688 336.628906 886.773438 338.5 886.992188 340.367188 C 882.925781 345.863281 879.628906 351.359375 878.089844 356.523438 C 876.550781 361.582031 876.773438 366.195312 878.421875 370.042969 C 876.441406 371.472656 874.574219 372.902344 872.925781 374.660156 C 870.945312 376.859375 869.628906 379.605469 868.527344 382.464844 C 855.230469 385.542969 839.074219 390.816406 830.28125 399.28125 C 828.300781 401.148438 824.675781 404.996094 820.277344 409.832031 C 808.40625 422.582031 788.84375 443.574219 777.851562 450.5 L 764.550781 446.761719 C 763.011719 441.265625 760.375 435.660156 755.871094 434.453125 C 753.453125 433.792969 751.253906 434.34375 749.605469 435.882812 C 748.613281 436.871094 748.066406 437.96875 747.734375 439.179688 C 743.121094 437.75 737.402344 437.308594 733.777344 440.058594 C 730.480469 442.585938 729.160156 446.324219 730.039062 450.390625 C 731.03125 455.445312 735.207031 460.390625 740.261719 464.019531 L 732.898438 461.160156 C 727.953125 459.183594 722.347656 461.710938 720.367188 466.65625 C 718.5 471.601562 720.917969 477.097656 725.863281 479.078125 L 727.953125 479.84375 L 722.238281 511.171875 L 712.675781 507.761719 C 712.34375 507.652344 712.125 507.652344 711.792969 507.542969 L 715.75 485.5625 C 709.375 479.957031 706.957031 471.050781 710.035156 462.808594 C 710.476562 461.601562 711.027344 460.5 711.683594 459.511719 C 707.949219 459.183594 704.320312 458.851562 701.132812 458.632812 C 698.164062 442.035156 695.636719 427.746094 695.527344 412.578125 C 695.527344 407.632812 695.746094 402.90625 695.96875 398.070312 C 712.453125 397.082031 740.261719 385.210938 762.574219 374.332031 C 763.125 374.441406 763.5625 374.660156 764.113281 374.660156 C 764.550781 374.660156 764.992188 374.550781 765.433594 374.441406 C 765.980469 374.21875 770.707031 372.460938 773.566406 368.175781 C 774.445312 367.625 778.070312 367.296875 780.488281 367.078125 C 786.09375 366.636719 792.140625 365.976562 795.4375 362.351562 C 797.964844 367.1875 800.382812 372.023438 803.351562 377.296875 C 805.550781 380.59375 808.628906 383.34375 812.035156 385.101562 C 815.660156 387.082031 819.398438 387.519531 822.804688 388.398438 C 823.792969 388.617188 824.785156 388.070312 825.113281 387.082031 C 825.445312 385.980469 824.894531 384.882812 823.792969 384.660156 L 823.683594 384.550781 C 820.277344 383.5625 816.871094 382.902344 814.234375 381.253906 C 811.484375 379.605469 809.175781 377.296875 807.527344 374.660156 C 804.558594 368.835938 801.59375 361.910156 798.625 355.535156 L 798.40625 355.644531 C 798.953125 351.910156 798.625 339.378906 798.734375 337.621094 C 799.722656 339.597656 800.714844 341.46875 801.921875 343.554688 C 804.121094 346.851562 807.199219 349.601562 810.605469 351.359375 C 814.234375 353.335938 817.96875 353.777344 821.265625 354.65625 C 822.367188 354.875 823.355469 354.328125 823.683594 353.335938 C 824.015625 352.238281 823.464844 351.140625 822.367188 350.917969 L 822.257812 350.808594 C 818.847656 349.820312 815.441406 349.160156 812.804688 347.511719 C 810.054688 345.863281 807.746094 343.554688 806.097656 340.917969 C 803.789062 336.519531 801.59375 331.464844 799.394531 326.519531 C 801.59375 325.089844 803.351562 323.660156 804.671875 322.34375 C 811.15625 317.945312 806.429688 312.558594 805.878906 311.902344 L 793.570312 298.820312 C 792.25 297.28125 789.28125 295.085938 785.984375 297.171875 L 779.5 282.882812 C 779.5 282.882812 779.5 282.773438 779.390625 282.773438 C 778.402344 280.796875 775.984375 280.027344 774.003906 281.015625 C 772.027344 282.003906 771.257812 284.421875 772.246094 286.402344 L 773.894531 289.480469 C 773.566406 289.699219 773.125 289.808594 772.796875 290.027344 C 768.621094 293.765625 768.179688 304.535156 768.179688 310.472656 L 747.847656 333.113281 L 737.183594 324.539062 C 737.625 323.332031 737.625 321.902344 736.855469 320.804688 C 727.292969 306.296875 716.082031 295.632812 706.847656 288.378906 C 716.632812 273.210938 717.402344 254.417969 710.695312 232.875 C 710.804688 232.214844 710.804688 231.886719 710.804688 231.554688 C 730.699219 224.960938 720.039062 184.953125 699.816406 190.996094 C 681.789062 154.175781 631.777344 187.261719 633.867188 226.71875 C 620.898438 245.402344 616.0625 261.121094 618.808594 273.652344 C 609.578125 278.597656 603.3125 286.949219 600.675781 293.324219 C 588.472656 324.320312 585.617188 415.328125 585.507812 418.515625 C 584.1875 425.878906 583.089844 433.132812 582.097656 440.277344 C 578.03125 452.699219 573.636719 468.523438 572.316406 482.152344 C 571.328125 491.605469 571 502.597656 571 515.015625 C 564.402344 518.644531 560.335938 520.84375 560.335938 520.84375 C 560.667969 521.832031 560.996094 522.601562 561.324219 523.480469 C 558.359375 523.371094 554.949219 522.601562 552.203125 520.511719 C 546.707031 516.226562 530.222656 492.15625 525.496094 494.132812 C 522.527344 495.34375 523.296875 503.257812 525.933594 513.039062 C 524.617188 512.269531 523.40625 511.828125 522.636719 512.269531 C 515.601562 515.898438 534.945312 559.421875 547.695312 570.523438 L 498.566406 591.078125 C 492.851562 593.496094 488.34375 598 486.035156 603.824219 C 483.617188 609.652344 483.726562 615.917969 486.144531 621.632812 C 489.773438 630.425781 498.238281 636.03125 507.578125 636.03125 C 510.328125 636.03125 512.855469 635.480469 515.273438 634.601562 C 518.898438 638.339844 523.957031 640.535156 529.121094 640.535156 C 531.539062 640.535156 534.066406 640.097656 536.597656 638.996094 L 571.65625 624.269531 C 571.765625 655.265625 572.535156 671.53125 572.757812 720.992188 L 620.789062 720.992188 L 623.976562 623.171875 C 626.941406 626.246094 630.351562 628.886719 633.976562 631.085938 L 637.386719 710.109375 L 680.578125 710.109375 L 681.789062 637.898438 L 686.953125 637.898438 L 759.714844 719.011719 L 632.328125 719.011719 C 621.667969 719.011719 613.09375 727.585938 613.09375 738.246094 L 613.09375 745.503906 C 601.664062 742.972656 587.265625 737.699219 581.441406 735.171875 C 581.21875 742.972656 580.78125 746.820312 583.199219 753.085938 C 584.296875 755.832031 598.695312 757.921875 613.09375 757.8125 L 872.59375 757.8125 L 872.59375 738.246094 C 872.59375 727.585938 864.023438 719.011719 853.359375 719.011719 L 839.730469 719.011719 L 810.386719 637.898438 L 842.148438 637.898438 C 862.8125 637.898438 881.058594 624.820312 887.761719 605.253906 L 926.234375 491.496094 L 954.699219 461.820312 C 959.207031 456.984375 960.855469 450.609375 959.535156 444.5625 C 962.613281 440.496094 964.371094 435.550781 964.261719 430.277344 C 964.152344 425.660156 962.722656 421.261719 960.085938 417.414062 L 965.582031 408.292969 C 970.855469 407.304688 975.582031 404.335938 978.769531 399.941406 L 1004.160156 364.4375 C 1007.457031 359.933594 1008.777344 354.328125 1007.898438 348.832031 Z M 947.996094 403.347656 C 948.542969 403.898438 948.984375 404.335938 949.535156 404.777344 C 949.863281 404.996094 950.191406 405.105469 950.523438 405.214844 L 948.433594 408.734375 C 946.457031 408.074219 944.476562 407.742188 942.5 407.632812 C 944.039062 405.984375 945.90625 404.554688 947.996094 403.347656 Z M 886.003906 358.941406 C 890.179688 345.09375 908.316406 328.167969 918.757812 322.34375 C 918.207031 333.113281 923.59375 340.367188 927.992188 346.414062 C 933.046875 353.117188 935.683594 357.183594 933.816406 364 C 933.488281 365.097656 933.707031 366.308594 934.367188 367.296875 C 935.023438 368.285156 936.015625 368.945312 937.222656 369.164062 C 938.324219 369.273438 939.640625 369.714844 940.628906 370.042969 C 939.75 370.921875 938.433594 371.472656 937.003906 371.582031 C 936.015625 371.691406 934.144531 371.691406 932.828125 370.042969 C 931.507812 368.613281 929.308594 368.175781 927.550781 369.273438 C 927.332031 369.382812 904.691406 382.902344 888.203125 370.152344 C 886.335938 368.613281 883.917969 365.757812 886.003906 358.941406 Z M 914.691406 382.792969 C 911.613281 386.421875 908.867188 390.269531 906.667969 394.554688 C 899.085938 393.34375 892.488281 389.609375 890.730469 386.53125 C 890.621094 386.53125 890.621094 386.421875 890.621094 386.421875 C 892.597656 385.542969 894.578125 384.332031 896.667969 382.902344 C 899.523438 383.5625 902.273438 383.894531 905.019531 383.894531 C 908.425781 383.894531 911.722656 383.453125 914.691406 382.792969 Z M 764.003906 455.226562 L 822.035156 471.273438 C 823.246094 471.601562 824.675781 471.273438 825.664062 470.503906 C 831.816406 465.445312 837.863281 459.839844 843.796875 454.347656 C 856.21875 442.914062 869.078125 431.042969 878.640625 428.738281 C 880.949219 428.1875 882.269531 425.988281 881.71875 423.789062 C 881.167969 421.59375 878.96875 420.164062 876.773438 420.714844 C 865.121094 423.460938 852.042969 435.550781 838.191406 448.300781 C 832.917969 453.136719 827.53125 458.191406 822.144531 462.699219 L 787.964844 453.246094 C 799.835938 443.90625 815.332031 427.308594 826.324219 415.4375 C 830.609375 410.820312 834.015625 407.085938 835.996094 405.214844 C 844.898438 396.640625 865.230469 390.816406 882.707031 388.070312 C 882.925781 388.949219 883.039062 389.828125 883.585938 390.707031 C 887.214844 396.972656 897.65625 402.136719 908.535156 403.128906 C 908.648438 403.898438 908.867188 404.667969 908.976562 405.433594 C 910.40625 416.867188 908.867188 424.890625 903.371094 434.890625 C 902.820312 435.992188 856.878906 484.570312 856.878906 484.570312 C 839.84375 496.441406 831.929688 500.289062 828.410156 501.5 C 827.3125 499.300781 825.554688 497.429688 823.136719 496.550781 L 778.292969 478.964844 C 769.386719 473.25 761.914062 467.867188 757.957031 465.007812 Z M 834.566406 507.875 L 804.011719 539.746094 L 800.933594 538.648438 L 813.683594 513.480469 L 816.210938 514.46875 C 817.308594 514.90625 818.519531 515.128906 819.617188 515.128906 C 823.027344 515.128906 826.324219 513.148438 827.972656 510.070312 C 829.839844 509.742188 832.039062 508.972656 834.566406 507.875 Z M 792.25 513.367188 L 782.578125 532.273438 L 740.589844 517.546875 L 744.546875 494.683594 Z M 738.0625 448.742188 C 737.84375 447.640625 738.171875 447.09375 738.832031 446.652344 C 740.261719 445.554688 747.1875 447.203125 748.945312 448.742188 C 750.265625 449.949219 752.242188 450.167969 753.78125 449.179688 C 754.878906 448.628906 755.539062 447.53125 755.757812 446.324219 C 756.199219 447.53125 756.640625 448.960938 757.078125 450.71875 L 750.921875 460.609375 C 744.4375 457.863281 738.832031 452.476562 738.0625 448.742188 Z M 739.164062 525.789062 L 778.839844 539.636719 L 764.992188 566.785156 L 733.886719 555.90625 Z M 692.339844 389.9375 C 692.339844 389.9375 682.339844 387.410156 667.390625 377.957031 C 673.324219 372.132812 677.941406 365.648438 681.460938 358.613281 L 695.636719 369.933594 C 696.296875 370.59375 698.824219 370.8125 699.046875 370.8125 L 753.671875 358.171875 C 753.78125 362.128906 754.769531 365.316406 756.308594 368.066406 C 725.644531 382.902344 702.5625 390.707031 692.339844 389.9375 Z M 699.484375 362.238281 C 699.8125 359.273438 700.144531 356.414062 700.472656 353.445312 L 709.925781 359.820312 Z M 789.613281 335.53125 C 790.820312 336.628906 791.152344 353.996094 789.503906 356.964844 C 788.511719 358.171875 782.578125 358.613281 779.832031 358.941406 C 774.226562 359.382812 769.5 359.820312 767.191406 363.121094 C 766.3125 364.328125 765.320312 365.097656 764.441406 365.757812 C 763.011719 364.21875 761.363281 361.140625 762.023438 354.65625 L 766.859375 352.898438 C 767.519531 352.679688 767.960938 352.347656 768.398438 351.910156 C 777.300781 343.335938 787.632812 335.75 789.613281 335.53125 Z M 776.53125 311.902344 C 776.3125 306.84375 776.753906 301.347656 777.523438 298.273438 C 777.960938 300.03125 778.070312 302.886719 777.742188 305.527344 C 777.523438 306.734375 778.070312 307.832031 778.839844 308.714844 C 778.402344 312.339844 779.0625 315.859375 781.257812 318.824219 C 782.6875 320.804688 784.554688 322.230469 786.644531 323.222656 C 783.347656 323.441406 781.039062 325.859375 781.039062 325.859375 C 776.863281 323.441406 774.113281 321.023438 772.464844 317.945312 C 772.464844 317.945312 776.53125 313 776.53125 311.902344 Z M 745.539062 341.90625 C 746.308594 342.566406 747.296875 342.785156 748.175781 342.785156 C 749.273438 342.785156 750.375 342.347656 751.144531 341.578125 L 767.191406 324.648438 C 769.609375 327.949219 773.015625 330.695312 777.742188 333.332031 C 773.457031 336.191406 765.542969 340.367188 759.605469 347.953125 L 725.425781 356.195312 C 723.664062 354.984375 722.015625 353.777344 720.367188 352.457031 L 733.007812 331.683594 Z M 647.714844 230.015625 C 648.15625 229.355469 648.707031 228.917969 649.035156 228.917969 C 650.132812 229.027344 652.222656 231.335938 653.320312 233.203125 C 654.089844 234.742188 655.851562 235.511719 657.5 235.292969 C 659.257812 235.074219 660.574219 233.753906 660.90625 231.996094 L 662.226562 225.621094 C 674.09375 223.863281 682.558594 217.15625 687.503906 211.769531 C 690.800781 221.773438 695.636719 228.585938 702.34375 232.542969 C 701.132812 239.359375 697.285156 256.945312 687.285156 264.089844 C 683.4375 266.835938 679.042969 267.714844 673.984375 266.617188 C 661.125 263.980469 657.828125 245.183594 657.828125 244.964844 C 657.5 243.207031 656.070312 241.777344 654.199219 241.558594 C 650.464844 241.117188 647.496094 239.140625 646.398438 236.390625 C 645.519531 234.191406 645.957031 231.996094 647.714844 230.015625 Z M 672.554688 276.179688 C 670.25 276.617188 666.511719 276.617188 661.566406 275.738281 C 654.96875 274.53125 650.902344 272.550781 649.585938 271.78125 C 651.671875 269.035156 654.53125 265.078125 655.960938 262.550781 C 659.257812 267.714844 664.203125 272.550781 671.347656 274.421875 C 671.785156 274.96875 672.117188 275.628906 672.554688 276.179688 Z M 593.640625 419.394531 C 593.75 418.515625 596.71875 326.078125 608.367188 296.402344 C 610.125 291.898438 615.730469 283.214844 625.183594 279.476562 C 628.589844 278.046875 636.945312 276.398438 642.441406 275.410156 C 644.859375 279.035156 650.464844 282.003906 658.925781 283.652344 C 662.226562 284.3125 665.742188 284.753906 668.929688 284.753906 C 673.4375 284.753906 677.390625 283.761719 679.921875 281.785156 C 680.359375 281.894531 680.691406 282.003906 681.019531 282.222656 C 682.558594 282.882812 684.097656 283.542969 685.417969 283.984375 C 685.636719 284.203125 710.367188 296.84375 728.5 323.222656 L 711.574219 351.027344 L 701.464844 344.105469 C 702.34375 334.980469 703 325.75 703 316.40625 C 703 314.097656 701.132812 312.230469 698.933594 312.230469 C 696.296875 312.558594 694.757812 314.097656 694.757812 316.40625 C 694.757812 326.078125 693.988281 335.640625 693 345.203125 C 693 345.3125 693 345.3125 693 345.421875 C 692.671875 349.050781 692.230469 352.679688 691.789062 356.414062 L 684.757812 350.699219 C 685.195312 349.378906 684.867188 347.839844 683.878906 346.742188 L 652.992188 314.757812 C 651.34375 313.109375 648.816406 313.109375 647.167969 314.648438 C 645.519531 316.1875 645.40625 318.824219 647.058594 320.472656 L 676.074219 350.589844 C 672.335938 359.820312 666.621094 367.957031 658.597656 375.210938 C 658.488281 375.210938 658.378906 375.320312 658.269531 375.429688 C 649.476562 368.835938 621.558594 347.183594 614.742188 336.519531 C 613.535156 334.542969 611.003906 333.992188 609.027344 335.203125 C 607.160156 336.410156 606.609375 339.046875 607.816406 340.917969 C 616.722656 354.875 654.421875 382.902344 656.070312 384.003906 C 656.730469 384.550781 657.609375 384.882812 658.488281 384.882812 C 659.367188 384.882812 660.355469 384.550781 661.125 383.894531 L 661.234375 383.78125 C 672.667969 391.148438 681.460938 395.652344 687.722656 397.300781 C 687.503906 402.359375 687.285156 407.414062 687.285156 412.691406 C 687.394531 427.859375 689.921875 442.585938 692.671875 458.082031 C 689.261719 457.972656 686.734375 457.972656 685.527344 458.304688 C 672.777344 461.378906 619.910156 488.96875 587.046875 506.445312 C 585.726562 474.570312 588.582031 448.082031 593.640625 419.394531 Z M 513.402344 626.578125 C 506.039062 629.765625 496.808594 626.027344 493.730469 618.445312 C 492.082031 614.816406 492.082031 610.640625 493.621094 606.902344 C 495.160156 603.167969 498.015625 600.308594 501.753906 598.769531 L 699.046875 515.898438 C 701.023438 515.128906 703 514.6875 704.980469 514.6875 C 706.628906 514.6875 708.277344 515.015625 709.925781 515.566406 L 720.808594 519.304688 L 715.3125 549.417969 L 706.957031 546.453125 C 705.96875 546.121094 704.980469 546.230469 703.992188 546.5625 Z M 869.519531 599.101562 C 865.5625 610.859375 854.570312 618.664062 842.148438 618.664062 L 658.597656 618.664062 C 649.144531 618.664062 640.351562 614.15625 634.964844 606.464844 L 630.242188 599.757812 L 705.53125 568.105469 L 804.011719 602.507812 C 811.15625 605.035156 818.957031 603.167969 824.234375 597.78125 L 894.90625 524.140625 Z M 951.730469 441.265625 L 821.265625 577.226562 C 817.199219 581.402344 810.933594 582.832031 805.441406 580.964844 L 783.347656 573.269531 L 797.195312 546.121094 L 803.789062 548.429688 C 805.21875 548.980469 806.976562 548.539062 808.078125 547.332031 L 929.96875 420.273438 C 935.792969 414.339844 945.355469 414.117188 951.402344 419.832031 C 954.261719 422.691406 955.910156 426.429688 956.019531 430.496094 C 956.019531 434.5625 954.589844 438.300781 951.730469 441.265625 Z M 997.457031 359.601562 L 972.066406 395.105469 C 970.085938 397.851562 967.121094 399.71875 963.820312 400.269531 C 960.414062 400.820312 957.117188 400.050781 954.371094 398.070312 C 951.621094 396.09375 949.753906 393.234375 949.203125 389.828125 C 948.65625 386.53125 949.421875 383.125 951.402344 380.375 L 976.902344 344.765625 C 979.429688 341.355469 983.277344 339.488281 987.234375 339.488281 C 989.761719 339.488281 992.398438 340.257812 994.597656 341.90625 C 997.34375 343.886719 999.214844 346.851562 999.761719 350.148438 C 1000.3125 353.445312 999.433594 356.855469 997.457031 359.601562 Z M 997.457031 359.601562 " fill-opacity="1" fill-rule="nonzero"/></g><g clip-path="url(#3243448ee7)"><path fill="#5bd3c7" d="M 1094.617188 575.796875 L 933.707031 575.796875 C 928.871094 575.796875 924.914062 579.753906 924.914062 584.589844 L 924.914062 749.019531 C 924.914062 753.855469 928.871094 757.8125 933.707031 757.8125 L 1094.617188 757.8125 C 1099.453125 757.8125 1103.410156 753.855469 1103.410156 749.019531 L 1103.410156 584.589844 C 1103.410156 579.753906 1099.5625 575.796875 1094.617188 575.796875 Z M 935.464844 586.351562 L 1051.640625 586.351562 L 1051.640625 740.335938 L 935.464844 740.335938 Z M 935.464844 586.351562 " fill-opacity="1" fill-rule="nonzero"/></g><path fill="#5bd3c7" d="M 518.789062 108.894531 C 518.789062 107.464844 518.570312 106.144531 518.351562 104.828125 L 573.304688 71.304688 C 574.40625 70.644531 575.835938 70.753906 576.714844 71.742188 L 609.46875 104.496094 L 598.035156 115.929688 C 591.882812 122.082031 591.882812 132.195312 598.035156 138.351562 L 598.914062 139.230469 L 593.53125 144.613281 C 584.957031 153.1875 584.957031 167.148438 593.53125 175.71875 L 598.695312 180.886719 L 598.695312 180.996094 C 596.386719 183.304688 596.386719 187.152344 598.695312 189.460938 C 601.003906 191.765625 604.851562 191.765625 607.160156 189.460938 L 707.070312 89.550781 C 709.375 87.242188 709.375 83.394531 707.070312 81.085938 C 704.761719 78.777344 700.914062 78.777344 698.605469 81.085938 L 693.441406 75.921875 C 684.867188 67.347656 670.90625 67.347656 662.335938 75.921875 L 656.949219 81.304688 L 656.070312 80.425781 C 649.914062 74.273438 639.800781 74.273438 633.648438 80.425781 L 621.117188 92.957031 L 588.363281 60.203125 C 582.097656 53.9375 572.316406 52.730469 564.734375 57.34375 L 509.777344 90.867188 C 506.039062 88.121094 501.535156 86.472656 496.585938 86.472656 C 484.277344 86.472656 474.277344 96.472656 474.277344 108.894531 C 474.277344 121.203125 484.277344 131.207031 496.585938 131.207031 C 508.898438 131.207031 518.789062 121.203125 518.789062 108.894531 Z M 485.15625 108.894531 C 485.15625 102.519531 490.214844 97.464844 496.476562 97.464844 C 502.742188 97.464844 507.796875 102.519531 507.796875 108.894531 C 507.796875 115.050781 502.742188 120.214844 496.476562 120.214844 C 490.214844 120.214844 485.15625 115.050781 485.15625 108.894531 Z M 485.15625 108.894531 " fill-opacity="1" fill-rule="nonzero"/><path fill="#5bd3c7" d="M 1124.511719 147.800781 L 1004.820312 147.800781 C 996.464844 147.800781 989.542969 154.617188 989.542969 162.96875 L 989.542969 282.773438 C 989.542969 291.128906 996.355469 298.050781 1004.820312 298.050781 L 1124.511719 298.050781 C 1132.867188 298.050781 1139.789062 291.238281 1139.789062 282.773438 L 1139.789062 162.96875 C 1139.789062 154.617188 1132.867188 147.800781 1124.511719 147.800781 Z M 1128.800781 282.773438 C 1128.800781 285.082031 1126.929688 287.0625 1124.511719 287.0625 L 1004.820312 287.0625 C 1002.511719 287.0625 1000.53125 285.191406 1000.53125 282.773438 L 1000.53125 162.96875 C 1000.53125 160.664062 1002.402344 158.792969 1004.820312 158.792969 L 1124.511719 158.792969 C 1126.820312 158.792969 1128.800781 160.664062 1128.800781 162.96875 Z M 1128.800781 282.773438 " fill-opacity="1" fill-rule="nonzero"/><path fill="#5bd3c7" d="M 1079.449219 184.621094 C 1076.8125 184.621094 1074.285156 185.390625 1071.976562 186.820312 C 1067.359375 189.679688 1061.644531 189.789062 1057.027344 186.929688 C 1054.71875 185.503906 1052.082031 184.621094 1049.332031 184.621094 C 1039.769531 184.621094 1032.40625 193.964844 1032.40625 205.507812 C 1032.40625 210.671875 1033.835938 215.398438 1036.363281 219.023438 C 1038.230469 221.773438 1038.671875 225.179688 1037.902344 228.367188 C 1037.242188 231.226562 1036.804688 234.414062 1036.804688 237.601562 C 1036.804688 245.953125 1039.222656 253.539062 1043.179688 259.363281 C 1045.597656 262.878906 1051.203125 260.792969 1050.761719 256.503906 C 1050.652344 255.078125 1050.542969 253.648438 1050.542969 252.21875 C 1050.542969 238.039062 1056.585938 226.390625 1064.28125 226.390625 C 1071.976562 226.390625 1078.460938 238.039062 1078.460938 252.21875 C 1078.460938 253.425781 1078.460938 254.746094 1078.351562 255.957031 C 1078.019531 260.460938 1083.734375 262.332031 1086.152344 258.59375 C 1089.890625 252.878906 1092.089844 245.625 1092.089844 237.710938 C 1092.089844 234.960938 1091.871094 232.324219 1091.320312 229.796875 C 1090.441406 225.839844 1090.988281 221.664062 1093.078125 218.367188 C 1095.386719 214.847656 1096.707031 210.453125 1096.707031 205.617188 C 1096.816406 193.964844 1089.121094 184.621094 1079.449219 184.621094 Z M 1079.449219 184.621094 " fill-opacity="1" fill-rule="nonzero"/><path fill="#5bd3c7" d="M 947.886719 598.769531 L 1039.113281 598.769531 L 1039.113281 629.765625 L 947.886719 629.765625 Z M 947.886719 598.769531 " fill-opacity="1" fill-rule="nonzero"/><path fill="#5bd3c7" d="M 947.886719 696.8125 L 1039.113281 696.8125 L 1039.113281 727.804688 L 947.886719 727.804688 Z M 947.886719 696.8125 " fill-opacity="1" fill-rule="nonzero"/><path fill="#5bd3c7" d="M 947.886719 647.789062 L 1039.113281 647.789062 L 1039.113281 678.785156 L 947.886719 678.785156 Z M 947.886719 647.789062 " fill-opacity="1" fill-rule="nonzero"/></svg>