<svg xmlns="http://www.w3.org/2000/svg" xmlns:xlink="http://www.w3.org/1999/xlink" width="1920" zoomAndPan="magnify" viewBox="0 0 1440 809.999993" height="1080" preserveAspectRatio="xMidYMid meet" version="1.0"><rect x="-144" width="1728" fill="#ffffff" y="-80.999999" height="971.999992" fill-opacity="1"/><rect x="-144" width="1728" fill="#feffff" y="-80.999999" height="971.999992" fill-opacity="1"/><path fill="#5bd3c7" d="M 260.273438 288.683594 C 248.625 307.859375 243.445312 330.132812 244.886719 354.882812 C 245.792969 370.433594 249.425781 393.21875 254.605469 415.851562 C 259.898438 438.972656 266.152344 459.296875 272.207031 473.121094 C 282.992188 497.726562 283.777344 535.113281 284.535156 571.257812 C 285.488281 616.476562 286.566406 667.738281 308.96875 674.574219 C 319.839844 677.882812 325.3125 675.207031 328.484375 672.921875 C 348.222656 658.632812 349.453125 601.632812 349.980469 577.292969 C 350.140625 570.015625 350.265625 564.246094 350.675781 560.328125 C 354.265625 526.328125 378.675781 510.847656 399.839844 510.847656 C 421.003906 510.847656 445.410156 526.328125 449 560.328125 L 449.003906 560.328125 C 449.414062 564.246094 449.539062 570.015625 449.699219 577.292969 C 450.222656 601.628906 451.453125 658.632812 471.195312 672.921875 C 474.367188 675.230469 479.839844 677.886719 490.710938 674.574219 C 513.113281 667.738281 514.191406 616.476562 515.140625 571.257812 C 515.902344 535.113281 516.6875 497.730469 527.46875 473.121094 C 540.960938 442.359375 553.019531 385.308594 554.789062 354.882812 C 556.230469 330.128906 551.054688 307.859375 539.402344 288.683594 C 518.695312 258.476562 489.269531 251.273438 446.84375 266.070312 C 401.15625 281.988281 398.519531 281.988281 352.832031 266.070312 C 310.40625 251.296875 280.984375 258.476562 260.273438 288.683594 Z M 318.148438 699.449219 C 313.375 699.472656 308.046875 698.71875 302.148438 696.917969 C 263.5625 685.136719 262.347656 627.503906 261.175781 571.742188 C 260.464844 537.886719 259.726562 502.863281 250.808594 482.515625 C 244.179688 467.378906 237.441406 445.570312 231.828125 421.0625 C 226.292969 396.894531 222.550781 373.257812 221.558594 356.222656 C 219.832031 326.554688 226.199219 299.632812 240.488281 276.269531 C 240.589844 276.097656 240.691406 275.929688 240.800781 275.78125 C 267.644531 236.351562 307.925781 225.667969 360.523438 243.996094 C 380.773438 251.050781 390.9375 254.609375 399.839844 254.609375 C 408.742188 254.609375 418.90625 251.054688 439.152344 243.996094 C 491.753906 225.667969 532.035156 236.351562 558.878906 275.78125 C 558.988281 275.925781 559.089844 276.097656 559.191406 276.269531 C 573.480469 299.632812 579.84375 326.554688 578.117188 356.222656 C 576.226562 388.714844 563.75 448.5625 548.867188 482.515625 C 539.953125 502.863281 539.214844 537.886719 538.5 571.742188 C 537.332031 627.503906 536.117188 685.136719 497.527344 696.917969 C 478.324219 702.785156 465.15625 697.40625 457.492188 691.855469 C 430.597656 672.382812 427.308594 622.78125 426.335938 577.804688 C 426.195312 571.328125 426.078125 565.730469 425.765625 562.785156 C 423.539062 541.683594 410.40625 534.210938 399.839844 534.210938 C 389.273438 534.210938 376.140625 541.6875 373.914062 562.785156 C 373.601562 565.730469 373.484375 571.328125 373.339844 577.804688 C 372.371094 622.78125 369.078125 672.386719 342.183594 691.855469 C 336.875 695.703125 328.921875 699.449219 318.148438 699.449219 Z M 318.148438 699.449219 " fill-opacity="1" fill-rule="evenodd"/><path fill="#5bd3c7" d="M 1162.074219 560.332031 C 1162.484375 564.25 1162.613281 570.019531 1162.769531 577.296875 C 1163.292969 601.632812 1164.527344 658.636719 1184.265625 672.921875 C 1187.4375 675.234375 1192.910156 677.886719 1203.785156 674.578125 C 1226.175781 667.738281 1227.273438 616.480469 1228.222656 571.257812 C 1228.976562 535.117188 1229.753906 497.730469 1240.539062 473.125 C 1254.023438 442.359375 1266.09375 385.308594 1267.871094 354.886719 C 1269.308594 330.132812 1264.121094 307.863281 1252.488281 288.683594 C 1231.777344 258.480469 1202.351562 251.277344 1159.917969 266.074219 C 1114.230469 281.992188 1111.59375 281.992188 1065.902344 266.074219 C 1023.480469 251.300781 994.058594 258.480469 973.347656 288.683594 C 961.695312 307.863281 956.519531 330.132812 957.960938 354.886719 C 959.730469 385.308594 971.792969 442.359375 985.28125 473.125 C 996.0625 497.730469 996.847656 535.117188 997.609375 571.257812 C 998.5625 616.480469 999.636719 667.738281 1022.039062 674.578125 C 1032.914062 677.886719 1038.382812 675.210938 1041.554688 672.921875 C 1061.296875 658.636719 1062.527344 601.632812 1063.054688 577.296875 C 1063.210938 570.019531 1063.335938 564.25 1063.75 560.332031 C 1067.339844 526.328125 1091.75 510.851562 1112.910156 510.851562 C 1134.074219 510.847656 1158.480469 526.328125 1162.074219 560.332031 Z M 1031.21875 699.453125 C 1026.445312 699.476562 1021.121094 698.722656 1015.21875 696.921875 C 976.632812 685.140625 975.421875 627.507812 974.246094 571.746094 C 973.539062 537.890625 972.800781 502.867188 963.882812 482.519531 C 949 448.566406 936.523438 388.71875 934.632812 356.226562 C 932.90625 326.554688 939.273438 299.636719 953.558594 276.273438 C 953.660156 276.101562 953.765625 275.929688 953.871094 275.785156 C 980.71875 236.355469 1020.996094 225.671875 1073.59375 244 C 1093.847656 251.054688 1104.007812 254.609375 1112.910156 254.609375 C 1121.816406 254.609375 1131.976562 251.058594 1152.226562 244 C 1204.832031 225.671875 1245.113281 236.378906 1271.957031 275.785156 C 1272.054688 275.929688 1272.152344 276.101562 1272.25 276.273438 C 1286.539062 299.636719 1292.914062 326.554688 1291.1875 356.226562 C 1289.289062 388.714844 1276.828125 448.566406 1261.929688 482.519531 C 1253.023438 502.867188 1252.292969 537.890625 1251.5625 571.746094 C 1250.394531 627.507812 1249.203125 685.140625 1210.601562 696.921875 C 1191.398438 702.785156 1178.230469 697.40625 1170.566406 691.859375 C 1143.671875 672.386719 1140.378906 622.785156 1139.410156 577.804688 C 1139.269531 571.332031 1139.148438 565.734375 1138.835938 562.789062 L 1138.839844 562.789062 C 1136.609375 541.6875 1123.480469 534.214844 1112.910156 534.214844 C 1102.34375 534.214844 1089.214844 541.6875 1086.984375 562.789062 C 1086.671875 565.734375 1086.554688 571.332031 1086.414062 577.804688 C 1085.441406 622.785156 1082.152344 672.386719 1055.253906 691.859375 C 1049.949219 695.703125 1041.992188 699.453125 1031.21875 699.453125 Z M 1031.21875 699.453125 " fill-opacity="1" fill-rule="evenodd"/><path fill="#5bd3c7" d="M 666.699219 210.773438 C 682.3125 210.773438 697.996094 216.296875 713.320312 227.371094 C 736.023438 243.726562 757.171875 243.726562 779.878906 227.371094 C 806.117188 208.4375 847.339844 205.734375 877.808594 219.144531 C 879.847656 207.753906 881.214844 197.3125 881.6875 189.207031 C 882.863281 169.03125 878.832031 151.628906 869.367188 136.027344 C 852.953125 112.128906 829.535156 106.480469 795.703125 118.261719 C 757.84375 131.476562 754.898438 131.476562 717.042969 118.261719 C 683.210938 106.480469 659.792969 112.128906 643.378906 136.027344 C 633.917969 151.628906 629.886719 169.03125 631.054688 189.207031 C 631.523438 197.191406 632.851562 207.414062 634.835938 218.5625 C 645.335938 213.375 656 210.773438 666.699219 210.773438 Z M 746.597656 262.929688 C 730.800781 262.929688 715.007812 257.382812 699.652344 246.308594 C 676.898438 229.902344 655.929688 230.027344 633.652344 246.671875 C 630.46875 249.035156 626.300781 249.640625 622.574219 248.253906 C 618.855469 246.867188 616.089844 243.679688 615.242188 239.808594 C 611.222656 221.433594 608.480469 203.472656 607.730469 190.546875 C 606.289062 165.722656 611.625 143.183594 623.59375 123.589844 C 623.691406 123.445312 623.796875 123.273438 623.90625 123.128906 C 646.570312 89.832031 680.492188 80.777344 724.734375 96.210938 C 741.164062 101.929688 749.40625 104.800781 756.371094 104.800781 C 763.339844 104.800781 771.585938 101.929688 788.011719 96.210938 C 832.257812 80.777344 866.175781 89.832031 888.84375 123.128906 C 888.949219 123.273438 889.054688 123.445312 889.152344 123.589844 C 901.125 143.183594 906.460938 165.722656 905.015625 190.546875 C 904.265625 203.445312 901.527344 221.410156 897.503906 239.808594 C 896.65625 243.679688 893.898438 246.867188 890.179688 248.253906 C 886.460938 249.640625 882.289062 249.058594 879.105469 246.671875 C 856.957031 230.171875 816.179688 229.976562 793.546875 246.308594 C 778.191406 257.382812 762.394531 262.929688 746.597656 262.929688 Z M 746.597656 262.929688 " fill-opacity="1" fill-rule="evenodd"/><path fill="#5bd3c7" d="M 725.507812 584.007812 L 725.53125 584.007812 Z M 639.8125 467.230469 C 643.921875 484.539062 648.753906 499.992188 653.347656 510.480469 C 662.378906 531.097656 663.027344 562.03125 663.660156 591.945312 C 664.425781 628.429688 665.292969 669.757812 682.269531 674.941406 C 690.320312 677.398438 694.242188 675.523438 696.492188 673.894531 C 711.882812 662.746094 712.882812 616.601562 713.308594 596.910156 C 713.4375 590.875 713.539062 586.101562 713.890625 582.792969 C 716.976562 553.5625 738.074219 540.25 756.371094 540.25 C 774.671875 540.25 795.769531 553.5625 798.855469 582.792969 C 799.207031 586.101562 799.308594 590.875 799.4375 596.910156 C 799.863281 616.601562 800.863281 662.746094 816.253906 673.894531 C 818.503906 675.523438 822.429688 677.398438 830.472656 674.941406 C 847.453125 669.753906 848.320312 628.429688 849.085938 591.945312 C 849.71875 562.03125 850.367188 531.097656 859.398438 510.480469 C 863.972656 500.042969 868.777344 484.660156 872.875 467.476562 C 849.945312 455.039062 814.191406 456.207031 793.550781 471.078125 C 762.832031 493.25 730.363281 493.25 699.648438 471.078125 C 679.011719 456.207031 659.828125 454.917969 639.8125 467.230469 Z M 689.230469 699.472656 C 685.109375 699.472656 680.523438 698.839844 675.449219 697.285156 C 642.285156 687.160156 641.277344 639.015625 640.296875 592.429688 C 639.714844 564.804688 639.117188 536.207031 631.949219 519.851562 C 626.007812 506.296875 620.070312 486.679688 615.242188 464.578125 C 614.261719 460.101562 615.992188 455.476562 619.660156 452.726562 C 650.015625 430.042969 682.40625 429.847656 713.320312 452.140625 C 736.023438 468.523438 757.171875 468.523438 779.878906 452.140625 C 810.839844 429.796875 862.679688 430.066406 893.074219 452.726562 C 896.753906 455.449219 898.484375 460.101562 897.503906 464.578125 C 892.675781 486.679688 886.742188 506.296875 880.796875 519.851562 C 873.632812 536.207031 873.027344 564.808594 872.449219 592.429688 C 871.46875 639.015625 870.457031 687.160156 837.292969 697.285156 C 820.6875 702.34375 809.234375 697.648438 802.554688 692.828125 C 779.671875 676.253906 776.886719 634.878906 776.082031 597.394531 C 775.964844 592.140625 775.867188 587.585938 775.621094 585.25 C 773.933594 569.285156 764.199219 563.613281 756.371094 563.613281 C 748.546875 563.613281 738.8125 569.285156 737.125 585.25 C 736.878906 587.585938 736.78125 592.140625 736.664062 597.394531 C 735.859375 634.878906 733.074219 676.253906 710.191406 692.828125 C 705.550781 696.1875 698.605469 699.472656 689.230469 699.472656 Z M 689.230469 699.472656 " fill-opacity="1" fill-rule="evenodd"/><path fill="#5bd3c7" d="M 715.078125 478.816406 C 708.625 478.816406 703.394531 473.585938 703.394531 467.132812 L 703.394531 335.410156 C 703.394531 316.402344 718.855469 300.949219 737.859375 300.949219 L 774.882812 300.949219 C 793.890625 300.949219 809.351562 316.402344 809.351562 335.414062 L 809.351562 455.230469 C 809.351562 461.707031 804.121094 466.914062 797.667969 466.914062 C 791.214844 466.914062 785.988281 461.707031 785.988281 455.234375 L 785.988281 335.414062 C 785.988281 329.277344 781.003906 324.316406 774.882812 324.316406 L 737.859375 324.3125 C 731.738281 324.3125 726.757812 329.277344 726.757812 335.414062 L 726.761719 467.132812 C 726.761719 473.585938 721.527344 478.816406 715.078125 478.816406 Z M 715.078125 478.816406 " fill-opacity="1" fill-rule="evenodd"/><path fill="#5bd3c7" d="M 797.667969 378.6875 L 715.078125 378.6875 C 708.625 378.6875 703.394531 373.453125 703.394531 367.003906 C 703.394531 360.554688 708.625 355.320312 715.078125 355.320312 L 797.667969 355.320312 C 804.121094 355.320312 809.351562 360.554688 809.351562 367.003906 C 809.351562 373.453125 804.121094 378.6875 797.667969 378.6875 Z M 797.667969 378.6875 " fill-opacity="1" fill-rule="evenodd"/><path fill="#5bd3c7" d="M 797.667969 433.082031 L 715.078125 433.082031 C 708.625 433.082031 703.394531 427.851562 703.394531 421.402344 C 703.394531 414.953125 708.625 409.71875 715.078125 409.71875 L 797.667969 409.71875 C 804.121094 409.71875 809.351562 414.953125 809.351562 421.402344 C 809.351562 427.851562 804.121094 433.085938 797.667969 433.082031 Z M 797.667969 433.082031 " fill-opacity="1" fill-rule="evenodd"/></svg>