<svg xmlns="http://www.w3.org/2000/svg" xmlns:xlink="http://www.w3.org/1999/xlink" width="1920" zoomAndPan="magnify" viewBox="0 0 1440 809.999993" height="1080" preserveAspectRatio="xMidYMid meet" version="1.0"><defs><clipPath id="1c03365b43"><path d="M 693 82 L 1061.375 82 L 1061.375 173 L 693 173 Z M 693 82 " clip-rule="nonzero"/></clipPath></defs><rect x="-144" width="1728" fill="#ffffff" y="-80.999999" height="971.999992" fill-opacity="1"/><rect x="-144" width="1728" fill="#feffff" y="-80.999999" height="971.999992" fill-opacity="1"/><path fill="#5bd3c7" d="M 826.066406 234.691406 C 824.675781 234.691406 823.28125 234.34375 822.011719 233.5625 C 818.285156 231.332031 817.097656 226.5 819.328125 222.769531 C 820.496094 220.867188 820.640625 219.699219 820.640625 218.898438 C 820.640625 214.578125 836.371094 214.578125 836.371094 218.921875 C 836.371094 223.015625 835.203125 226.929688 832.804688 230.902344 C 831.332031 233.339844 828.730469 234.691406 826.066406 234.691406 Z M 638.863281 246.199219 C 636.464844 246.199219 634.132812 245.113281 632.574219 243.085938 C 627.148438 235.917969 624.507812 227.992188 624.507812 218.859375 C 624.507812 214.519531 640.234375 214.519531 640.234375 218.859375 C 640.234375 224.59375 641.730469 229.121094 645.109375 233.5625 C 647.730469 237.046875 647.054688 241.980469 643.59375 244.601562 C 642.179688 245.667969 640.5 246.199219 638.863281 246.199219 Z M 801.59375 268.421875 C 800.652344 268.421875 799.710938 268.257812 798.789062 267.910156 C 794.714844 266.332031 792.707031 261.785156 794.261719 257.75 C 797.804688 248.492188 802.925781 241.859375 806.46875 237.679688 C 809.273438 234.363281 814.230469 233.953125 817.546875 236.757812 C 820.867188 239.5625 821.277344 244.519531 818.46875 247.839844 C 813.945312 253.183594 811.015625 257.957031 808.945312 263.382812 C 807.738281 266.496094 804.75 268.421875 801.59375 268.421875 Z M 669.171875 274.996094 C 666.753906 274.996094 664.359375 273.867188 662.824219 271.777344 C 659.28125 266.964844 654.570312 263.015625 649.226562 258.714844 C 645.847656 255.988281 645.292969 251.054688 648.015625 247.652344 C 650.742188 244.273438 655.695312 243.742188 659.074219 246.445312 C 665.078125 251.257812 670.851562 256.132812 675.5 262.480469 C 678.082031 265.984375 677.304688 270.898438 673.800781 273.480469 C 672.40625 274.503906 670.789062 274.996094 669.171875 274.996094 Z M 790.636719 307.558594 C 788.386719 307.558594 786.132812 306.59375 784.597656 304.730469 C 781.8125 301.394531 782.261719 296.4375 785.601562 293.652344 C 789.859375 290.089844 789.859375 287.078125 789.859375 286.074219 C 789.839844 284.925781 789.820312 284.046875 789.820312 283.164062 C 789.820312 282.386719 789.839844 281.609375 789.859375 280.832031 C 789.960938 276.488281 793.402344 273.152344 797.910156 273.171875 C 802.25 273.273438 805.691406 276.878906 805.589844 281.21875 L 805.546875 283.164062 C 805.546875 283.902344 805.566406 284.640625 805.589844 285.378906 C 805.589844 285.460938 805.589844 286.011719 805.589844 286.074219 C 805.589844 293.527344 802.167969 300.328125 795.65625 305.734375 C 794.203125 306.964844 792.398438 307.558594 790.636719 307.558594 Z M 689.878906 309.769531 C 688.546875 309.769531 687.175781 309.421875 685.945312 308.703125 C 676.6875 303.359375 670.832031 296.230469 669.027344 288.101562 C 668.085938 283.882812 670.75 279.664062 674.988281 278.722656 C 679.25 277.800781 683.425781 280.441406 684.367188 284.679688 C 685.414062 289.371094 690.082031 292.933594 693.808594 295.085938 C 697.578125 297.257812 698.867188 302.070312 696.695312 305.835938 C 695.242188 308.355469 692.601562 309.769531 689.878906 309.769531 Z M 751.152344 319.96875 C 747.097656 319.96875 743.65625 316.855469 743.308594 312.738281 C 742.960938 308.398438 746.195312 304.609375 750.519531 304.261719 C 757.542969 303.707031 764.015625 302.621094 769.726562 301.042969 C 773.90625 299.898438 778.226562 302.335938 779.394531 306.535156 C 780.542969 310.710938 778.105469 315.054688 773.90625 316.199219 C 767.230469 318.042969 759.796875 319.292969 751.789062 319.949219 C 751.582031 319.96875 751.359375 319.96875 751.152344 319.96875 Z M 730.203125 320.113281 C 730.039062 320.113281 729.855469 320.089844 729.691406 320.089844 C 721.90625 319.578125 714.515625 318.492188 707.652344 316.875 C 703.433594 315.890625 700.8125 311.652344 701.796875 307.414062 C 702.800781 303.195312 707.039062 300.59375 711.257812 301.578125 C 717.277344 302.992188 723.8125 303.953125 730.714844 304.382812 C 735.035156 304.667969 738.332031 308.417969 738.046875 312.757812 C 737.78125 316.917969 734.320312 320.113281 730.203125 320.113281 " fill-opacity="1" fill-rule="nonzero"/><path fill="#5bd3c7" d="M 730.878906 214.394531 C 726.535156 214.394531 723.011719 210.871094 723.011719 206.53125 L 723.011719 164.710938 C 723.011719 160.367188 726.535156 156.847656 730.878906 156.847656 C 735.21875 156.847656 738.742188 160.367188 738.742188 164.710938 L 738.742188 206.53125 C 738.742188 210.871094 735.21875 214.394531 730.878906 214.394531 " fill-opacity="1" fill-rule="nonzero"/><g clip-path="url(#1c03365b43)"><path fill="#5bd3c7" d="M 747.816406 151.417969 C 747.445312 154.511719 744.84375 156.847656 741.730469 156.847656 L 720.554688 156.847656 C 717.441406 156.847656 714.820312 154.511719 714.453125 151.417969 L 708.882812 104.089844 C 708.636719 102.042969 709.597656 100.609375 710.171875 99.933594 C 710.765625 99.277344 712.078125 98.152344 714.167969 98.152344 L 748.121094 98.152344 C 750.191406 98.152344 751.5 99.277344 752.09375 99.933594 C 752.6875 100.609375 753.652344 102.042969 753.40625 104.089844 Z M 1053.722656 145.253906 L 966.988281 145.253906 L 966.988281 130.714844 C 966.988281 126.371094 963.464844 122.851562 959.125 122.851562 C 954.761719 122.851562 951.261719 126.371094 951.261719 130.714844 L 951.261719 145.253906 L 902.148438 145.253906 C 890.3125 145.253906 880.933594 134.503906 883.289062 122.257812 C 885.027344 113.082031 893.609375 106.8125 902.949219 106.8125 L 1053.722656 106.8125 C 1058.0625 106.8125 1061.585938 103.292969 1061.585938 98.949219 C 1061.585938 94.609375 1058.0625 91.085938 1053.722656 91.085938 L 902.148438 91.085938 C 886.074219 91.085938 872.535156 102.023438 868.480469 116.808594 L 768.4375 98.355469 C 767.617188 95.121094 766.125 92.046875 763.851562 89.488281 C 759.855469 85.003906 754.121094 82.421875 748.121094 82.421875 L 714.167969 82.421875 C 708.144531 82.421875 702.410156 85.003906 698.417969 89.488281 C 694.445312 93.992188 692.558594 99.972656 693.257812 105.953125 L 698.828125 153.261719 C 700.136719 164.261719 709.476562 172.574219 720.554688 172.574219 L 741.730469 172.574219 C 752.8125 172.574219 762.152344 164.261719 763.441406 153.261719 L 768.046875 114.289062 L 867.867188 132.699219 C 871.082031 149.269531 886.523438 160.984375 903.644531 160.984375 L 1053.722656 160.984375 C 1058.0625 160.984375 1061.585938 157.460938 1061.585938 153.121094 C 1061.585938 148.777344 1058.0625 145.253906 1053.722656 145.253906 " fill-opacity="1" fill-rule="nonzero"/></g><path fill="#5bd3c7" d="M 882.714844 525.296875 C 864.960938 556.878906 856.746094 597.121094 849.515625 632.652344 C 837.925781 689.503906 829.40625 724.136719 801.246094 719.386719 C 785.191406 716.660156 779.25 659.808594 774.910156 618.316406 C 768.375 555.957031 762.746094 502.09375 731.144531 502.09375 C 699.542969 502.09375 693.910156 555.957031 687.378906 618.316406 C 683.035156 659.808594 677.078125 716.660156 661.019531 719.386719 C 632.921875 724.117188 624.34375 689.503906 612.769531 632.632812 C 605.519531 597.121094 597.328125 556.878906 579.574219 525.296875 C 536.871094 449.421875 494.726562 343.992188 536.300781 272.660156 C 554.730469 241.039062 589.875 227.214844 626 227.214844 C 647.628906 227.214844 669.621094 232.171875 688.609375 241.203125 C 689.058594 241.429688 694.402344 244.109375 695.632812 244.828125 C 704.4375 249.90625 709.785156 255.355469 714.984375 260.660156 C 722.933594 268.769531 730.449219 276.46875 746.585938 278.046875 C 746.832031 278.066406 747.097656 278.085938 747.363281 278.085938 C 751.359375 278.085938 754.777344 275.035156 755.167969 270.980469 C 755.597656 266.660156 752.441406 262.808594 748.121094 262.378906 C 738.457031 261.4375 734.011719 257.546875 727.722656 251.175781 C 742.980469 251.730469 758.363281 248.71875 772.289062 241.878906 C 823.035156 216.953125 896.230469 221.644531 925.988281 272.660156 C 967.5625 343.992188 925.394531 449.421875 882.714844 525.296875 Z M 939.566406 264.753906 C 904.8125 205.117188 823.691406 199.117188 765.367188 227.746094 C 744.742188 237.886719 720.269531 238.253906 699.359375 228.914062 C 698.539062 228.546875 691.964844 225.414062 689.488281 224.367188 C 631.878906 199.730469 556.019531 207.617188 522.699219 264.753906 C 477.378906 342.496094 521.164062 453.558594 565.851562 533.019531 C 582.398438 562.449219 590.34375 601.402344 597.351562 635.785156 C 607.792969 687.027344 617.6875 735.625 655.328125 735.625 C 657.949219 735.625 660.734375 735.378906 663.644531 734.886719 C 691.476562 730.179688 696.839844 679.101562 703.023438 619.957031 C 707.53125 576.847656 713.714844 517.824219 731.144531 517.824219 C 748.574219 517.824219 754.757812 576.847656 759.261719 619.957031 C 765.449219 679.101562 770.792969 730.179688 798.625 734.886719 C 843.210938 742.382812 853.757812 690.609375 864.917969 635.785156 C 871.921875 601.402344 879.867188 562.449219 896.414062 533.019531 C 941.125 453.558594 984.886719 342.496094 939.566406 264.753906 " fill-opacity="1" fill-rule="nonzero"/></svg>