<svg xmlns="http://www.w3.org/2000/svg" xmlns:xlink="http://www.w3.org/1999/xlink" width="1920" zoomAndPan="magnify" viewBox="0 0 1440 809.999993" height="1080" preserveAspectRatio="xMidYMid meet" version="1.0"><defs><clipPath id="c5ac49b475"><path d="M 365.527344 71.59375 L 1213.777344 71.59375 L 1213.777344 721.84375 L 365.527344 721.84375 Z M 365.527344 71.59375 " clip-rule="nonzero"/></clipPath></defs><rect x="-144" width="1728" fill="#ffffff" y="-80.999999" height="971.999992" fill-opacity="1"/><rect x="-144" width="1728" fill="#feffff" y="-80.999999" height="971.999992" fill-opacity="1"/><path fill="#5bd3c7" d="M 1041.472656 294.265625 C 1044.222656 291.507812 1047.835938 290.132812 1051.460938 290.132812 C 1055.074219 290.132812 1058.695312 291.507812 1061.449219 294.265625 C 1066.953125 299.769531 1066.953125 308.730469 1061.449219 314.242188 C 1052.957031 322.734375 1036.109375 329.660156 1021.402344 334.335938 C 1026.101562 319.660156 1033.054688 302.679688 1041.472656 294.265625 Z M 991.519531 364.195312 C 994.195312 366.871094 997.796875 368.332031 1001.507812 368.332031 C 1002.425781 368.332031 1003.359375 368.242188 1004.28125 368.058594 C 1009.820312 366.945312 1059.066406 356.585938 1081.425781 334.226562 C 1081.425781 334.226562 1081.425781 334.226562 1081.425781 334.21875 C 1097.953125 317.699219 1097.953125 290.808594 1081.425781 274.28125 C 1064.902344 257.761719 1038.015625 257.761719 1021.488281 274.28125 C 999.128906 296.644531 988.761719 345.890625 987.65625 351.433594 C 986.734375 356.066406 988.179688 360.855469 991.519531 364.195312 " fill-opacity="1" fill-rule="nonzero"/><path fill="#5bd3c7" d="M 1154.492188 195.371094 C 1157.246094 192.613281 1160.859375 191.238281 1164.480469 191.238281 C 1168.097656 191.238281 1171.71875 192.613281 1174.46875 195.371094 C 1179.976562 200.875 1179.976562 209.835938 1174.46875 215.347656 C 1165.976562 223.839844 1149.132812 230.765625 1134.425781 235.445312 C 1139.121094 220.765625 1146.078125 203.789062 1154.492188 195.371094 Z M 1117.304688 269.164062 C 1122.84375 268.050781 1172.089844 257.691406 1194.449219 235.332031 C 1194.449219 235.332031 1194.449219 235.332031 1194.449219 235.328125 C 1210.976562 218.804688 1210.976562 191.914062 1194.449219 175.386719 C 1177.925781 158.867188 1151.035156 158.867188 1134.507812 175.386719 C 1112.152344 197.75 1101.78125 247 1100.679688 252.539062 C 1099.753906 257.171875 1101.203125 261.960938 1104.542969 265.300781 C 1107.21875 267.976562 1110.820312 269.4375 1114.53125 269.4375 C 1115.449219 269.4375 1116.378906 269.347656 1117.304688 269.164062 " fill-opacity="1" fill-rule="nonzero"/><path fill="#5bd3c7" d="M 1058.019531 114.035156 C 1065.808594 114.035156 1072.148438 120.367188 1072.148438 128.160156 C 1072.148438 140.164062 1065.132812 156.976562 1058.039062 170.683594 C 1050.976562 156.984375 1043.890625 140.0625 1043.890625 128.160156 C 1043.890625 120.367188 1050.230469 114.035156 1058.019531 114.035156 Z M 1058.019531 212.929688 C 1062.746094 212.929688 1067.152344 210.5625 1069.773438 206.636719 C 1072.914062 201.933594 1100.402344 159.785156 1100.402344 128.160156 C 1100.402344 104.789062 1081.390625 85.777344 1058.019531 85.777344 C 1034.648438 85.777344 1015.636719 104.789062 1015.636719 128.160156 C 1015.636719 159.785156 1043.125 201.933594 1046.265625 206.636719 C 1048.886719 210.5625 1053.292969 212.929688 1058.019531 212.929688 " fill-opacity="1" fill-rule="nonzero"/><g clip-path="url(#c5ac49b475)"><path fill="#5bd3c7" d="M 1185.167969 693.269531 L 394.015625 693.269531 L 394.015625 382.460938 C 394.015625 382.136719 394.390625 350.136719 426.742188 339.351562 C 432.847656 337.3125 441.261719 338.816406 450.914062 342.503906 C 452.714844 387.453125 459.625 464.121094 484.597656 530.476562 C 499.59375 570.320312 519.332031 601.832031 543.246094 624.136719 C 572.34375 651.257812 607.699219 665.015625 648.316406 665.015625 C 650.703125 665.015625 702.972656 664.40625 747.210938 616.445312 C 791.449219 664.40625 843.71875 665.015625 846.105469 665.015625 C 902.585938 665.015625 948.234375 638.820312 981.765625 587.175781 C 1005.585938 550.480469 1022.914062 501.25 1033.34375 440.832031 C 1035.539062 438.894531 1037.683594 436.902344 1039.753906 434.832031 C 1084.453125 390.132812 1105.597656 370.824219 1138.316406 381.734375 C 1155.816406 387.566406 1185.167969 404.589844 1185.167969 453.097656 Z M 523.160156 385.917969 C 528.382812 389.546875 533.390625 393.023438 538.308594 396.382812 C 540.15625 428.121094 545.433594 465.136719 564.488281 514.679688 C 576 544.605469 602.289062 580.25 662.1875 580.25 C 662.277344 580.25 662.382812 580.25 662.472656 580.25 C 678.480469 580.214844 695.753906 570.308594 709.871094 553.054688 C 730.328125 528.054688 738.90625 494.929688 732.804688 464.453125 C 720.277344 401.804688 728.019531 380.722656 733.75 373.726562 C 735.8125 371.214844 739.207031 368.332031 747.210938 368.332031 C 755.210938 368.332031 758.605469 371.214844 760.667969 373.726562 C 766.402344 380.722656 774.140625 401.804688 761.613281 464.453125 C 755.515625 494.929688 764.089844 528.054688 784.550781 553.054688 C 798.664062 570.308594 815.9375 580.214844 831.949219 580.25 C 832.046875 580.25 832.136719 580.25 832.230469 580.25 C 892.121094 580.25 918.417969 544.605469 929.933594 514.679688 C 933.710938 504.84375 936.941406 495.507812 939.714844 486.605469 C 958.160156 481.863281 979.660156 474.640625 1000.066406 463.679688 C 990.214844 507.679688 976.144531 543.949219 958.0625 571.792969 C 929.683594 615.503906 893.0625 636.757812 846.179688 636.757812 C 844.144531 636.738281 795.816406 635.636719 758.507812 585.898438 C 755.847656 582.339844 751.660156 580.25 747.210938 580.25 C 742.761719 580.25 738.574219 582.339844 735.910156 585.898438 C 698.605469 635.636719 650.273438 636.738281 648.316406 636.757812 C 586.257812 636.757812 540.066406 597.652344 511.046875 520.523438 C 490.132812 464.957031 482.589844 401.105469 479.949219 357.289062 C 494.691406 366.132812 509.929688 376.714844 523.160156 385.917969 Z M 555.601562 131.941406 C 569.902344 110.714844 591.597656 99.941406 620.082031 99.90625 C 620.101562 99.90625 620.117188 99.90625 620.144531 99.90625 C 640.363281 99.90625 666.726562 112.171875 689.988281 122.996094 C 712.207031 133.328125 731.390625 142.261719 747.183594 142.289062 C 747.210938 142.289062 747.238281 142.289062 747.257812 142.289062 C 763.59375 142.289062 781.003906 132.695312 799.429688 122.539062 C 818.675781 111.929688 840.488281 99.90625 860.15625 99.90625 C 860.167969 99.90625 860.195312 99.90625 860.210938 99.90625 C 894.820312 99.949219 920.867188 112.632812 937.636719 137.605469 C 963.265625 175.753906 959.960938 229.925781 946.039062 264.113281 C 930.304688 302.765625 929.585938 333.605469 928.820312 366.257812 C 927.9375 404.246094 927.019531 443.523438 903.554688 504.53125 C 891.109375 536.90625 868.449219 551.992188 832.246094 551.992188 C 832.167969 551.992188 832.085938 551.992188 832.003906 551.992188 C 826.539062 551.980469 816.566406 547.5625 806.410156 535.160156 C 794.710938 520.855469 784.074219 496.226562 789.316406 470 C 800.933594 411.921875 798.773438 375.644531 782.515625 355.8125 C 776.632812 348.636719 765.726562 340.078125 747.210938 340.078125 C 728.695312 340.078125 717.789062 348.636719 711.90625 355.8125 C 695.644531 375.644531 693.484375 411.921875 705.101562 470 C 710.34375 496.226562 699.707031 520.855469 688.007812 535.160156 C 677.855469 547.5625 667.878906 551.980469 662.417969 551.992188 C 662.332031 551.992188 662.257812 551.992188 662.175781 551.992188 C 625.980469 551.992188 603.3125 536.90625 590.867188 504.53125 C 567.351562 443.40625 566.40625 404.09375 565.496094 366.078125 C 564.707031 333.511719 563.96875 302.75 548.394531 264.148438 C 533.527344 227.304688 530.996094 168.449219 555.601562 131.941406 Z M 1147.257812 354.929688 C 1096.582031 338.035156 1062.691406 371.933594 1019.777344 414.847656 C 1000.019531 434.613281 972.6875 447.054688 948.183594 454.816406 C 955.828125 420.050781 956.476562 392.359375 957.070312 366.917969 C 957.800781 335.636719 958.429688 308.613281 972.210938 274.765625 C 988.855469 233.871094 992.480469 168.570312 961.089844 121.847656 C 945.742188 98.988281 915.777344 71.71875 860.253906 71.652344 C 860.21875 71.652344 860.183594 71.652344 860.148438 71.652344 C 833.21875 71.652344 808.019531 85.535156 785.785156 97.796875 C 771.300781 105.777344 756.324219 114.035156 747.265625 114.035156 C 747.257812 114.035156 747.246094 114.035156 747.238281 114.035156 C 737.667969 114.011719 719.484375 105.554688 701.902344 97.375 C 675.984375 85.316406 646.617188 71.652344 620.144531 71.652344 C 620.109375 71.652344 620.074219 71.652344 620.039062 71.652344 C 582.140625 71.699219 551.753906 87.082031 532.167969 116.152344 C 501.796875 161.21875 504.164062 230.035156 522.195312 274.722656 C 535.03125 306.539062 536.371094 332.28125 537.109375 361.199219 C 494.441406 331.558594 450.5625 301.625 417.800781 312.546875 C 376.640625 326.265625 365.761719 364.277344 365.761719 382.460938 L 365.761719 707.398438 C 365.761719 715.199219 372.085938 721.527344 379.890625 721.527344 L 1199.296875 721.527344 C 1207.097656 721.527344 1213.425781 715.199219 1213.425781 707.398438 L 1213.425781 453.097656 C 1213.425781 404.726562 1189.308594 368.945312 1147.257812 354.929688 " fill-opacity="1" fill-rule="nonzero"/></g></svg>