<svg xmlns="http://www.w3.org/2000/svg" xmlns:xlink="http://www.w3.org/1999/xlink" width="1920" zoomAndPan="magnify" viewBox="0 0 1440 809.999993" height="1080" preserveAspectRatio="xMidYMid meet" version="1.0"><defs><clipPath id="4c04e2a2f4"><path d="M 540 62 L 963 62 L 963 749.292969 L 540 749.292969 Z M 540 62 " clip-rule="nonzero"/></clipPath></defs><rect x="-144" width="1728" fill="#ffffff" y="-80.999999" height="971.999992" fill-opacity="1"/><rect x="-144" width="1728" fill="#feffff" y="-80.999999" height="971.999992" fill-opacity="1"/><g clip-path="url(#4c04e2a2f4)"><path fill="#5bd3c7" d="M 817.203125 662.496094 L 814.027344 681.753906 C 811.261719 698.355469 804.929688 707.109375 795.003906 713.339844 C 785.085938 719.570312 770.277344 722.738281 751.652344 722.738281 C 733.089844 722.738281 718.847656 719.503906 709.050781 713.273438 C 699.3125 707.042969 692.804688 698.054688 689.449219 681.574219 Z M 844.398438 606.570312 C 848.726562 605.941406 853.5625 609.171875 854.425781 616.832031 C 855.355469 624.566406 850.792969 630.035156 846.46875 630.664062 L 658.550781 658.675781 C 654.222656 659.308594 649.386719 656.078125 648.46875 648.363281 C 647.59375 640.691406 652.152344 635.214844 656.480469 634.570312 Z M 831.316406 555.683594 L 828.09375 581.503906 L 678.152344 603.792969 L 674.699219 576.246094 Z M 856.671875 500.445312 C 863.589844 499.523438 869.53125 504.03125 870.460938 510.890625 C 871.367188 517.742188 866.941406 523.507812 860.023438 524.425781 L 646.785156 552.515625 C 639.824219 553.367188 634 548.886719 633.082031 542.023438 C 632.152344 535.164062 636.480469 529.386719 643.453125 528.476562 Z M 658.496094 453.074219 L 844.875 453.074219 L 841.628906 474.976562 L 664.78125 498.207031 Z M 630.128906 360.4375 L 873.339844 360.4375 L 873.339844 402.804688 C 873.339844 415.777344 863.246094 425.804688 850.230469 425.804688 L 653.25 425.804688 C 640.167969 425.804688 630.128906 415.777344 630.128906 402.804688 Z M 646.210938 109.347656 C 655.792969 109.347656 658.152344 119.539062 650.535156 123.933594 C 628.578125 136.605469 614.566406 169.53125 614.566406 204.394531 C 614.566406 228.082031 587.121094 233.914062 583.089844 210.683594 C 573.183594 154.191406 605.988281 109.347656 646.210938 109.347656 Z M 639.480469 62.421875 C 601.207031 61.269531 569.742188 89.578125 553.007812 130.097656 C 536.230469 170.617188 535.421875 223.421875 558.953125 270.503906 L 586.5 325.621094 C 592.265625 335.535156 597.167969 343.945312 602.945312 349.78125 L 602.945312 402.804688 C 602.945312 422.117188 614.125 438.773438 630.261719 447.1875 L 637.875 502.003906 C 617.589844 505.8125 603.289062 524.957031 606.121094 545.589844 C 608.890625 566.117188 627.328125 580.816406 647.679688 579.542969 L 651.3125 607.964844 C 631.410156 611.652344 619.136719 631.40625 621.5625 651.59375 C 623.984375 672.046875 641.980469 688.546875 662.554688 685.527344 C 667.105469 709.796875 679.433594 726.464844 694.429688 736.207031 C 710.402344 746.585938 730.113281 749.929688 751.671875 749.929688 C 773.300781 749.929688 793.21875 746.519531 809.480469 736.328125 C 825.738281 726.113281 837.105469 708.714844 840.84375 686.125 L 845.449219 658.277344 L 850.460938 657.527344 C 871.101562 654.472656 883.898438 634.238281 881.417969 613.652344 C 879.648438 598.4375 869.265625 585.421875 855.609375 580.984375 L 859.171875 551.984375 L 863.601562 551.410156 C 885.003906 548.632812 900.320312 528.699219 897.457031 507.292969 C 895.320312 491.445312 883.730469 478.996094 869.132812 474.734375 L 873.171875 447.175781 C 889.320312 438.761719 900.566406 422.097656 900.566406 402.792969 L 900.566406 349.714844 C 906.320312 343.949219 911.222656 335.535156 916.988281 325.621094 C 925.289062 311.199219 931.976562 295.171875 944.480469 270.503906 C 968.042969 223.421875 967.179688 170.617188 950.46875 130.097656 C 933.691406 89.570312 902.28125 62.421875 863.941406 62.421875 C 836.449219 62.421875 818.179688 70.554688 798.699219 77.238281 C 782.785156 82.652344 783.070312 95.898438 805.835938 101.332031 C 820.777344 104.910156 817.722656 121.851562 802.507812 119.660156 C 748.539062 111.140625 700.460938 64.324219 639.480469 62.421875 Z M 639.480469 62.421875 " fill-opacity="1" fill-rule="evenodd"/></g></svg>