<svg xmlns="http://www.w3.org/2000/svg" xmlns:xlink="http://www.w3.org/1999/xlink" width="1920" zoomAndPan="magnify" viewBox="0 0 1440 809.999993" height="1080" preserveAspectRatio="xMidYMid meet" version="1.0"><defs><clipPath id="a6e898af6b"><path d="M 448 560 L 1079 560 L 1079 744.941406 L 448 744.941406 Z M 448 560 " clip-rule="nonzero"/></clipPath></defs><rect x="-144" width="1728" fill="#ffffff" y="-80.999999" height="971.999992" fill-opacity="1"/><rect x="-144" width="1728" fill="#feffff" y="-80.999999" height="971.999992" fill-opacity="1"/><path fill="#5bd3c7" d="M 746.226562 470.476562 C 744.035156 470.476562 741.867188 469.578125 740.3125 467.796875 C 737.46875 464.546875 737.777344 459.574219 741.050781 456.730469 L 749.621094 449.203125 C 757.679688 442.148438 769.75 442.207031 777.707031 449.347656 L 785.992188 456.773438 C 789.222656 459.675781 789.507812 464.648438 786.605469 467.859375 C 783.71875 471.089844 778.730469 471.378906 775.515625 468.472656 L 767.234375 461.046875 C 765.167969 459.207031 762.058594 459.1875 759.992188 461.007812 L 751.402344 468.535156 C 749.90625 469.84375 748.066406 470.476562 746.226562 470.476562 " fill-opacity="1" fill-rule="nonzero"/><path fill="#5bd3c7" d="M 763.488281 520.308594 C 759.152344 520.308594 755.636719 516.789062 755.636719 512.453125 L 755.636719 478.863281 C 755.636719 474.527344 759.152344 471.007812 763.488281 471.007812 C 767.824219 471.007812 771.34375 474.527344 771.34375 478.863281 L 771.34375 512.453125 C 771.34375 516.789062 767.824219 520.308594 763.488281 520.308594 " fill-opacity="1" fill-rule="nonzero"/><path fill="#5bd3c7" d="M 1062.957031 228.429688 C 1055.140625 215.074219 1040.128906 209.058594 1022.761719 212.371094 C 1008.421875 215.09375 992.34375 224.585938 981.890625 240.210938 C 980.644531 236.039062 979.230469 232.335938 977.65625 229.332031 C 970.066406 214.890625 950.820312 208.609375 928.625 213.3125 C 911.117188 217.015625 893.09375 227.53125 882.089844 244.179688 C 875.054688 224.667969 858.074219 212.558594 835.777344 211.902344 C 807.695312 211.144531 773.492188 229.289062 763.488281 264.574219 C 753.507812 229.289062 719.429688 211.085938 691.199219 211.902344 C 668.90625 212.558594 651.925781 224.667969 644.890625 244.179688 C 633.886719 227.53125 615.863281 217.015625 598.355469 213.3125 C 576.160156 208.609375 556.910156 214.890625 549.324219 229.332031 C 547.726562 232.335938 546.335938 236.039062 545.089844 240.210938 C 534.636719 224.585938 518.558594 215.09375 504.21875 212.371094 C 486.851562 209.058594 471.839844 215.074219 464.023438 228.429688 C 462.449219 231.109375 461.160156 234.421875 460.097656 238.167969 C 444.265625 196.027344 448.742188 150.085938 473.332031 124.109375 C 507.285156 88.230469 627.789062 109.15625 719.941406 149.125 C 747.617188 161.132812 779.363281 161.132812 807.039062 149.125 C 899.210938 109.15625 1019.710938 88.230469 1053.648438 124.109375 C 1078.234375 150.085938 1082.714844 196.027344 1066.882812 238.167969 C 1065.820312 234.421875 1064.53125 231.109375 1062.957031 228.429688 Z M 1050.457031 321.664062 C 1049.71875 323.484375 1042.96875 328.4375 1026.933594 332.21875 C 1007.601562 336.761719 991.976562 335.863281 986.800781 333.980469 C 989.417969 319.601562 989.828125 295.136719 987.640625 272.59375 C 987.371094 269.871094 987.394531 267.113281 988.066406 264.472656 C 993.324219 244.097656 1010.386719 230.722656 1025.707031 227.796875 C 1030.738281 226.835938 1043.175781 225.730469 1049.394531 236.347656 C 1058.617188 252.136719 1055.019531 310.679688 1050.457031 321.664062 Z M 970.007812 336.476562 C 968.859375 339.15625 958.613281 345.945312 934.292969 349.894531 C 909.664062 353.882812 891.703125 351.570312 886.753906 348.890625 C 886.957031 347.707031 889.636719 307.632812 887.570312 278.28125 C 887.449219 276.703125 887.429688 275.128906 887.613281 273.574219 C 890.640625 248.4375 911.707031 232.949219 931.898438 228.675781 C 946.789062 225.527344 959.59375 228.714844 963.746094 236.652344 C 974.855469 257.761719 975.285156 324.203125 970.007812 336.476562 Z M 871.617188 344.0625 C 871.167969 350.179688 868.628906 357.832031 859.015625 359.671875 C 837.148438 363.84375 808.796875 365.234375 785.007812 363.25 C 779.117188 362.761719 774.660156 360.59375 774.042969 359.242188 C 770.15625 350.734375 769.136719 308.777344 777.871094 271.367188 C 784.332031 243.667969 811.152344 227.570312 833.9375 227.570312 C 834.386719 227.570312 834.859375 227.589844 835.328125 227.589844 C 844.0625 227.859375 864.824219 231.191406 869.203125 256.636719 C 874.972656 290.082031 872.515625 332.015625 871.617188 344.0625 Z M 752.933594 359.242188 C 752.320312 360.59375 747.863281 362.761719 741.949219 363.25 C 718.160156 365.214844 689.832031 363.84375 667.964844 359.671875 C 658.347656 357.832031 655.8125 350.179688 655.363281 344.0625 C 654.464844 332.015625 652.007812 290.082031 657.777344 256.636719 C 662.152344 231.191406 682.917969 227.859375 691.652344 227.589844 C 714.910156 227.039062 742.503906 243.117188 749.109375 271.367188 C 757.84375 308.777344 756.820312 350.734375 752.933594 359.242188 Z M 592.6875 349.894531 C 568.367188 345.945312 558.117188 339.15625 556.972656 336.476562 C 551.675781 324.203125 552.125 257.761719 563.230469 236.652344 C 567.382812 228.714844 580.210938 225.527344 595.082031 228.675781 C 615.269531 232.949219 636.320312 248.4375 639.367188 273.535156 C 639.550781 275.128906 639.53125 276.746094 639.40625 278.339844 C 637.28125 307.058594 638.957031 335.515625 639.695312 345.230469 C 639.777344 346.5 640.023438 347.683594 640.226562 348.890625 C 635.277344 351.570312 617.316406 353.882812 592.6875 349.894531 Z M 500.066406 332.21875 C 484.007812 328.4375 477.257812 323.484375 476.523438 321.664062 C 471.960938 310.679688 468.359375 252.136719 477.585938 236.347656 C 483.804688 225.75 496.222656 226.835938 501.273438 227.796875 C 516.59375 230.722656 533.652344 244.097656 538.910156 264.472656 C 539.585938 267.113281 539.605469 269.871094 539.359375 272.59375 C 537.152344 295.136719 537.5625 319.601562 540.179688 333.980469 C 535.003906 335.882812 519.355469 336.761719 500.066406 332.21875 Z M 1065.0625 113.308594 C 1019.488281 65.175781 878.777344 100.890625 800.78125 134.726562 C 777.070312 144.992188 749.90625 144.992188 726.199219 134.726562 C 648.203125 100.890625 507.492188 65.175781 461.917969 113.308594 C 428.042969 149.125 425.8125 213.355469 456.273438 266.925781 C 455.308594 292.191406 458.789062 319.90625 462 327.699219 C 468.566406 343.511719 505.078125 351.222656 527.539062 351.222656 C 529.746094 351.222656 531.8125 351.164062 533.695312 351.019531 C 538.808594 350.609375 543.042969 349.710938 546.4375 348.320312 C 559.53125 361.960938 595 367.730469 618.726562 367.730469 C 621.9375 367.730469 624.945312 367.628906 627.667969 367.425781 C 635.398438 366.832031 641.472656 365.460938 646.097656 363.394531 C 650.496094 369.410156 656.917969 373.5625 665.019531 375.09375 C 681.21875 378.203125 700.734375 379.839844 719.59375 379.839844 C 727.714844 379.839844 735.710938 379.535156 743.257812 378.921875 C 746.820312 378.613281 757.085938 377.140625 763.488281 370.859375 C 769.890625 377.140625 780.160156 378.613281 783.71875 378.921875 C 791.269531 379.535156 799.265625 379.839844 807.386719 379.839844 C 826.246094 379.839844 845.761719 378.203125 861.960938 375.09375 C 870.0625 373.5625 876.484375 369.410156 880.882812 363.394531 C 885.503906 365.460938 891.582031 366.832031 899.3125 367.425781 C 902.035156 367.628906 905.039062 367.730469 908.25 367.730469 C 931.980469 367.730469 967.429688 361.960938 980.519531 348.320312 C 983.9375 349.710938 988.171875 350.609375 993.285156 351.019531 C 995.167969 351.164062 997.230469 351.222656 999.441406 351.222656 C 1021.902344 351.222656 1058.394531 343.511719 1064.980469 327.699219 C 1068.191406 319.90625 1071.667969 292.191406 1070.707031 266.925781 C 1101.144531 213.355469 1098.9375 149.125 1065.0625 113.308594 " fill-opacity="1" fill-rule="nonzero"/><g clip-path="url(#a6e898af6b)"><path fill="#5bd3c7" d="M 1057.738281 681.414062 C 1050.867188 697.859375 981.851562 707.59375 978.351562 692.96875 C 977.984375 694.277344 977.617188 695.445312 977.246094 696.34375 C 970.703125 711.421875 916.863281 720.257812 891.476562 715.226562 C 884.296875 713.773438 879.367188 711.257812 878.429688 707.492188 L 878.429688 707.226562 C 876.179688 715.65625 870.410156 722.199219 860.46875 724.144531 C 837.230469 728.542969 808.265625 729.789062 784.375 727.804688 C 778.769531 727.335938 769.566406 725.085938 766.90625 719.214844 C 765.066406 715.226562 761.914062 715.226562 760.074219 719.214844 C 757.414062 725.085938 748.210938 727.335938 742.605469 727.804688 C 718.714844 729.789062 689.75 728.542969 666.511719 724.144531 C 656.570312 722.199219 650.800781 715.65625 648.550781 707.226562 L 648.550781 707.492188 C 644.09375 724.714844 558.117188 715.65625 549.730469 696.34375 C 549.363281 695.445312 548.996094 694.277344 548.628906 692.96875 C 545.128906 707.59375 476.113281 697.859375 469.242188 681.414062 C 464.269531 669.40625 459.707031 608.039062 470.816406 589.140625 C 485.789062 563.527344 531.566406 577.683594 544.800781 613.707031 C 545.660156 615.996094 548.953125 615.792969 549.363281 613.335938 C 551.039062 603.742188 553.292969 595.378906 556.277344 589.710938 C 565.339844 572.488281 600.050781 572.324219 623.472656 589.710938 C 634.316406 597.769531 639.796875 612.070312 644.460938 625.753906 C 645.195312 628.003906 648.449219 627.636719 648.652344 625.222656 C 649.023438 620.089844 649.492188 615.117188 650.023438 612.027344 C 659.761719 555.734375 743.75 570.546875 756.738281 626.328125 C 757.824219 630.929688 758.765625 635.695312 759.625 640.460938 C 759.992188 642.671875 761.710938 643.753906 763.488281 643.753906 C 765.269531 643.753906 766.988281 642.671875 767.355469 640.460938 C 768.214844 635.695312 769.15625 630.929688 770.238281 626.328125 C 783.230469 570.546875 867.21875 555.734375 876.957031 612.027344 C 877.222656 613.480469 877.445312 615.425781 877.691406 617.570312 L 877.691406 618.144531 C 877.957031 620.355469 878.183594 622.765625 878.324219 625.222656 C 878.53125 627.636719 881.78125 628.003906 882.519531 625.753906 C 883.726562 622.277344 884.933594 618.777344 886.28125 615.382812 C 890.3125 605.277344 895.40625 595.746094 903.507812 589.710938 C 926.925781 572.324219 961.640625 572.488281 970.703125 589.710938 C 973.6875 595.378906 975.9375 603.742188 977.617188 613.335938 C 978.023438 615.792969 981.339844 615.996094 982.175781 613.707031 C 995.410156 577.683594 1041.191406 563.527344 1056.164062 589.140625 C 1067.269531 608.039062 1062.710938 669.40625 1057.738281 681.414062 Z M 1069.707031 581.183594 C 1061.992188 567.96875 1048.1875 560.378906 1031.882812 560.378906 C 1031.882812 560.378906 1031.882812 560.378906 1031.863281 560.378906 C 1014.515625 560.378906 997.191406 568.621094 984.285156 581.796875 C 977.003906 568.601562 961.785156 561.035156 942.390625 561.035156 C 925.496094 561.035156 907.902344 566.882812 894.15625 577.109375 C 890.230469 580.015625 886.894531 583.390625 884.074219 586.972656 C 873.742188 570.566406 855.742188 560.746094 833.898438 560.746094 C 808.738281 560.746094 779.035156 574.800781 763.511719 601.269531 C 747.964844 574.820312 718.242188 560.746094 693.082031 560.746094 C 671.257812 560.746094 653.257812 570.546875 642.925781 586.972656 C 640.042969 583.328125 636.726562 579.996094 632.839844 577.109375 C 619.074219 566.882812 601.484375 561.035156 584.585938 561.035156 C 565.195312 561.035156 549.976562 568.582031 542.695312 581.816406 C 529.765625 568.601562 512.441406 560.378906 495.117188 560.378906 C 478.792969 560.378906 465.007812 567.96875 457.253906 581.203125 C 442.546875 606.238281 448.847656 673.230469 454.738281 687.425781 C 464.414062 710.621094 511.398438 715.839844 527.109375 715.839844 C 533.777344 715.839844 539.566406 715.226562 544.476562 713.957031 C 567.382812 732.082031 617.683594 732.347656 618.277344 732.347656 C 623.410156 732.347656 633.988281 732.347656 643.722656 729.421875 C 648.941406 734.535156 655.667969 738.03125 663.503906 739.566406 C 680.15625 742.71875 699.957031 744.4375 719.410156 744.4375 C 727.917969 744.4375 736.160156 744.109375 743.894531 743.453125 C 747.351562 743.167969 755.941406 742 763.46875 737.523438 C 771.015625 742 779.609375 743.167969 783.066406 743.453125 C 790.816406 744.109375 799.0625 744.4375 807.570312 744.4375 C 827.023438 744.4375 846.824219 742.71875 863.394531 739.566406 C 871.308594 738.03125 878.058594 734.515625 883.296875 729.378906 C 884.890625 729.851562 886.570312 730.28125 888.328125 730.628906 C 894.179688 731.792969 900.96875 732.367188 908.640625 732.367188 C 924.65625 732.367188 963.214844 728.746094 982.359375 713.917969 C 987.289062 715.203125 993.140625 715.839844 999.871094 715.839844 C 1015.582031 715.839844 1062.566406 710.621094 1072.242188 687.445312 C 1078.132812 673.230469 1084.414062 606.238281 1069.707031 581.183594 " fill-opacity="1" fill-rule="nonzero"/></g></svg>