<svg xmlns="http://www.w3.org/2000/svg" xmlns:xlink="http://www.w3.org/1999/xlink" width="1920" zoomAndPan="magnify" viewBox="0 0 1440 809.999993" height="1080" preserveAspectRatio="xMidYMid meet" version="1.0"><defs><clipPath id="8894308c56"><path d="M 398 42 L 1094 42 L 1094 738.296875 L 398 738.296875 Z M 398 42 " clip-rule="nonzero"/></clipPath></defs><rect x="-144" width="1728" fill="#ffffff" y="-80.999999" height="971.999992" fill-opacity="1"/><rect x="-144" width="1728" fill="#feffff" y="-80.999999" height="971.999992" fill-opacity="1"/><g clip-path="url(#8894308c56)"><path fill="#5bd3c7" d="M 1089.632812 651.644531 C 1030.148438 601.890625 952.40625 566.710938 864.511719 549.695312 C 865.082031 522.242188 869.554688 497.21875 878.613281 470.28125 C 891.90625 430.742188 897.894531 397.996094 896.445312 372.820312 L 1081.53125 187.730469 C 1097.0625 172.199219 1097.0625 146.929688 1081.53125 131.398438 C 1074.03125 123.898438 1064.03125 119.769531 1053.363281 119.769531 C 1042.699219 119.769531 1032.699219 123.898438 1025.199219 131.398438 L 847.683594 308.917969 C 809.464844 300.65625 760.503906 320.851562 745.617188 327.628906 C 726.824219 319.0625 653.976562 289.21875 616.214844 322.097656 C 602.953125 333.640625 595.714844 351.308594 594.6875 374.617188 C 593.597656 399.453125 599.625 431.632812 612.609375 470.253906 C 621.675781 497.21875 626.152344 522.246094 626.71875 549.695312 C 538.828125 566.714844 461.058594 601.90625 401.597656 651.644531 C 397.425781 655.132812 396.871094 661.34375 400.363281 665.515625 C 402.308594 667.84375 405.105469 669.046875 407.921875 669.046875 C 410.152344 669.046875 412.390625 668.292969 414.234375 666.753906 C 470.265625 619.886719 543.53125 586.453125 626.550781 569.789062 C 625.992188 597.535156 626.472656 635.046875 631.242188 666.683594 C 637.597656 708.855469 650.09375 732.078125 669.4375 737.679688 C 671.148438 738.171875 672.960938 738.195312 674.683594 737.742188 C 678.914062 736.628906 715.949219 724.445312 713.054688 640.511719 C 712.117188 613.304688 717.226562 592.9375 727.828125 581.601562 C 735.765625 573.121094 744.339844 572.289062 745.617188 572.210938 C 746.890625 572.289062 755.464844 573.121094 763.402344 581.601562 C 774.007812 592.9375 779.113281 613.304688 778.175781 640.511719 C 775.285156 724.445312 812.316406 736.628906 816.550781 737.742188 C 817.371094 737.957031 818.214844 738.066406 819.054688 738.066406 C 819.976562 738.066406 820.898438 737.9375 821.792969 737.679688 C 841.136719 732.078125 853.632812 708.863281 859.988281 666.699219 C 864.757812 635.058594 865.238281 597.542969 864.679688 569.796875 C 947.695312 586.453125 1020.945312 619.867188 1076.996094 666.75 C 1078.839844 668.292969 1081.082031 669.046875 1083.308594 669.046875 C 1086.125 669.046875 1088.921875 667.84375 1090.871094 665.515625 C 1094.355469 661.347656 1093.804688 655.132812 1089.632812 651.644531 Z M 859.378906 364.515625 L 829.820312 394.074219 C 828.304688 395.589844 827.324219 397.558594 827.027344 399.679688 C 826.628906 402.542969 826.433594 407.25 826.152344 414.65625 C 826.03125 417.925781 825.863281 422.429688 825.671875 425.191406 L 781.8125 469.050781 C 767.074219 483.789062 738.152344 485.71875 721.941406 480.027344 L 848.417969 353.550781 Z M 1039.128906 145.328125 C 1042.910156 141.550781 1047.964844 139.464844 1053.363281 139.464844 C 1058.765625 139.464844 1063.824219 141.546875 1067.601562 145.328125 C 1071.382812 149.109375 1073.460938 154.164062 1073.460938 159.566406 C 1073.460938 164.96875 1071.382812 170.023438 1067.601562 173.800781 L 913.855469 327.550781 L 885.382812 299.074219 Z M 871.453125 313.003906 L 899.929688 341.476562 L 882.0625 359.339844 L 853.589844 330.867188 Z M 819.332031 717.398438 C 812.792969 713.03125 795.960938 696.351562 797.863281 641.191406 C 799.015625 607.703125 792.058594 582.910156 777.179688 567.507812 C 763.09375 552.929688 747.363281 552.507812 745.613281 552.507812 C 743.863281 552.507812 728.132812 552.929688 714.050781 567.507812 C 699.167969 582.910156 692.210938 607.703125 693.363281 641.191406 C 695.269531 696.351562 678.4375 713.03125 671.898438 717.398438 C 657.324219 708.4375 643.742188 664.4375 646.378906 564.46875 C 647.316406 528.8125 642.660156 497.820312 631.28125 463.980469 C 609.359375 398.769531 608.617188 354.851562 629.132812 336.96875 C 656.3125 313.277344 719.261719 336.421875 741.222656 347.335938 C 743.984375 348.714844 747.242188 348.714844 750.007812 347.335938 C 750.519531 347.082031 794.527344 325.40625 830.785156 326.617188 C 829.03125 330.28125 829.660156 334.796875 832.695312 337.832031 L 834.484375 339.625 L 699.164062 474.945312 C 697.316406 476.792969 696.277344 479.296875 696.277344 481.910156 C 696.277344 484.523438 697.316406 487.027344 699.164062 488.875 C 708.074219 497.785156 724.316406 502.632812 741.675781 502.632812 C 761.261719 502.632812 782.265625 496.457031 795.738281 482.984375 L 841.871094 436.851562 C 845.15625 433.566406 845.246094 431.144531 845.835938 415.398438 C 845.960938 412.101562 846.101562 408.261719 846.273438 405.476562 L 873.304688 378.445312 L 875.097656 380.238281 C 875.65625 380.796875 876.277344 381.269531 876.945312 381.671875 C 876.761719 403.273438 871.078125 430.875 859.9375 464 C 848.566406 497.828125 843.914062 528.820312 844.851562 564.496094 C 847.484375 664.449219 833.902344 708.441406 819.332031 717.398438 Z M 422.535156 109.535156 C 424.625 109.535156 426.75 109.265625 428.859375 108.699219 L 438.140625 106.210938 L 450.257812 151.429688 L 424.621094 158.296875 C 418.324219 159.984375 413.054688 164.035156 409.78125 169.703125 C 406.507812 175.371094 405.636719 181.957031 407.324219 188.253906 C 410.246094 199.171875 420.15625 206.386719 430.957031 206.386719 C 433.046875 206.386719 435.167969 206.117188 437.28125 205.554688 L 444.671875 203.574219 L 492.753906 383.015625 C 496.914062 398.53125 509.042969 409.8125 523.550781 413.675781 L 529.066406 434.261719 C 530.25 438.660156 534.226562 441.5625 538.574219 441.5625 C 539.421875 441.5625 540.277344 441.453125 541.132812 441.226562 L 542.90625 440.75 L 563.132812 516.230469 C 564.3125 520.628906 568.292969 523.535156 572.640625 523.535156 C 573.484375 523.535156 574.34375 523.421875 575.195312 523.195312 C 580.449219 521.789062 583.570312 516.386719 582.160156 511.132812 L 561.9375 435.652344 L 563.714844 435.175781 C 566.238281 434.5 568.390625 432.847656 569.695312 430.585938 C 571 428.324219 571.355469 425.632812 570.679688 423.109375 L 565.167969 402.535156 C 575.804688 391.933594 580.664062 376.09375 576.503906 360.574219 L 528.421875 181.132812 L 535.8125 179.152344 C 542.109375 177.464844 547.378906 173.414062 550.652344 167.746094 C 553.925781 162.078125 554.796875 155.488281 553.109375 149.191406 C 551.421875 142.898438 547.371094 137.628906 541.703125 134.355469 C 536.035156 131.082031 529.445312 130.210938 523.152344 131.898438 L 497.515625 138.765625 L 485.398438 93.550781 L 494.679688 91.0625 C 500.976562 89.375 506.246094 85.324219 509.519531 79.65625 C 512.792969 73.988281 513.664062 67.398438 511.976562 61.101562 C 508.488281 48.074219 495.054688 40.3125 482.019531 43.804688 L 416.195312 61.441406 C 409.898438 63.128906 404.632812 67.179688 401.359375 72.847656 C 398.085938 78.515625 397.214844 85.105469 398.898438 91.402344 C 401.828125 102.316406 411.734375 109.535156 422.535156 109.535156 Z M 549.101562 418.695312 L 545.546875 419.648438 L 544.054688 414.085938 C 544.65625 413.953125 545.253906 413.828125 545.851562 413.667969 C 546.445312 413.511719 547.03125 413.328125 547.617188 413.148438 Z M 513.40625 201.199219 L 494.710938 206.207031 C 489.457031 207.617188 486.339844 213.015625 487.746094 218.269531 C 488.925781 222.671875 492.90625 225.574219 497.253906 225.574219 C 498.097656 225.574219 498.957031 225.464844 499.808594 225.238281 L 518.503906 220.226562 L 521.136719 230.046875 L 513.117188 232.195312 C 507.863281 233.605469 504.746094 239.003906 506.15625 244.261719 C 507.335938 248.660156 511.3125 251.5625 515.664062 251.5625 C 516.507812 251.5625 517.363281 251.453125 518.21875 251.222656 L 526.234375 249.074219 L 528.867188 258.894531 L 510.171875 263.902344 C 504.917969 265.3125 501.800781 270.714844 503.207031 275.96875 C 504.386719 280.367188 508.367188 283.269531 512.714844 283.269531 C 513.558594 283.269531 514.417969 283.160156 515.269531 282.933594 L 533.964844 277.921875 L 536.59375 287.746094 L 528.578125 289.890625 C 523.324219 291.296875 520.207031 296.699219 521.613281 301.953125 C 522.792969 306.355469 526.773438 309.257812 531.121094 309.257812 C 531.964844 309.257812 532.824219 309.148438 533.675781 308.917969 L 541.691406 306.773438 L 544.324219 316.59375 L 525.628906 321.601562 C 520.375 323.007812 517.257812 328.410156 518.664062 333.664062 C 519.847656 338.066406 523.824219 340.964844 528.171875 340.964844 C 529.019531 340.964844 529.875 340.855469 530.730469 340.628906 L 549.421875 335.621094 L 552.054688 345.441406 L 544.035156 347.589844 C 538.78125 348.996094 535.664062 354.394531 537.070312 359.652344 C 538.25 364.050781 542.230469 366.953125 546.578125 366.953125 C 547.421875 366.953125 548.28125 366.84375 549.132812 366.617188 L 557.152344 364.46875 L 557.472656 365.675781 C 560.851562 378.273438 553.347656 391.269531 540.75 394.644531 C 528.148438 398.015625 515.15625 390.515625 511.78125 377.917969 L 463.703125 198.472656 L 509.394531 186.230469 Z M 528.25 150.921875 C 528.675781 150.808594 529.082031 150.761719 529.457031 150.761719 C 530.53125 150.761719 531.378906 151.140625 531.855469 151.414062 C 532.496094 151.785156 533.644531 152.652344 534.082031 154.289062 C 534.519531 155.929688 533.964844 157.25 533.589844 157.894531 C 533.21875 158.539062 532.351562 159.683594 530.714844 160.121094 L 432.183594 186.523438 C 429.6875 187.191406 427.019531 185.648438 426.351562 183.15625 C 425.910156 181.519531 426.46875 180.195312 426.839844 179.550781 C 427.214844 178.90625 428.082031 177.761719 429.71875 177.324219 Z M 478.488281 143.863281 L 469.285156 146.328125 L 457.171875 101.113281 L 466.371094 98.648438 Z M 418.417969 82.695312 C 418.789062 82.054688 419.660156 80.910156 421.292969 80.46875 L 487.117188 62.832031 C 487.511719 62.726562 487.910156 62.675781 488.304688 62.675781 C 490.40625 62.675781 492.386719 64.101562 492.949219 66.199219 C 493.390625 67.835938 492.832031 69.160156 492.457031 69.804688 C 492.085938 70.449219 491.21875 71.59375 489.582031 72.03125 L 423.761719 89.671875 C 421.269531 90.339844 418.597656 88.796875 417.929688 86.300781 C 417.488281 84.664062 418.046875 83.339844 418.417969 82.695312 Z M 418.417969 82.695312 " fill-opacity="1" fill-rule="nonzero"/></g></svg>