<svg xmlns="http://www.w3.org/2000/svg" xmlns:xlink="http://www.w3.org/1999/xlink" width="1920" zoomAndPan="magnify" viewBox="0 0 1440 809.999993" height="1080" preserveAspectRatio="xMidYMid meet" version="1.0"><rect x="-144" width="1728" fill="#ffffff" y="-80.999999" height="971.999992" fill-opacity="1"/><rect x="-144" width="1728" fill="#feffff" y="-80.999999" height="971.999992" fill-opacity="1"/><path fill="#5bd3c7" d="M 583.261719 671.667969 C 582.59375 672.042969 581.234375 672.472656 579.835938 671.445312 C 542.914062 644.511719 532.628906 575.703125 545.34375 525.359375 C 550.320312 505.753906 545.167969 484.429688 531.566406 468.320312 C 514.117188 447.625 504.511719 420.53125 504.511719 392.03125 C 504.511719 388.140625 501.355469 384.980469 497.460938 384.980469 C 493.566406 384.980469 490.40625 388.140625 490.40625 392.03125 C 490.40625 423.855469 501.199219 454.179688 520.785156 477.417969 C 531.457031 490.058594 535.527344 506.691406 531.667969 521.898438 C 514.675781 589.042969 536.742188 657.46875 571.515625 682.84375 C 583.390625 691.5 599.964844 682.382812 599.09375 667.644531 C 586.09375 460.304688 742.09375 446.398438 742.09375 646.824219 C 742.09375 653.859375 741.882812 660.867188 741.46875 667.65625 C 740.597656 682.390625 757.222656 691.480469 769.039062 682.84375 C 789.894531 667.648438 805.425781 638.6875 811.652344 603.390625 C 812.332031 599.554688 809.769531 595.894531 805.9375 595.214844 C 802.027344 594.566406 798.4375 597.109375 797.765625 600.9375 C 792.238281 632.207031 778.398438 658.570312 760.726562 671.445312 C 759.332031 672.480469 757.972656 672.042969 757.300781 671.667969 C 754.316406 670.027344 756.199219 669.6875 756.199219 646.824219 C 756.199219 554.367188 720.871094 489.796875 670.296875 489.796875 C 619.695312 489.796875 584.355469 554.367188 584.355469 646.824219 C 584.355469 669.890625 586.265625 670.019531 583.261719 671.667969 Z M 583.261719 671.667969 " fill-opacity="1" fill-rule="nonzero"/><path fill="#5bd3c7" d="M 694.429688 276.113281 C 679.066406 283.027344 661.460938 283.011719 646.152344 276.117188 C 639.210938 272.980469 631.898438 270.601562 624.425781 269.046875 C 620.667969 268.242188 616.882812 270.699219 616.085938 274.515625 C 615.296875 278.328125 617.738281 282.0625 621.558594 282.855469 C 628.015625 284.203125 634.34375 286.261719 640.347656 288.972656 C 659.359375 297.550781 681.179688 297.542969 700.226562 288.972656 C 711.933594 283.6875 724.324219 281.011719 737.070312 281.011719 C 815.734375 281.011719 862.835938 379.550781 819.796875 452.898438 C 808.746094 449.152344 796.96875 449.890625 786.570312 455.039062 C 753.414062 471.4375 754.976562 516.253906 782.273438 532.363281 C 777.519531 558.921875 805.082031 579.210938 829.183594 567.304688 C 847.179688 558.386719 851.839844 535.089844 841.867188 520.660156 C 855.195312 502.214844 852.761719 475.128906 832.199219 459.636719 C 880.207031 377.144531 826.726562 266.90625 737.070312 266.90625 C 722.3125 266.90625 707.96875 270.003906 694.429688 276.113281 Z M 827.632812 515.726562 C 824.941406 518.476562 824.949219 522.878906 827.660156 525.613281 C 836.515625 534.542969 833.539062 549.402344 822.917969 554.65625 C 807.449219 562.328125 790.628906 546.757812 797.207031 531.292969 C 798.792969 527.539062 796.890625 523.175781 792.972656 521.851562 C 787.453125 519.984375 782.246094 515.003906 779.050781 508.523438 C 771.472656 493.191406 777.515625 475.25 792.824219 467.683594 C 807.632812 460.34375 825.511719 466.769531 832.964844 481.835938 C 838.542969 493.125 836.390625 506.746094 827.632812 515.726562 Z M 827.632812 515.726562 " fill-opacity="1" fill-rule="nonzero"/><path fill="#5bd3c7" d="M 530.347656 358.421875 C 537.84375 371.933594 552.28125 379.195312 566.59375 379.195312 C 605.785156 379.195312 625.730469 328.152344 593.796875 303.828125 C 598.824219 292.949219 597.933594 276.875 588.976562 264.136719 C 566.113281 231.65625 515.976562 248.292969 512.089844 285.011719 C 489.894531 280.203125 466.085938 295.03125 461.652344 319 L 461.652344 318.996094 C 454.082031 359.8125 501.40625 383.699219 530.347656 358.421875 Z M 517.113281 301.847656 C 522.972656 304.972656 529.558594 298.882812 526.867188 292.78125 C 525.992188 290.789062 525.792969 287.867188 526.332031 284.960938 C 530.707031 261.335938 562.640625 251.257812 577.441406 272.253906 C 585.035156 283.050781 583.503906 296.316406 578.890625 301.101562 C 575.597656 304.519531 576.550781 310.191406 580.828125 312.308594 C 591.519531 317.621094 597.242188 329.066406 595.074219 340.773438 C 592.171875 356.46875 577.550781 367.214844 562.222656 364.730469 C 550.496094 362.820312 541.882812 354.617188 539.742188 343.332031 C 538.519531 336.972656 530.140625 335.480469 526.792969 340.96875 C 516.042969 358.523438 491.214844 359.003906 480.074219 343.160156 C 463.421875 319.460938 490.097656 287.558594 517.113281 301.847656 Z M 517.113281 301.847656 " fill-opacity="1" fill-rule="nonzero"/><path fill="#5bd3c7" d="M 762.765625 372.191406 C 749.871094 368.09375 739.652344 352.359375 736.722656 332.105469 C 735.554688 324.070312 723.90625 324.101562 722.761719 332.109375 C 719.84375 352.359375 709.628906 368.089844 696.726562 372.191406 C 690.210938 374.273438 690.1875 383.535156 696.707031 385.628906 C 709.429688 389.71875 719.898438 405.828125 722.761719 425.71875 C 723.90625 433.726562 735.550781 433.757812 736.722656 425.722656 C 739.605469 405.832031 750.074219 389.71875 762.785156 385.628906 C 769.304688 383.535156 769.285156 374.273438 762.765625 372.191406 Z M 729.75 400.113281 C 725.617188 391.394531 720.054688 384.128906 713.523438 378.976562 C 720.097656 373.890625 725.636719 366.703125 729.75 357.976562 C 733.867188 366.703125 739.402344 373.894531 745.96875 378.976562 C 739.449219 384.128906 733.882812 391.394531 729.75 400.113281 Z M 729.75 400.113281 " fill-opacity="1" fill-rule="nonzero"/><path fill="#5bd3c7" d="M 860.445312 243.234375 C 860.445312 226.394531 846.742188 212.699219 829.910156 212.699219 C 813.066406 212.699219 799.363281 226.394531 799.363281 243.234375 C 799.363281 260.074219 813.066406 273.769531 829.910156 273.769531 C 846.742188 273.769531 860.445312 260.074219 860.445312 243.234375 Z M 813.46875 243.234375 C 813.46875 234.175781 820.84375 226.804688 829.910156 226.804688 C 838.964844 226.804688 846.339844 234.175781 846.339844 243.234375 C 846.339844 252.292969 838.964844 259.664062 829.910156 259.664062 C 820.84375 259.664062 813.46875 252.292969 813.46875 243.234375 Z M 813.46875 243.234375 " fill-opacity="1" fill-rule="nonzero"/><path fill="#5bd3c7" d="M 588.625 220.480469 C 592.457031 219.746094 594.953125 216.050781 594.21875 212.226562 L 587.699219 178.34375 C 586.953125 174.515625 583.28125 172.011719 579.441406 172.75 C 575.613281 173.484375 573.113281 177.179688 573.847656 181.003906 L 580.371094 214.890625 C 581.113281 218.742188 584.835938 221.21875 588.625 220.480469 Z M 588.625 220.480469 " fill-opacity="1" fill-rule="nonzero"/><path fill="#5bd3c7" d="M 521.117188 233.398438 C 524.9375 232.664062 527.445312 228.96875 526.710938 225.140625 L 520.199219 191.257812 C 519.464844 187.433594 515.746094 184.921875 511.941406 185.667969 C 508.121094 186.402344 505.613281 190.097656 506.351562 193.921875 L 512.859375 227.804688 C 513.59375 231.652344 517.320312 234.136719 521.117188 233.398438 Z M 521.117188 233.398438 " fill-opacity="1" fill-rule="nonzero"/><path fill="#5bd3c7" d="M 553.535156 227.066406 C 557.984375 227.066406 561.304688 223.023438 560.46875 218.683594 L 553.949219 184.796875 C 553.214844 180.972656 549.511719 178.464844 545.691406 179.207031 C 541.863281 179.941406 539.363281 183.636719 540.101562 187.460938 L 546.621094 221.34375 C 547.273438 224.71875 550.21875 227.066406 553.535156 227.066406 Z M 553.535156 227.066406 " fill-opacity="1" fill-rule="nonzero"/><path fill="#5bd3c7" d="M 469.640625 185.007812 L 479.570312 236.648438 C 480.304688 240.496094 484.027344 242.980469 487.828125 242.242188 C 491.65625 241.507812 494.152344 237.8125 493.417969 233.988281 L 483.609375 182.980469 L 604.746094 159.703125 L 614.5625 210.703125 C 615.210938 214.078125 618.160156 216.421875 621.476562 216.421875 C 625.925781 216.421875 629.242188 212.382812 628.410156 208.039062 L 618.929688 158.78125 C 622.199219 159.109375 625.441406 159.777344 628.558594 160.882812 L 657.945312 171.296875 C 667.175781 174.589844 677.175781 175.34375 686.828125 173.488281 L 947.53125 123.375 C 959.925781 120.996094 966.828125 107.121094 960.546875 96.050781 C 953.476562 83.597656 940.597656 76.820312 931.03125 73.324219 C 922.710938 70.292969 913.71875 69.476562 905.058594 70.941406 C 836.042969 82.644531 770.21875 101.335938 708.628906 119.042969 C 703.191406 120.574219 697.582031 120.957031 691.96875 120.191406 L 623.195312 110.804688 C 617.222656 109.992188 611.199219 110.160156 605.292969 111.292969 L 465.859375 138.09375 C 453.011719 140.566406 444.570312 153.019531 447.042969 165.863281 C 449.058594 176.382812 457.984375 184.683594 469.640625 185.007812 Z M 468.523438 151.945312 L 607.957031 125.140625 C 612.207031 124.328125 616.730469 124.164062 621.285156 124.785156 L 690.058594 134.167969 C 697.628906 135.199219 705.15625 134.679688 712.449219 132.625 C 774.722656 114.71875 839.0625 96.4375 907.410156 84.84375 C 913.671875 83.789062 920.183594 84.390625 926.199219 86.578125 C 933.535156 89.261719 943.328125 94.289062 948.277344 103.011719 C 949.730469 105.582031 947.878906 108.949219 944.871094 109.523438 L 684.164062 159.640625 C 676.992188 161.015625 669.550781 160.453125 662.664062 158.003906 L 633.269531 147.585938 C 623.4375 144.109375 612.339844 143.875 604.386719 145.410156 L 472.148438 170.820312 C 466.628906 171.824219 461.851562 168.183594 460.890625 163.199219 C 459.890625 157.996094 463.316406 152.949219 468.523438 151.945312 Z M 468.523438 151.945312 " fill-opacity="1" fill-rule="nonzero"/></svg>