<svg xmlns="http://www.w3.org/2000/svg" xmlns:xlink="http://www.w3.org/1999/xlink" width="1920" zoomAndPan="magnify" viewBox="0 0 1440 809.999993" height="1080" preserveAspectRatio="xMidYMid meet" version="1.0"><defs><clipPath id="c332dc7330"><path d="M 508 234 L 928 234 L 928 709.609375 L 508 709.609375 Z M 508 234 " clip-rule="nonzero"/></clipPath><clipPath id="e6c8e83a79"><path d="M 574 50.359375 L 707 50.359375 L 707 183 L 574 183 Z M 574 50.359375 " clip-rule="nonzero"/></clipPath></defs><rect x="-144" width="1728" fill="#ffffff" y="-80.999999" height="971.999992" fill-opacity="1"/><rect x="-144" width="1728" fill="#feffff" y="-80.999999" height="971.999992" fill-opacity="1"/><g clip-path="url(#c332dc7330)"><path fill="#5bd3c7" d="M 927.347656 347.550781 C 926.570312 306.867188 907.34375 276.394531 880.652344 258.871094 C 854.058594 241.144531 821.347656 234.65625 790.125 234.601562 C 763.90625 234.648438 738.660156 239.230469 717.988281 247.269531 C 697.308594 239.214844 672.054688 234.65625 645.820312 234.601562 C 614.621094 234.65625 581.902344 241.144531 555.308594 258.871094 C 528.609375 276.386719 509.371094 306.867188 508.597656 347.550781 L 508.597656 347.71875 C 508.542969 350.222656 508.523438 352.761719 508.492188 355.386719 C 508.152344 405.386719 522.96875 432.40625 535.574219 454.269531 C 547.804688 476.460938 558.167969 493.910156 558.507812 541.269531 C 558.570312 605.542969 568.992188 646.5 584.433594 672.886719 C 599.621094 699.085938 621.230469 710.445312 639.40625 710.445312 L 639.730469 710.445312 C 644.828125 710.445312 649.59375 709.644531 654.046875 708.011719 C 660.855469 705.554688 666.019531 700.289062 668.925781 695.167969 C 671.90625 689.964844 673.425781 684.691406 674.519531 679.253906 C 676.640625 668.378906 676.996094 656.332031 677.335938 642.980469 C 677.902344 616.425781 678.242188 585.085938 686.257812 558.53125 C 689.625 547.132812 693.753906 535.054688 699.222656 526.953125 C 704.789062 519.070312 709.378906 515.375 717.980469 514.40625 C 726.578125 515.375 731.148438 519.070312 736.730469 526.953125 C 742.183594 535.046875 746.320312 547.132812 749.679688 558.53125 C 760.34375 593.546875 757.234375 636.113281 759.691406 666.503906 C 760.710938 676.828125 761.914062 686.039062 767.027344 695.167969 C 769.933594 700.296875 775.082031 705.554688 782.011719 708.042969 C 786.328125 709.605469 791.117188 710.445312 796.214844 710.445312 C 814.457031 710.574219 836.238281 699.246094 851.523438 672.886719 C 866.953125 646.5 877.355469 605.542969 877.429688 541.269531 C 877.777344 493.910156 888.132812 476.460938 900.367188 454.269531 C 912.953125 432.425781 927.839844 405.386719 927.460938 355.386719 C 927.46875 352.785156 927.414062 350.175781 927.347656 347.550781 Z M 872.40625 438.492188 C 859.601562 460.691406 844.960938 488.871094 845.300781 541.269531 C 845.367188 602.085938 835.058594 637.726562 823.835938 656.589844 C 812.46875 675.527344 801.691406 678.1875 796.222656 678.324219 C 795.535156 678.324219 794.921875 678.265625 794.398438 678.1875 C 793.992188 677.199219 793.386719 675.40625 792.957031 672.984375 C 791.5625 666.277344 791.019531 655.1875 790.730469 642.203125 C 790.042969 616.070312 790.195312 581.960938 780.460938 549.308594 C 776.859375 537.4375 772.375 522.621094 763.496094 509.15625 C 754.957031 495.777344 739.617188 483.265625 718.972656 482.230469 L 717.980469 482.1875 L 717.011719 482.230469 C 696.363281 483.265625 681.019531 495.777344 672.488281 509.15625 C 663.613281 522.613281 659.121094 537.429688 655.515625 549.308594 C 642.785156 592.203125 646.757812 638.335938 644.230469 664.0625 C 643.722656 671.019531 642.394531 676.214844 641.574219 678.195312 C 641.0625 678.273438 640.441406 678.332031 639.746094 678.332031 C 634.292969 678.195312 623.484375 675.535156 612.125 656.59375 C 600.914062 637.710938 590.597656 602.09375 590.675781 541.277344 C 591.015625 488.910156 576.359375 460.699219 563.589844 438.515625 C 551.179688 416.03125 541.015625 399.988281 540.644531 355.394531 C 540.644531 353.246094 540.6875 350.917969 540.734375 348.40625 C 541.859375 316.828125 554.273438 298.632812 573.203125 285.578125 C 587.632812 275.8125 606.59375 270.011719 626.546875 267.789062 L 660.25 267.34375 C 679.816406 268.855469 698.210938 273.308594 711.386719 279.308594 L 718.003906 282.289062 L 724.589844 279.324219 C 741.019531 271.867188 765.410156 266.683594 790.148438 266.730469 C 816.839844 266.683594 843.773438 272.699219 862.785156 285.5625 C 881.734375 298.632812 894.121094 316.816406 895.25 348.429688 C 895.324219 350.871094 895.371094 353.210938 895.371094 355.394531 C 894.96875 399.988281 884.828125 416.015625 872.40625 438.492188 Z M 872.40625 438.492188 " fill-opacity="1" fill-rule="nonzero"/></g><path fill="#5bd3c7" d="M 611.285156 182.140625 C 550.414062 182.140625 502.789062 130.0625 502.789062 63.488281 C 502.789062 130.0625 455.171875 182.140625 394.277344 182.140625 C 455.171875 182.140625 502.789062 234.207031 502.789062 300.804688 C 502.796875 234.207031 550.421875 182.140625 611.285156 182.140625 Z M 611.285156 182.140625 " fill-opacity="1" fill-rule="nonzero"/><g clip-path="url(#e6c8e83a79)"><path fill="#5bd3c7" d="M 640.417969 182.398438 C 640.417969 145.4375 669.210938 116.539062 706.015625 116.539062 C 669.210938 116.539062 640.417969 87.632812 640.417969 50.683594 C 640.417969 87.632812 611.640625 116.539062 574.828125 116.539062 C 611.640625 116.539062 640.417969 145.445312 640.417969 182.398438 Z M 640.417969 182.398438 " fill-opacity="1" fill-rule="nonzero"/></g></svg>