<svg xmlns="http://www.w3.org/2000/svg" xmlns:xlink="http://www.w3.org/1999/xlink" width="1920" zoomAndPan="magnify" viewBox="0 0 1440 809.999993" height="1080" preserveAspectRatio="xMidYMid meet" version="1.0"><defs><clipPath id="bd88644a45"><path d="M 555 114.101562 L 656 114.101562 L 656 233 L 555 233 Z M 555 114.101562 " clip-rule="nonzero"/></clipPath><clipPath id="c421bb4743"><path d="M 379.363281 169 L 931.363281 169 L 931.363281 696.101562 L 379.363281 696.101562 Z M 379.363281 169 " clip-rule="nonzero"/></clipPath></defs><rect x="-144" width="1728" fill="#ffffff" y="-80.999999" height="971.999992" fill-opacity="1"/><rect x="-144" width="1728" fill="#feffff" y="-80.999999" height="971.999992" fill-opacity="1"/><g clip-path="url(#bd88644a45)"><path fill="#000000" d="M 655.363281 194.378906 L 630.28125 194.378906 L 630.28125 120.375 C 630.28125 116.910156 627.476562 114.101562 624.011719 114.101562 C 620.550781 114.101562 617.742188 116.910156 617.742188 120.375 L 617.742188 194.378906 L 592.664062 194.378906 L 592.664062 145.460938 C 592.664062 142 589.859375 139.191406 586.394531 139.191406 C 582.933594 139.191406 580.125 142 580.125 145.460938 L 580.125 194.378906 L 555.046875 194.378906 L 555.046875 232.007812 L 655.363281 232.007812 Z M 655.363281 194.378906 " fill-opacity="1" fill-rule="nonzero"/></g><path fill="#000000" d="M 605.203125 313.539062 L 605.203125 445.242188 L 705.519531 445.242188 L 705.519531 244.550781 L 517.429688 244.550781 L 517.429688 307.265625 L 598.933594 307.265625 C 602.398438 307.265625 605.203125 310.074219 605.203125 313.539062 Z M 661.632812 263.367188 L 686.710938 263.367188 L 686.710938 288.453125 L 661.632812 288.453125 Z M 661.632812 300.996094 L 686.710938 300.996094 L 686.710938 326.082031 L 661.632812 326.082031 Z M 661.632812 338.625 L 686.710938 338.625 L 686.710938 363.710938 L 661.632812 363.710938 Z M 661.632812 376.253906 L 686.710938 376.253906 L 686.710938 401.339844 L 661.632812 401.339844 Z M 624.011719 263.367188 L 649.09375 263.367188 L 649.09375 288.453125 L 624.011719 288.453125 Z M 624.011719 300.996094 L 649.09375 300.996094 L 649.09375 326.082031 L 624.011719 326.082031 Z M 624.011719 338.625 L 649.09375 338.625 L 649.09375 363.710938 L 624.011719 363.710938 Z M 624.011719 376.253906 L 649.09375 376.253906 L 649.09375 401.339844 L 624.011719 401.339844 Z M 573.855469 288.453125 L 548.777344 288.453125 L 548.777344 263.367188 L 573.855469 263.367188 Z M 586.394531 263.367188 L 611.472656 263.367188 L 611.472656 288.453125 L 586.394531 288.453125 Z M 586.394531 263.367188 " fill-opacity="1" fill-rule="nonzero"/><path fill="#000000" d="M 755.675781 131.664062 L 855.992188 131.664062 L 855.992188 156.75 L 755.675781 156.75 Z M 755.675781 131.664062 " fill-opacity="1" fill-rule="nonzero"/><g clip-path="url(#c421bb4743)"><path fill="#000000" d="M 924.957031 683.558594 L 893.609375 683.558594 L 893.609375 169.292969 L 718.058594 169.292969 L 718.058594 445.242188 L 799.5625 445.242188 C 803.027344 445.242188 805.832031 448.046875 805.832031 451.511719 L 805.832031 683.558594 L 793.292969 683.558594 L 793.292969 457.785156 L 605.203125 457.785156 L 605.203125 683.558594 L 592.664062 683.558594 L 592.664062 319.808594 L 417.113281 319.808594 L 417.113281 683.558594 L 385.765625 683.558594 C 382.300781 683.558594 379.496094 686.367188 379.496094 689.832031 C 379.496094 693.296875 382.300781 696.101562 385.765625 696.101562 L 924.957031 696.101562 C 928.421875 696.101562 931.226562 693.296875 931.226562 689.832031 C 931.226562 686.367188 928.421875 683.558594 924.957031 683.558594 Z M 761.945312 413.882812 L 736.867188 413.882812 L 736.867188 200.652344 L 761.945312 200.652344 Z M 799.5625 413.882812 L 774.484375 413.882812 L 774.484375 200.652344 L 799.5625 200.652344 Z M 849.722656 200.652344 L 874.800781 200.652344 L 874.800781 589.488281 L 849.722656 589.488281 Z M 812.105469 200.652344 L 837.183594 200.652344 L 837.183594 413.882812 L 812.105469 413.882812 Z M 636.550781 489.140625 L 761.945312 489.140625 L 761.945312 514.226562 L 636.550781 514.226562 Z M 636.550781 526.773438 L 761.945312 526.773438 L 761.945312 551.859375 L 636.550781 551.859375 Z M 636.550781 564.402344 L 761.945312 564.402344 L 761.945312 589.488281 L 636.550781 589.488281 Z M 636.550781 602.03125 L 761.945312 602.03125 L 761.945312 627.117188 L 636.550781 627.117188 Z M 548.777344 351.167969 L 573.855469 351.167969 L 573.855469 401.339844 L 548.777344 401.339844 Z M 548.777344 413.882812 L 573.855469 413.882812 L 573.855469 464.054688 L 548.777344 464.054688 Z M 548.777344 476.597656 L 573.855469 476.597656 L 573.855469 526.773438 L 548.777344 526.773438 Z M 548.777344 539.316406 L 573.855469 539.316406 L 573.855469 589.488281 L 548.777344 589.488281 Z M 548.777344 602.03125 L 573.855469 602.03125 L 573.855469 652.203125 L 548.777344 652.203125 Z M 511.160156 351.167969 L 536.238281 351.167969 L 536.238281 401.339844 L 511.160156 401.339844 Z M 511.160156 413.882812 L 536.238281 413.882812 L 536.238281 464.054688 L 511.160156 464.054688 Z M 511.160156 476.597656 L 536.238281 476.597656 L 536.238281 526.773438 L 511.160156 526.773438 Z M 511.160156 539.316406 L 536.238281 539.316406 L 536.238281 589.488281 L 511.160156 589.488281 Z M 511.160156 602.03125 L 536.238281 602.03125 L 536.238281 652.203125 L 511.160156 652.203125 Z M 473.542969 351.167969 L 498.621094 351.167969 L 498.621094 401.339844 L 473.542969 401.339844 Z M 473.542969 413.882812 L 498.621094 413.882812 L 498.621094 464.054688 L 473.542969 464.054688 Z M 473.542969 476.597656 L 498.621094 476.597656 L 498.621094 526.773438 L 473.542969 526.773438 Z M 473.542969 539.316406 L 498.621094 539.316406 L 498.621094 589.488281 L 473.542969 589.488281 Z M 473.542969 602.03125 L 498.621094 602.03125 L 498.621094 652.203125 L 473.542969 652.203125 Z M 435.921875 351.167969 L 461 351.167969 L 461 401.339844 L 435.921875 401.339844 Z M 435.921875 413.882812 L 461 413.882812 L 461 464.054688 L 435.921875 464.054688 Z M 435.921875 476.597656 L 461 476.597656 L 461 526.773438 L 435.921875 526.773438 Z M 435.921875 539.316406 L 461 539.316406 L 461 589.488281 L 435.921875 589.488281 Z M 435.921875 602.03125 L 461 602.03125 L 461 652.203125 L 435.921875 652.203125 Z M 435.921875 602.03125 " fill-opacity="1" fill-rule="nonzero"/></g></svg>