<svg xmlns="http://www.w3.org/2000/svg" xmlns:xlink="http://www.w3.org/1999/xlink" width="1920" zoomAndPan="magnify" viewBox="0 0 1440 809.999993" height="1080" preserveAspectRatio="xMidYMid meet" version="1.0"><defs><clipPath id="e1f42d54ce"><path d="M 410.066406 137 L 976.316406 137 L 976.316406 678 L 410.066406 678 Z M 410.066406 137 " clip-rule="nonzero"/></clipPath></defs><rect x="-144" width="1728" fill="#ffffff" y="-80.999999" height="971.999992" fill-opacity="1"/><rect x="-144" width="1728" fill="#feffff" y="-80.999999" height="971.999992" fill-opacity="1"/><path fill="#5bd3c7" d="M 693.273438 163.347656 L 667.539062 163.347656 L 667.539062 87.433594 C 667.539062 83.878906 664.660156 81 661.105469 81 C 657.554688 81 654.671875 83.878906 654.671875 87.433594 L 654.671875 163.347656 L 628.941406 163.347656 L 628.941406 113.167969 C 628.941406 109.613281 626.0625 106.734375 622.507812 106.734375 C 618.953125 106.734375 616.074219 109.613281 616.074219 113.167969 L 616.074219 163.347656 L 590.339844 163.347656 L 590.339844 201.945312 L 693.273438 201.945312 Z M 693.273438 163.347656 " fill-opacity="1" fill-rule="nonzero"/><path fill="#5bd3c7" d="M 641.808594 285.578125 L 641.808594 420.679688 L 744.738281 420.679688 L 744.738281 214.8125 L 551.742188 214.8125 L 551.742188 279.144531 L 635.375 279.144531 C 638.925781 279.144531 641.808594 282.027344 641.808594 285.578125 Z M 699.707031 234.113281 L 725.441406 234.113281 L 725.441406 259.847656 L 699.707031 259.847656 Z M 699.707031 272.710938 L 725.441406 272.710938 L 725.441406 298.445312 L 699.707031 298.445312 Z M 699.707031 311.3125 L 725.441406 311.3125 L 725.441406 337.046875 L 699.707031 337.046875 Z M 699.707031 349.914062 L 725.441406 349.914062 L 725.441406 375.644531 L 699.707031 375.644531 Z M 661.105469 234.113281 L 686.839844 234.113281 L 686.839844 259.847656 L 661.105469 259.847656 Z M 661.105469 272.710938 L 686.839844 272.710938 L 686.839844 298.445312 L 661.105469 298.445312 Z M 661.105469 311.3125 L 686.839844 311.3125 L 686.839844 337.046875 L 661.105469 337.046875 Z M 661.105469 349.914062 L 686.839844 349.914062 L 686.839844 375.644531 L 661.105469 375.644531 Z M 609.640625 259.847656 L 583.90625 259.847656 L 583.90625 234.113281 L 609.640625 234.113281 Z M 622.507812 234.113281 L 648.242188 234.113281 L 648.242188 259.847656 L 622.507812 259.847656 Z M 622.507812 234.113281 " fill-opacity="1" fill-rule="nonzero"/><path fill="#5bd3c7" d="M 796.207031 99.011719 L 899.140625 99.011719 L 899.140625 124.746094 L 796.207031 124.746094 Z M 796.207031 99.011719 " fill-opacity="1" fill-rule="nonzero"/><g clip-path="url(#e1f42d54ce)"><path fill="#5bd3c7" d="M 969.90625 665.144531 L 937.738281 665.144531 L 937.738281 137.613281 L 757.605469 137.613281 L 757.605469 420.679688 L 841.238281 420.679688 C 844.792969 420.679688 847.671875 423.558594 847.671875 427.113281 L 847.671875 665.144531 L 834.804688 665.144531 L 834.804688 433.546875 L 641.808594 433.546875 L 641.808594 665.144531 L 628.941406 665.144531 L 628.941406 292.011719 L 448.808594 292.011719 L 448.808594 665.144531 L 416.640625 665.144531 C 413.085938 665.144531 410.207031 668.023438 410.207031 671.578125 C 410.207031 675.132812 413.085938 678.011719 416.640625 678.011719 L 969.90625 678.011719 C 973.460938 678.011719 976.339844 675.132812 976.339844 671.578125 C 976.339844 668.023438 973.460938 665.144531 969.90625 665.144531 Z M 802.640625 388.511719 L 776.90625 388.511719 L 776.90625 169.78125 L 802.640625 169.78125 Z M 841.238281 388.511719 L 815.507812 388.511719 L 815.507812 169.78125 L 841.238281 169.78125 Z M 892.707031 169.78125 L 918.441406 169.78125 L 918.441406 568.644531 L 892.707031 568.644531 Z M 854.105469 169.78125 L 879.839844 169.78125 L 879.839844 388.511719 L 854.105469 388.511719 Z M 673.972656 465.710938 L 802.640625 465.710938 L 802.640625 491.445312 L 673.972656 491.445312 Z M 673.972656 504.3125 L 802.640625 504.3125 L 802.640625 530.046875 L 673.972656 530.046875 Z M 673.972656 542.910156 L 802.640625 542.910156 L 802.640625 568.644531 L 673.972656 568.644531 Z M 673.972656 581.511719 L 802.640625 581.511719 L 802.640625 607.246094 L 673.972656 607.246094 Z M 583.90625 324.179688 L 609.640625 324.179688 L 609.640625 375.644531 L 583.90625 375.644531 Z M 583.90625 388.511719 L 609.640625 388.511719 L 609.640625 439.980469 L 583.90625 439.980469 Z M 583.90625 452.84375 L 609.640625 452.84375 L 609.640625 504.3125 L 583.90625 504.3125 Z M 583.90625 517.179688 L 609.640625 517.179688 L 609.640625 568.644531 L 583.90625 568.644531 Z M 583.90625 581.511719 L 609.640625 581.511719 L 609.640625 632.976562 L 583.90625 632.976562 Z M 545.308594 324.179688 L 571.039062 324.179688 L 571.039062 375.644531 L 545.308594 375.644531 Z M 545.308594 388.511719 L 571.039062 388.511719 L 571.039062 439.980469 L 545.308594 439.980469 Z M 545.308594 452.84375 L 571.039062 452.84375 L 571.039062 504.3125 L 545.308594 504.3125 Z M 545.308594 517.179688 L 571.039062 517.179688 L 571.039062 568.644531 L 545.308594 568.644531 Z M 545.308594 581.511719 L 571.039062 581.511719 L 571.039062 632.976562 L 545.308594 632.976562 Z M 506.707031 324.179688 L 532.441406 324.179688 L 532.441406 375.644531 L 506.707031 375.644531 Z M 506.707031 388.511719 L 532.441406 388.511719 L 532.441406 439.980469 L 506.707031 439.980469 Z M 506.707031 452.84375 L 532.441406 452.84375 L 532.441406 504.3125 L 506.707031 504.3125 Z M 506.707031 517.179688 L 532.441406 517.179688 L 532.441406 568.644531 L 506.707031 568.644531 Z M 506.707031 581.511719 L 532.441406 581.511719 L 532.441406 632.976562 L 506.707031 632.976562 Z M 468.109375 324.179688 L 493.839844 324.179688 L 493.839844 375.644531 L 468.109375 375.644531 Z M 468.109375 388.511719 L 493.839844 388.511719 L 493.839844 439.980469 L 468.109375 439.980469 Z M 468.109375 452.84375 L 493.839844 452.84375 L 493.839844 504.3125 L 468.109375 504.3125 Z M 468.109375 517.179688 L 493.839844 517.179688 L 493.839844 568.644531 L 468.109375 568.644531 Z M 468.109375 581.511719 L 493.839844 581.511719 L 493.839844 632.976562 L 468.109375 632.976562 Z M 468.109375 581.511719 " fill-opacity="1" fill-rule="nonzero"/></g></svg>