<svg xmlns="http://www.w3.org/2000/svg" xmlns:xlink="http://www.w3.org/1999/xlink" width="1920" zoomAndPan="magnify" viewBox="0 0 1440 809.999993" height="1080" preserveAspectRatio="xMidYMid meet" version="1.0"><defs><clipPath id="3490af1533"><path d="M 573 57.945312 L 867 57.945312 L 867 245 L 573 245 Z M 573 57.945312 " clip-rule="nonzero"/></clipPath><clipPath id="c27ac22aa5"><path d="M 445.023438 649 L 994.773438 649 L 994.773438 706.695312 L 445.023438 706.695312 Z M 445.023438 649 " clip-rule="nonzero"/></clipPath></defs><rect x="-144" width="1728" fill="#ffffff" y="-80.999999" height="971.999992" fill-opacity="1"/><rect x="-144" width="1728" fill="#feffff" y="-80.999999" height="971.999992" fill-opacity="1"/><path fill="#5bd3c7" d="M 944.503906 622.320312 L 833.621094 622.320312 C 837.691406 622.175781 840.949219 618.824219 840.949219 614.714844 L 840.949219 405.527344 C 858.867188 405.527344 855.574219 404.789062 855.574219 368.070312 C 855.574219 363.875 852.167969 360.46875 847.96875 360.46875 L 592.027344 360.46875 C 587.832031 360.46875 584.421875 363.875 584.421875 368.070312 C 584.421875 404.789062 581.132812 405.527344 599.039062 405.527344 L 599.039062 614.714844 C 599.039062 624.722656 614.25 624.726562 614.25 614.714844 L 614.25 405.527344 L 712.390625 405.527344 L 712.390625 614.71875 C 712.390625 618.824219 715.648438 622.171875 719.722656 622.316406 L 495.496094 622.316406 C 491.296875 622.316406 487.890625 618.90625 487.890625 614.710938 L 487.890625 273.550781 C 487.890625 269.351562 491.296875 265.945312 495.496094 265.945312 L 944.507812 265.945312 C 948.703125 265.945312 952.109375 269.351562 952.109375 273.550781 L 952.109375 614.703125 C 952.109375 618.902344 948.703125 622.316406 944.507812 622.316406 Z M 833.070312 622.320312 L 720.265625 622.320312 C 724.332031 622.175781 727.597656 618.824219 727.597656 614.714844 L 727.597656 405.527344 L 825.742188 405.527344 L 825.742188 614.71875 C 825.742188 618.824219 829 622.171875 833.070312 622.316406 Z M 599.632812 390.316406 L 840.359375 390.316406 L 840.359375 375.671875 L 599.632812 375.671875 Z M 762.839844 529.328125 C 758.640625 529.328125 755.234375 525.917969 755.234375 521.722656 L 755.234375 484.792969 C 755.234375 474.78125 770.445312 474.785156 770.445312 484.792969 L 770.445312 521.722656 C 770.453125 525.921875 767.042969 529.328125 762.839844 529.328125 Z M 677.152344 529.328125 C 672.953125 529.328125 669.546875 525.917969 669.546875 521.722656 L 669.546875 484.792969 C 669.546875 474.78125 684.753906 474.785156 684.753906 484.792969 L 684.753906 521.722656 C 684.753906 525.921875 681.347656 529.328125 677.152344 529.328125 Z M 677.152344 529.328125 " fill-opacity="1" fill-rule="evenodd"/><path fill="#5bd3c7" d="M 964.320312 664.144531 C 914.75 664.144531 468.0625 662.269531 468.0625 656.542969 L 468.0625 614.722656 C 468.0625 610.527344 471.46875 607.121094 475.667969 607.121094 L 964.320312 607.121094 C 968.519531 607.121094 971.925781 610.53125 971.925781 614.722656 L 971.925781 656.542969 C 971.925781 660.734375 968.515625 664.144531 964.320312 664.144531 Z M 964.320312 664.144531 " fill-opacity="1" fill-rule="evenodd"/><path fill="#5bd3c7" d="M 964.320312 281.164062 L 475.667969 281.164062 C 471.46875 281.164062 468.0625 277.753906 468.0625 273.558594 L 468.0625 237.253906 C 468.0625 233.054688 471.46875 229.648438 475.667969 229.648438 L 964.320312 229.648438 C 968.519531 229.648438 971.925781 233.054688 971.925781 237.253906 L 971.925781 273.558594 C 971.925781 277.753906 968.515625 281.164062 964.320312 281.164062 Z M 964.320312 281.164062 " fill-opacity="1" fill-rule="evenodd"/><g clip-path="url(#3490af1533)"><path fill="#5bd3c7" d="M 858.660156 244.855469 C 854.464844 244.855469 851.058594 241.445312 851.058594 237.25 L 588.929688 237.242188 C 588.929688 247.253906 573.71875 247.253906 573.71875 237.242188 L 573.71875 65.5625 C 573.71875 61.367188 577.128906 57.960938 581.324219 57.960938 L 858.660156 57.960938 C 862.859375 57.960938 866.265625 61.367188 866.265625 65.5625 L 866.265625 237.246094 C 866.265625 241.441406 862.859375 244.851562 858.660156 244.851562 Z M 703.027344 211.605469 L 698.207031 209.972656 C 674.84375 191.550781 674 167.125 676.449219 148.804688 C 646.535156 123.050781 680.515625 70.785156 719.996094 99.5 C 756.539062 70.972656 794.984375 121.707031 763.546875 148.804688 C 765.992188 167.125 765.152344 191.546875 741.785156 209.972656 C 735.859375 214.644531 727.402344 208.578125 729.90625 201.464844 C 735.242188 186.371094 725.742188 176.296875 719.996094 171.851562 C 702.175781 185.65625 710.632812 200.121094 710.632812 204.003906 C 710.625 208.199219 707.21875 211.601562 703.023438 211.601562 Z M 719.992188 155.09375 C 726.992188 155.09375 741.269531 169.089844 745.179688 182.378906 C 755.65625 159.886719 741.851562 144.832031 751.324219 138.960938 C 773.023438 125.523438 748.886719 94.585938 730.597656 110.46875 C 716.125 123.035156 710.691406 106.414062 698.234375 106.414062 C 679.679688 106.414062 673.851562 129.773438 688.65625 138.957031 C 698.125 144.828125 684.328125 159.894531 694.804688 182.375 C 698.710938 169.101562 712.976562 155.09375 719.992188 155.09375 Z M 719.992188 155.09375 " fill-opacity="1" fill-rule="evenodd"/></g><g clip-path="url(#c27ac22aa5)"><path fill="#5bd3c7" d="M 987.277344 706.851562 L 452.707031 706.851562 C 448.511719 706.851562 445.101562 703.4375 445.101562 699.246094 L 445.101562 657.421875 C 445.101562 653.226562 448.511719 649.820312 452.707031 649.820312 L 987.277344 649.820312 C 991.476562 649.820312 994.882812 653.230469 994.882812 657.421875 L 994.882812 699.246094 C 994.890625 703.441406 991.476562 706.851562 987.277344 706.851562 Z M 987.277344 706.851562 " fill-opacity="1" fill-rule="evenodd"/></g></svg>