<svg xmlns="http://www.w3.org/2000/svg" xmlns:xlink="http://www.w3.org/1999/xlink" width="1920" zoomAndPan="magnify" viewBox="0 0 1440 809.999993" height="1080" preserveAspectRatio="xMidYMid meet" version="1.0"><defs><clipPath id="4de8c46cb6"><path d="M 464.03125 631 L 976.28125 631 L 976.28125 684.75 L 464.03125 684.75 Z M 464.03125 631 " clip-rule="nonzero"/></clipPath></defs><rect x="-144" width="1728" fill="#ffffff" y="-80.999999" height="971.999992" fill-opacity="1"/><rect x="-144" width="1728" fill="#feffff" y="-80.999999" height="971.999992" fill-opacity="1"/><path fill="#000000" d="M 929.269531 606.105469 L 825.988281 606.105469 C 829.78125 605.972656 832.816406 602.851562 832.816406 599.03125 L 832.816406 404.398438 C 849.503906 404.398438 846.4375 403.710938 846.4375 369.546875 C 846.4375 365.644531 843.265625 362.472656 839.355469 362.472656 L 600.953125 362.472656 C 597.042969 362.472656 593.871094 365.644531 593.871094 369.546875 C 593.871094 403.710938 590.804688 404.398438 607.484375 404.398438 L 607.484375 599.03125 C 607.484375 608.34375 621.652344 608.34375 621.652344 599.03125 L 621.652344 404.398438 L 713.066406 404.398438 L 713.066406 599.035156 C 713.066406 602.851562 716.101562 605.96875 719.894531 606.101562 L 511.039062 606.101562 C 507.128906 606.101562 503.953125 602.929688 503.953125 599.027344 L 503.953125 281.605469 C 503.953125 277.699219 507.128906 274.527344 511.039062 274.527344 L 929.273438 274.527344 C 933.183594 274.527344 936.359375 277.699219 936.359375 281.605469 L 936.359375 599.019531 C 936.359375 602.925781 933.183594 606.101562 929.273438 606.101562 Z M 825.476562 606.105469 L 720.402344 606.105469 C 724.191406 605.972656 727.230469 602.851562 727.230469 599.03125 L 727.230469 404.398438 L 818.648438 404.398438 L 818.648438 599.035156 C 818.648438 602.851562 821.683594 605.96875 825.476562 606.101562 Z M 608.039062 390.246094 L 832.265625 390.246094 L 832.265625 376.621094 L 608.039062 376.621094 Z M 760.058594 519.582031 C 756.148438 519.582031 752.976562 516.410156 752.976562 512.507812 L 752.976562 478.144531 C 752.976562 468.832031 767.140625 468.835938 767.140625 478.144531 L 767.140625 512.507812 C 767.148438 516.414062 763.972656 519.582031 760.058594 519.582031 Z M 680.242188 519.582031 C 676.332031 519.582031 673.160156 516.410156 673.160156 512.507812 L 673.160156 478.144531 C 673.160156 468.832031 687.328125 468.835938 687.328125 478.144531 L 687.328125 512.507812 C 687.328125 516.414062 684.152344 519.582031 680.242188 519.582031 Z M 680.242188 519.582031 " fill-opacity="1" fill-rule="evenodd"/><path fill="#000000" d="M 947.730469 645.019531 C 901.558594 645.019531 485.484375 643.273438 485.484375 637.945312 L 485.484375 599.039062 C 485.484375 595.132812 488.65625 591.960938 492.566406 591.960938 L 947.730469 591.960938 C 951.640625 591.960938 954.8125 595.136719 954.8125 599.039062 L 954.8125 637.945312 C 954.8125 641.847656 951.636719 645.019531 947.730469 645.019531 Z M 947.730469 645.019531 " fill-opacity="1" fill-rule="evenodd"/><path fill="#000000" d="M 947.730469 288.6875 L 492.566406 288.6875 C 488.65625 288.6875 485.484375 285.515625 485.484375 281.609375 L 485.484375 247.832031 C 485.484375 243.925781 488.65625 240.757812 492.566406 240.757812 L 947.730469 240.757812 C 951.640625 240.757812 954.8125 243.925781 954.8125 247.832031 L 954.8125 281.609375 C 954.8125 285.515625 951.636719 288.6875 947.730469 288.6875 Z M 947.730469 288.6875 " fill-opacity="1" fill-rule="evenodd"/><path fill="#000000" d="M 849.3125 254.90625 C 845.402344 254.90625 842.230469 251.734375 842.230469 247.828125 L 598.070312 247.820312 C 598.070312 257.136719 583.902344 257.136719 583.902344 247.820312 L 583.902344 88.089844 C 583.902344 84.183594 587.074219 81.015625 590.984375 81.015625 L 849.3125 81.015625 C 853.222656 81.015625 856.398438 84.183594 856.398438 88.089844 L 856.398438 247.824219 C 856.398438 251.730469 853.222656 254.902344 849.3125 254.902344 Z M 704.34375 223.96875 L 699.855469 222.449219 C 678.09375 205.308594 677.308594 182.582031 679.589844 165.539062 C 651.726562 141.578125 683.378906 92.945312 720.152344 119.664062 C 754.191406 93.125 790 140.328125 760.71875 165.539062 C 762.996094 182.582031 762.210938 205.304688 740.449219 222.449219 C 734.925781 226.796875 727.050781 221.15625 729.382812 214.535156 C 734.351562 200.492188 725.503906 191.117188 720.152344 186.980469 C 703.554688 199.824219 711.429688 213.28125 711.429688 216.898438 C 711.425781 220.800781 708.25 223.96875 704.339844 223.96875 Z M 720.148438 171.390625 C 726.667969 171.390625 739.96875 184.410156 743.609375 196.777344 C 753.367188 175.851562 740.507812 161.839844 749.335938 156.378906 C 769.542969 143.875 747.0625 115.09375 730.027344 129.871094 C 716.546875 141.5625 711.484375 126.097656 699.882812 126.097656 C 682.597656 126.097656 677.167969 147.832031 690.960938 156.375 C 699.777344 161.835938 686.929688 175.855469 696.6875 196.773438 C 700.324219 184.421875 713.613281 171.390625 720.148438 171.390625 Z M 720.148438 171.390625 " fill-opacity="1" fill-rule="evenodd"/><g clip-path="url(#4de8c46cb6)"><path fill="#000000" d="M 969.117188 684.753906 L 471.183594 684.753906 C 467.273438 684.753906 464.101562 681.582031 464.101562 677.679688 L 464.101562 638.765625 C 464.101562 634.859375 467.273438 631.691406 471.183594 631.691406 L 969.117188 631.691406 C 973.027344 631.691406 976.199219 634.863281 976.199219 638.765625 L 976.199219 677.679688 C 976.207031 681.582031 973.027344 684.753906 969.117188 684.753906 Z M 969.117188 684.753906 " fill-opacity="1" fill-rule="evenodd"/></g></svg>