<svg xmlns="http://www.w3.org/2000/svg" xmlns:xlink="http://www.w3.org/1999/xlink" width="1920" zoomAndPan="magnify" viewBox="0 0 1440 809.999993" height="1080" preserveAspectRatio="xMidYMid meet" version="1.0"><defs><clipPath id="ea567b3684"><path d="M 749 70.382812 L 1044 70.382812 L 1044 385 L 749 385 Z M 749 70.382812 " clip-rule="nonzero"/></clipPath><clipPath id="771c2b1fd6"><path d="M 395.1875 158 L 839 158 L 839 718.382812 L 395.1875 718.382812 Z M 395.1875 158 " clip-rule="nonzero"/></clipPath></defs><rect x="-144" width="1728" fill="#ffffff" y="-80.999999" height="971.999992" fill-opacity="1"/><rect x="-144" width="1728" fill="#feffff" y="-80.999999" height="971.999992" fill-opacity="1"/><path fill="#5bd3c7" d="M 998.5625 136.386719 L 978.71875 136.386719 L 978.71875 115.222656 C 978.71875 110.839844 976.488281 108.609375 972.105469 108.609375 L 946.976562 108.609375 C 942.59375 108.609375 937.714844 110.839844 937.714844 115.222656 L 937.714844 136.386719 L 919.199219 136.386719 C 914.816406 136.386719 909.9375 138.617188 909.9375 143 L 909.9375 166.808594 C 909.9375 171.191406 914.816406 176.066406 919.199219 176.066406 L 937.714844 176.066406 L 937.714844 193.261719 C 937.714844 197.644531 942.59375 202.523438 946.976562 202.523438 L 972.105469 202.523438 C 976.488281 202.523438 978.71875 197.644531 978.71875 193.261719 L 978.71875 176.066406 L 998.5625 176.066406 C 1002.941406 176.066406 1005.175781 171.191406 1005.175781 166.808594 L 1005.175781 143 C 1005.175781 138.617188 1002.941406 136.386719 998.5625 136.386719 Z M 989.300781 160.195312 L 972.105469 160.195312 C 967.726562 160.195312 962.847656 162.425781 962.847656 166.808594 L 962.847656 186.648438 L 953.589844 186.648438 L 953.589844 166.808594 C 953.589844 162.425781 951.355469 160.195312 946.976562 160.195312 L 925.8125 160.195312 L 925.8125 152.257812 L 946.976562 152.257812 C 951.355469 152.257812 953.589844 147.382812 953.589844 143 L 953.589844 124.480469 L 962.847656 124.480469 L 962.847656 143 C 962.847656 147.382812 967.726562 152.257812 972.105469 152.257812 L 989.300781 152.257812 Z M 989.300781 160.195312 " fill-opacity="1" fill-rule="nonzero"/><g clip-path="url(#ea567b3684)"><path fill="#5bd3c7" d="M 997.449219 79.316406 C 991.640625 76.382812 985.574219 74.171875 979.246094 72.671875 C 972.917969 71.175781 966.503906 70.433594 960 70.453125 C 957.820312 70.457031 955.644531 70.546875 953.472656 70.722656 C 951.300781 70.894531 949.136719 71.152344 946.984375 71.496094 C 944.832031 71.839844 942.695312 72.265625 940.578125 72.777344 C 938.457031 73.285156 936.363281 73.878906 934.289062 74.550781 C 932.214844 75.226562 930.171875 75.980469 928.160156 76.8125 C 926.144531 77.648438 924.167969 78.558594 922.222656 79.546875 C 920.28125 80.535156 918.378906 81.597656 916.519531 82.734375 C 914.660156 83.871094 912.847656 85.078125 911.082031 86.355469 C 909.316406 87.632812 907.605469 88.980469 905.945312 90.390625 C 904.28125 91.804688 902.679688 93.277344 901.136719 94.816406 C 899.589844 96.351562 898.109375 97.949219 896.6875 99.601562 C 895.265625 101.253906 893.914062 102.960938 892.625 104.71875 C 891.339844 106.476562 890.121094 108.285156 888.976562 110.140625 C 887.832031 111.992188 886.757812 113.890625 885.761719 115.828125 C 884.761719 117.765625 883.84375 119.738281 883 121.75 C 882.15625 123.757812 881.390625 125.796875 880.707031 127.867188 C 870.359375 128.453125 860.191406 127.375 850.195312 124.640625 L 828.589844 118.734375 C 827.402344 118.410156 826.203125 118.121094 824.992188 117.871094 C 823.785156 117.617188 822.570312 117.402344 821.351562 117.21875 C 820.128906 117.039062 818.90625 116.894531 817.675781 116.789062 C 816.445312 116.679688 815.214844 116.609375 813.980469 116.574219 C 812.75 116.539062 811.515625 116.542969 810.28125 116.582031 C 809.046875 116.617188 807.816406 116.695312 806.589844 116.804688 C 805.359375 116.917969 804.132812 117.066406 802.914062 117.25 C 801.695312 117.4375 800.480469 117.65625 799.273438 117.914062 C 798.066406 118.171875 796.867188 118.464844 795.679688 118.792969 C 794.488281 119.121094 793.3125 119.484375 792.144531 119.882812 C 790.976562 120.28125 789.820312 120.714844 788.679688 121.179688 C 787.535156 121.648438 786.410156 122.148438 785.296875 122.683594 C 784.183594 123.21875 783.085938 123.785156 782.007812 124.382812 C 780.929688 124.980469 779.871094 125.613281 778.828125 126.277344 C 777.789062 126.9375 776.765625 127.628906 775.765625 128.351562 C 774.765625 129.078125 773.789062 129.828125 772.835938 130.609375 C 771.878906 131.390625 770.949219 132.199219 770.039062 133.035156 C 769.132812 133.871094 768.253906 134.734375 767.394531 135.625 C 766.539062 136.511719 765.710938 137.425781 764.910156 138.367188 C 764.109375 139.304688 763.335938 140.265625 762.589844 141.25 C 761.847656 142.234375 761.132812 143.238281 760.449219 144.265625 C 759.761719 145.292969 759.109375 146.339844 758.488281 147.402344 C 757.863281 148.46875 757.273438 149.550781 756.714844 150.652344 C 756.160156 151.753906 755.632812 152.871094 755.140625 154.003906 C 754.652344 155.132812 754.191406 156.28125 753.769531 157.4375 C 753.347656 158.597656 752.957031 159.769531 752.605469 160.949219 C 752.25 162.132812 751.933594 163.324219 751.648438 164.527344 C 751.367188 165.726562 751.117188 166.933594 750.90625 168.152344 C 750.695312 169.367188 750.523438 170.585938 750.382812 171.8125 C 750.246094 173.039062 750.144531 174.269531 750.078125 175.5 C 750.011719 176.734375 749.984375 177.96875 749.992188 179.203125 C 750 180.433594 750.042969 181.667969 750.125 182.898438 C 750.855469 194.605469 752.621094 206.152344 755.425781 217.539062 C 758.230469 228.925781 762.027344 239.972656 766.820312 250.675781 C 766.90625 250.933594 767.152344 251.191406 767.269531 251.441406 C 772.503906 262.949219 776.441406 274.882812 779.085938 287.246094 C 781.734375 299.609375 783.023438 312.113281 782.957031 324.753906 L 782.957031 355.308594 C 782.957031 356.277344 783.003906 357.246094 783.101562 358.207031 C 783.195312 359.171875 783.335938 360.128906 783.527344 361.082031 C 783.714844 362.03125 783.949219 362.96875 784.230469 363.894531 C 784.511719 364.824219 784.839844 365.734375 785.210938 366.628906 C 785.578125 367.523438 785.992188 368.398438 786.449219 369.253906 C 786.90625 370.109375 787.40625 370.9375 787.945312 371.742188 C 788.480469 372.546875 789.058594 373.324219 789.671875 374.074219 C 790.289062 374.824219 790.9375 375.539062 791.625 376.226562 C 792.308594 376.910156 793.027344 377.558594 793.777344 378.171875 C 794.523438 378.789062 795.300781 379.363281 796.109375 379.902344 C 796.914062 380.4375 797.746094 380.9375 798.597656 381.390625 C 799.453125 381.847656 800.328125 382.261719 801.226562 382.632812 C 802.121094 383 803.03125 383.328125 803.957031 383.609375 C 804.886719 383.886719 805.824219 384.121094 806.777344 384.308594 C 807.726562 384.5 808.683594 384.640625 809.648438 384.734375 C 810.613281 384.828125 811.578125 384.875 812.546875 384.875 C 814.371094 384.875 816.179688 384.714844 817.976562 384.386719 C 819.769531 384.058594 821.519531 383.574219 823.226562 382.929688 C 824.933594 382.285156 826.566406 381.492188 828.128906 380.550781 C 829.691406 379.609375 831.152344 378.53125 832.519531 377.324219 C 834.132812 375.929688 835.667969 374.449219 837.121094 372.886719 C 838.574219 371.328125 839.9375 369.691406 841.21875 367.984375 C 842.496094 366.277344 843.675781 364.503906 844.765625 362.667969 C 845.851562 360.835938 846.835938 358.945312 847.71875 357.003906 C 848.605469 355.0625 849.378906 353.078125 850.050781 351.054688 C 850.722656 349.03125 851.28125 346.972656 851.730469 344.890625 C 852.179688 342.804688 852.515625 340.699219 852.738281 338.578125 C 852.960938 336.457031 853.066406 334.332031 853.0625 332.195312 L 853.0625 315.578125 C 853.058594 314.863281 853.089844 314.15625 853.15625 313.445312 C 853.21875 312.738281 853.320312 312.03125 853.457031 311.332031 C 853.589844 310.632812 853.761719 309.945312 853.964844 309.261719 C 854.167969 308.578125 854.402344 307.910156 854.671875 307.25 C 854.941406 306.589844 855.242188 305.945312 855.578125 305.316406 C 855.910156 304.6875 856.273438 304.074219 856.667969 303.480469 C 857.058594 302.890625 857.480469 302.316406 857.929688 301.765625 C 858.382812 301.210938 858.855469 300.683594 859.359375 300.179688 C 859.859375 299.671875 860.386719 299.195312 860.933594 298.742188 C 861.484375 298.289062 862.054688 297.863281 862.644531 297.464844 C 863.238281 297.070312 863.847656 296.703125 864.472656 296.367188 C 865.101562 296.027344 865.742188 295.722656 866.402344 295.449219 C 867.058594 295.175781 867.726562 294.9375 868.410156 294.730469 C 869.089844 294.523438 869.78125 294.347656 870.476562 294.207031 C 871.175781 294.070312 871.878906 293.964844 872.589844 293.894531 C 873.296875 293.824219 874.007812 293.789062 874.71875 293.789062 L 874.753906 293.789062 C 876.167969 293.765625 877.570312 293.882812 878.960938 294.136719 C 880.355469 294.390625 881.707031 294.777344 883.023438 295.296875 C 884.339844 295.820312 885.589844 296.460938 886.78125 297.230469 C 887.96875 297.996094 889.070312 298.875 890.085938 299.859375 C 891.128906 300.867188 892.0625 301.972656 892.882812 303.167969 C 893.707031 304.367188 894.402344 305.632812 894.96875 306.96875 C 895.539062 308.304688 895.96875 309.683594 896.261719 311.105469 C 896.554688 312.527344 896.707031 313.964844 896.710938 315.414062 L 896.710938 332.195312 C 896.722656 334.339844 896.851562 336.472656 897.09375 338.601562 C 897.335938 340.730469 897.691406 342.835938 898.160156 344.925781 C 898.628906 347.015625 899.207031 349.074219 899.898438 351.101562 C 900.585938 353.128906 901.386719 355.113281 902.289062 357.054688 C 903.191406 358.996094 904.199219 360.882812 905.304688 362.714844 C 906.414062 364.550781 907.613281 366.316406 908.914062 368.019531 C 910.210938 369.726562 911.59375 371.355469 913.066406 372.910156 C 914.542969 374.464844 916.09375 375.933594 917.722656 377.320312 C 919.085938 378.527344 920.546875 379.601562 922.105469 380.542969 C 923.664062 381.484375 925.292969 382.277344 926.992188 382.921875 C 928.695312 383.566406 930.441406 384.054688 932.230469 384.378906 C 934.023438 384.707031 935.828125 384.871094 937.648438 384.871094 C 938.609375 384.863281 939.566406 384.8125 940.523438 384.710938 C 941.480469 384.609375 942.429688 384.460938 943.371094 384.269531 C 944.316406 384.074219 945.246094 383.835938 946.164062 383.550781 C 947.082031 383.265625 947.984375 382.933594 948.871094 382.558594 C 949.757812 382.1875 950.621094 381.769531 951.46875 381.308594 C 952.3125 380.851562 953.132812 380.351562 953.929688 379.8125 C 954.726562 379.273438 955.492188 378.695312 956.234375 378.078125 C 956.972656 377.464844 957.679688 376.816406 958.355469 376.128906 C 959.03125 375.445312 959.671875 374.730469 960.277344 373.980469 C 960.882812 373.234375 961.449219 372.457031 961.976562 371.65625 C 962.507812 370.851562 962.996094 370.023438 963.441406 369.171875 C 963.890625 368.320312 964.292969 367.449219 964.65625 366.558594 C 965.019531 365.667969 965.335938 364.761719 965.609375 363.839844 C 965.882812 362.917969 966.109375 361.984375 966.289062 361.039062 C 966.472656 360.09375 966.605469 359.144531 966.695312 358.1875 C 966.78125 357.226562 966.824219 356.269531 966.816406 355.304688 L 966.816406 324.75 C 966.816406 300.546875 972.335938 276.5625 983.660156 251.4375 C 983.742188 251.265625 983.820312 251.089844 983.886719 250.910156 C 986.722656 244.640625 989.207031 238.238281 991.339844 231.695312 C 993.191406 230.945312 995.011719 230.125 996.804688 229.242188 C 998.59375 228.359375 1000.351562 227.414062 1002.078125 226.40625 C 1003.800781 225.394531 1005.484375 224.328125 1007.132812 223.195312 C 1008.78125 222.066406 1010.386719 220.878906 1011.949219 219.636719 C 1013.511719 218.390625 1015.027344 217.09375 1016.496094 215.742188 C 1017.964844 214.386719 1019.386719 212.984375 1020.753906 211.53125 C 1022.125 210.074219 1023.4375 208.574219 1024.699219 207.027344 C 1025.960938 205.476562 1027.167969 203.886719 1028.316406 202.25 C 1029.464844 200.617188 1030.550781 198.941406 1031.578125 197.230469 C 1032.605469 195.515625 1033.574219 193.769531 1034.476562 191.988281 C 1035.378906 190.207031 1036.21875 188.394531 1036.992188 186.554688 C 1037.765625 184.710938 1038.472656 182.84375 1039.109375 180.953125 C 1039.75 179.0625 1040.324219 177.148438 1040.824219 175.214844 C 1041.328125 173.28125 1041.761719 171.332031 1042.125 169.371094 C 1042.488281 167.40625 1042.78125 165.429688 1043.003906 163.445312 C 1043.226562 161.460938 1043.378906 159.46875 1043.457031 157.476562 C 1043.539062 155.480469 1043.546875 153.484375 1043.484375 151.484375 C 1043.421875 149.488281 1043.289062 147.5 1043.082031 145.511719 C 1042.875 143.523438 1042.601562 141.546875 1042.253906 139.582031 C 1041.90625 137.613281 1041.492188 135.660156 1041.003906 133.722656 C 1040.515625 131.785156 1039.960938 129.867188 1039.339844 127.972656 C 1038.714844 126.074219 1038.023438 124.199219 1037.265625 122.351562 C 1036.507812 120.503906 1035.6875 118.6875 1034.796875 116.894531 C 1033.910156 115.105469 1032.960938 113.351562 1031.945312 111.628906 C 1030.933594 109.910156 1029.859375 108.226562 1028.726562 106.582031 C 1027.59375 104.9375 1026.402344 103.335938 1025.152344 101.777344 C 1023.90625 100.21875 1022.601562 98.703125 1021.246094 97.238281 C 1019.890625 95.773438 1018.480469 94.355469 1017.023438 92.992188 C 1015.566406 91.625 1014.0625 90.3125 1012.507812 89.054688 C 1010.957031 87.796875 1009.363281 86.597656 1007.726562 85.453125 C 1006.085938 84.308594 1004.410156 83.226562 1002.695312 82.203125 C 1000.980469 81.179688 999.230469 80.21875 997.449219 79.320312 Z M 969.203125 244.871094 C 969.109375 245.074219 969.007812 245.28125 968.941406 245.492188 C 956.84375 272.503906 950.953125 298.4375 950.953125 324.753906 L 950.953125 355.308594 C 950.972656 356.199219 950.902344 357.085938 950.746094 357.960938 C 950.589844 358.839844 950.347656 359.695312 950.019531 360.523438 C 949.695312 361.351562 949.289062 362.140625 948.804688 362.890625 C 948.316406 363.640625 947.765625 364.332031 947.140625 364.96875 C 946.519531 365.605469 945.835938 366.175781 945.101562 366.679688 C 944.363281 367.179688 943.585938 367.605469 942.761719 367.949219 C 941.941406 368.296875 941.09375 368.558594 940.21875 368.734375 C 939.34375 368.910156 938.460938 369 937.570312 369 C 935.816406 369 934.121094 368.683594 932.488281 368.046875 C 930.851562 367.410156 929.390625 366.496094 928.097656 365.308594 C 925.6875 363.273438 923.523438 361 921.605469 358.496094 C 919.6875 355.988281 918.058594 353.308594 916.722656 350.449219 C 915.382812 347.589844 914.363281 344.625 913.667969 341.546875 C 912.96875 338.46875 912.609375 335.351562 912.585938 332.195312 L 912.585938 315.414062 C 912.582031 314.179688 912.519531 312.949219 912.398438 311.722656 C 912.277344 310.492188 912.09375 309.273438 911.851562 308.0625 C 911.605469 306.851562 911.304688 305.65625 910.945312 304.476562 C 910.582031 303.292969 910.164062 302.132812 909.6875 300.996094 C 909.214844 299.855469 908.683594 298.742188 908.097656 297.65625 C 907.511719 296.566406 906.875 295.511719 906.183594 294.488281 C 905.496094 293.464844 904.757812 292.476562 903.96875 291.523438 C 903.183594 290.574219 902.351562 289.664062 901.472656 288.792969 C 900.597656 287.925781 899.679688 287.101562 898.722656 286.320312 C 897.761719 285.542969 896.769531 284.8125 895.738281 284.132812 C 894.707031 283.453125 893.648438 282.824219 892.554688 282.246094 C 891.460938 281.671875 890.34375 281.152344 889.199219 280.6875 C 888.058594 280.21875 886.894531 279.8125 885.710938 279.460938 C 884.527344 279.109375 883.328125 278.820312 882.113281 278.585938 C 880.902344 278.355469 879.679688 278.183594 878.453125 278.070312 C 877.222656 277.957031 875.988281 277.90625 874.753906 277.917969 L 874.695312 277.917969 C 873.464844 277.917969 872.234375 277.980469 871.011719 278.101562 C 869.785156 278.222656 868.570312 278.40625 867.363281 278.648438 C 866.15625 278.890625 864.960938 279.1875 863.785156 279.546875 C 862.605469 279.90625 861.449219 280.324219 860.3125 280.796875 C 859.175781 281.269531 858.066406 281.796875 856.980469 282.378906 C 855.894531 282.960938 854.839844 283.59375 853.820312 284.28125 C 852.796875 284.96875 851.808594 285.703125 850.859375 286.484375 C 849.910156 287.265625 849 288.09375 848.128906 288.96875 C 847.261719 289.839844 846.4375 290.753906 845.660156 291.707031 C 844.878906 292.660156 844.148438 293.648438 843.46875 294.675781 C 842.785156 295.699219 842.15625 296.757812 841.578125 297.84375 C 841 298.929688 840.476562 300.042969 840.011719 301.183594 C 839.542969 302.320312 839.128906 303.480469 838.777344 304.660156 C 838.421875 305.839844 838.125 307.03125 837.890625 308.242188 C 837.652344 309.449219 837.476562 310.667969 837.359375 311.890625 C 837.242188 313.117188 837.1875 314.347656 837.191406 315.578125 L 837.191406 332.195312 C 837.195312 335.335938 836.863281 338.441406 836.199219 341.511719 C 835.535156 344.582031 834.550781 347.542969 833.246094 350.402344 C 831.945312 353.257812 830.351562 355.945312 828.46875 358.457031 C 826.582031 360.96875 824.453125 363.253906 822.078125 365.308594 C 820.769531 366.492188 819.292969 367.402344 817.644531 368.035156 C 816 368.671875 814.292969 368.992188 812.527344 368.996094 C 811.628906 369 810.738281 368.914062 809.855469 368.742188 C 808.96875 368.570312 808.113281 368.3125 807.28125 367.96875 C 806.449219 367.625 805.65625 367.203125 804.910156 366.707031 C 804.160156 366.207031 803.46875 365.636719 802.832031 365.003906 C 802.195312 364.367188 801.625 363.671875 801.125 362.925781 C 800.628906 362.175781 800.207031 361.386719 799.863281 360.554688 C 799.519531 359.722656 799.261719 358.863281 799.085938 357.980469 C 798.914062 357.097656 798.828125 356.207031 798.832031 355.304688 L 798.832031 324.75 C 798.898438 311.132812 797.523438 297.664062 794.703125 284.34375 C 791.882812 271.023438 787.679688 258.148438 782.097656 245.730469 C 781.976562 245.433594 781.839844 245.148438 781.6875 244.867188 C 777.183594 234.9375 773.613281 224.683594 770.976562 214.101562 C 768.34375 203.519531 766.683594 192.789062 766.007812 181.90625 C 765.945312 180.988281 765.910156 180.070312 765.902344 179.152344 C 765.894531 178.230469 765.914062 177.3125 765.960938 176.394531 C 766.007812 175.476562 766.082031 174.558594 766.183594 173.644531 C 766.289062 172.730469 766.417969 171.820312 766.570312 170.914062 C 766.726562 170.007812 766.910156 169.109375 767.121094 168.210938 C 767.328125 167.316406 767.566406 166.429688 767.828125 165.546875 C 768.089844 164.667969 768.378906 163.792969 768.695312 162.929688 C 769.007812 162.066406 769.347656 161.210938 769.714844 160.367188 C 770.078125 159.523438 770.46875 158.691406 770.882812 157.871094 C 771.296875 157.050781 771.738281 156.242188 772.199219 155.449219 C 772.660156 154.652344 773.148438 153.875 773.65625 153.109375 C 774.167969 152.339844 774.699219 151.59375 775.25 150.859375 C 775.804688 150.125 776.382812 149.40625 776.976562 148.707031 C 777.574219 148.007812 778.191406 147.324219 778.828125 146.664062 C 779.464844 146 780.121094 145.355469 780.796875 144.730469 C 781.472656 144.109375 782.164062 143.503906 782.875 142.921875 C 783.589844 142.339844 784.316406 141.777344 785.0625 141.238281 C 785.804688 140.699219 786.566406 140.183594 787.339844 139.6875 C 788.117188 139.195312 788.90625 138.722656 789.710938 138.277344 C 790.511719 137.828125 791.328125 137.40625 792.15625 137.007812 C 792.984375 136.609375 793.824219 136.234375 794.675781 135.886719 C 795.527344 135.539062 796.386719 135.214844 797.257812 134.917969 C 798.128906 134.621094 799.007812 134.347656 799.890625 134.101562 C 800.777344 133.859375 801.671875 133.640625 802.570312 133.445312 C 803.46875 133.253906 804.375 133.089844 805.285156 132.953125 C 806.191406 132.8125 807.105469 132.703125 808.019531 132.617188 C 808.9375 132.535156 809.851562 132.476562 810.773438 132.449219 C 811.691406 132.417969 812.609375 132.417969 813.53125 132.441406 C 814.449219 132.46875 815.367188 132.519531 816.28125 132.597656 C 817.199219 132.679688 818.113281 132.785156 819.019531 132.921875 C 819.929688 133.054688 820.835938 133.214844 821.734375 133.40625 C 822.636719 133.59375 823.53125 133.808594 824.417969 134.046875 L 846.015625 139.953125 C 856.199219 142.742188 866.566406 144.054688 877.121094 143.890625 C 876.9375 145.355469 876.789062 146.820312 876.683594 148.292969 C 876.578125 149.765625 876.511719 151.238281 876.484375 152.714844 C 876.457031 154.191406 876.46875 155.667969 876.515625 157.140625 C 876.566406 158.617188 876.65625 160.089844 876.785156 161.558594 C 876.914062 163.03125 877.082031 164.496094 877.285156 165.957031 C 877.492188 167.417969 877.738281 168.875 878.019531 170.324219 C 878.304688 171.769531 878.625 173.210938 878.984375 174.640625 C 879.34375 176.074219 879.742188 177.496094 880.175781 178.90625 C 880.609375 180.316406 881.082031 181.714844 881.589844 183.097656 C 882.097656 184.484375 882.644531 185.855469 883.226562 187.210938 C 883.808594 188.566406 884.425781 189.910156 885.078125 191.230469 C 885.730469 192.554688 886.417969 193.863281 887.136719 195.148438 C 887.859375 196.4375 888.613281 197.703125 889.402344 198.953125 C 890.191406 200.199219 891.015625 201.425781 891.867188 202.628906 C 892.722656 203.832031 893.605469 205.011719 894.523438 206.167969 C 895.441406 207.324219 896.386719 208.457031 897.363281 209.566406 C 898.339844 210.671875 899.34375 211.75 900.378906 212.804688 C 901.410156 213.859375 902.472656 214.882812 903.558594 215.882812 C 904.648438 216.878906 905.761719 217.847656 906.902344 218.785156 C 908.039062 219.722656 909.203125 220.628906 910.390625 221.507812 C 911.578125 222.382812 912.789062 223.226562 914.019531 224.039062 C 915.253906 224.851562 916.503906 225.632812 917.777344 226.378906 C 919.050781 227.125 920.34375 227.835938 921.65625 228.515625 C 922.964844 229.191406 924.292969 229.832031 925.640625 230.441406 C 926.984375 231.046875 928.34375 231.621094 929.722656 232.15625 C 931.097656 232.691406 932.484375 233.1875 933.886719 233.648438 C 935.289062 234.109375 936.703125 234.535156 938.125 234.921875 C 939.550781 235.308594 940.984375 235.65625 942.425781 235.96875 C 943.871094 236.277344 945.320312 236.550781 946.777344 236.785156 C 948.234375 237.019531 949.695312 237.210938 951.164062 237.367188 C 952.632812 237.523438 954.101562 237.640625 955.578125 237.71875 C 957.050781 237.800781 958.523438 237.839844 960 237.839844 C 964.222656 237.839844 968.421875 237.519531 972.59375 236.886719 C 971.519531 239.585938 970.402344 242.257812 969.203125 244.871094 Z M 960 221.964844 C 958.894531 221.960938 957.789062 221.929688 956.683594 221.871094 C 955.578125 221.8125 954.476562 221.726562 953.375 221.613281 C 952.273438 221.5 951.175781 221.359375 950.082031 221.191406 C 948.988281 221.023438 947.898438 220.832031 946.8125 220.613281 C 945.726562 220.390625 944.648438 220.144531 943.578125 219.871094 C 942.503906 219.597656 941.4375 219.300781 940.382812 218.976562 C 939.324219 218.648438 938.273438 218.300781 937.234375 217.921875 C 936.191406 217.546875 935.160156 217.144531 934.140625 216.71875 C 933.121094 216.289062 932.109375 215.839844 931.109375 215.363281 C 930.109375 214.886719 929.125 214.386719 928.148438 213.859375 C 927.175781 213.335938 926.214844 212.789062 925.265625 212.214844 C 924.320312 211.644531 923.386719 211.050781 922.46875 210.433594 C 921.550781 209.816406 920.644531 209.175781 919.757812 208.515625 C 918.871094 207.851562 918 207.167969 917.148438 206.464844 C 916.292969 205.761719 915.457031 205.035156 914.640625 204.289062 C 913.820312 203.546875 913.019531 202.78125 912.242188 201.996094 C 911.460938 201.210938 910.699219 200.410156 909.957031 199.585938 C 909.214844 198.765625 908.492188 197.925781 907.792969 197.070312 C 907.09375 196.214844 906.414062 195.339844 905.757812 194.449219 C 905.097656 193.558594 904.464844 192.652344 903.851562 191.730469 C 903.234375 190.8125 902.644531 189.875 902.078125 188.925781 C 901.511719 187.976562 900.964844 187.011719 900.445312 186.035156 C 899.925781 185.058594 899.429688 184.070312 898.957031 183.066406 C 898.484375 182.066406 898.039062 181.054688 897.617188 180.03125 C 897.195312 179.007812 896.796875 177.976562 896.425781 176.933594 C 896.054688 175.890625 895.707031 174.839844 895.386719 173.78125 C 895.066406 172.722656 894.773438 171.65625 894.503906 170.582031 C 894.234375 169.507812 893.992188 168.425781 893.777344 167.34375 C 893.5625 166.257812 893.375 165.164062 893.210938 164.070312 C 893.050781 162.976562 892.914062 161.878906 892.808594 160.777344 C 892.699219 159.675781 892.617188 158.570312 892.5625 157.464844 C 892.507812 156.359375 892.484375 155.253906 892.484375 154.148438 C 892.484375 153.042969 892.507812 151.933594 892.5625 150.828125 C 892.617188 149.722656 892.699219 148.621094 892.808594 147.519531 C 892.914062 146.417969 893.050781 145.320312 893.210938 144.226562 C 893.375 143.128906 893.5625 142.039062 893.777344 140.953125 C 893.992188 139.867188 894.234375 138.789062 894.503906 137.714844 C 894.773438 136.640625 895.066406 135.574219 895.386719 134.515625 C 895.707031 133.457031 896.054688 132.40625 896.425781 131.363281 C 896.796875 130.320312 897.195312 129.289062 897.617188 128.265625 C 898.039062 127.242188 898.484375 126.230469 898.957031 125.226562 C 899.429688 124.226562 899.925781 123.238281 900.445312 122.261719 C 900.964844 121.285156 901.511719 120.320312 902.078125 119.371094 C 902.644531 118.421875 903.234375 117.484375 903.851562 116.5625 C 904.464844 115.640625 905.097656 114.738281 905.757812 113.847656 C 906.414062 112.957031 907.09375 112.082031 907.792969 111.226562 C 908.492188 110.367188 909.214844 109.53125 909.957031 108.707031 C 910.699219 107.886719 911.460938 107.082031 912.242188 106.300781 C 913.019531 105.515625 913.820312 104.75 914.640625 104.003906 C 915.457031 103.257812 916.292969 102.535156 917.148438 101.832031 C 918 101.125 918.871094 100.445312 919.757812 99.78125 C 920.644531 99.121094 921.550781 98.480469 922.46875 97.863281 C 923.386719 97.246094 924.320312 96.652344 925.265625 96.078125 C 926.214844 95.507812 927.175781 94.960938 928.148438 94.433594 C 929.125 93.910156 930.109375 93.410156 931.109375 92.933594 C 932.109375 92.457031 933.121094 92.003906 934.140625 91.578125 C 935.160156 91.152344 936.191406 90.75 937.234375 90.375 C 938.273438 89.996094 939.324219 89.644531 940.382812 89.320312 C 941.4375 88.996094 942.503906 88.695312 943.578125 88.425781 C 944.648438 88.152344 945.726562 87.90625 946.8125 87.683594 C 947.898438 87.464844 948.988281 87.269531 950.082031 87.105469 C 951.175781 86.9375 952.273438 86.796875 953.375 86.683594 C 954.476562 86.570312 955.578125 86.484375 956.683594 86.425781 C 957.789062 86.367188 958.894531 86.335938 960 86.332031 C 965.265625 86.316406 970.457031 86.914062 975.582031 88.125 C 980.703125 89.335938 985.613281 91.125 990.3125 93.496094 C 992 94.347656 993.652344 95.265625 995.261719 96.253906 C 996.875 97.242188 998.441406 98.292969 999.964844 99.414062 C 1001.488281 100.53125 1002.964844 101.710938 1004.386719 102.953125 C 1005.8125 104.195312 1007.183594 105.496094 1008.5 106.851562 C 1009.816406 108.207031 1011.074219 109.617188 1012.273438 111.078125 C 1013.472656 112.539062 1014.605469 114.046875 1015.679688 115.601562 C 1016.753906 117.160156 1017.757812 118.757812 1018.699219 120.398438 C 1019.636719 122.039062 1020.503906 123.714844 1021.304688 125.429688 C 1022.101562 127.140625 1022.828125 128.882812 1023.484375 130.65625 C 1024.136719 132.433594 1024.714844 134.230469 1025.21875 136.050781 C 1025.71875 137.875 1026.144531 139.714844 1026.496094 141.570312 C 1026.84375 143.429688 1027.117188 145.296875 1027.308594 147.175781 C 1027.503906 149.058594 1027.617188 150.941406 1027.652344 152.832031 C 1027.6875 154.722656 1027.644531 156.609375 1027.523438 158.496094 C 1027.398438 160.382812 1027.199219 162.261719 1026.921875 164.128906 C 1026.640625 166 1026.285156 167.851562 1025.851562 169.691406 C 1025.417969 171.53125 1024.90625 173.351562 1024.320312 175.148438 C 1023.734375 176.945312 1023.074219 178.714844 1022.339844 180.457031 C 1021.605469 182.199219 1020.800781 183.90625 1019.925781 185.582031 C 1019.050781 187.253906 1018.105469 188.890625 1017.089844 190.484375 C 1016.078125 192.082031 1015 193.632812 1013.855469 195.136719 C 1012.714844 196.644531 1011.511719 198.097656 1010.246094 199.503906 C 1008.980469 200.90625 1007.660156 202.257812 1006.285156 203.550781 C 1004.90625 204.847656 1003.476562 206.082031 1001.996094 207.257812 C 1000.515625 208.433594 998.988281 209.542969 997.417969 210.589844 C 995.84375 211.636719 994.230469 212.617188 992.574219 213.53125 C 990.917969 214.445312 989.230469 215.285156 987.503906 216.058594 C 985.777344 216.828125 984.023438 217.527344 982.238281 218.152344 C 980.457031 218.777344 978.648438 219.324219 976.820312 219.800781 C 974.988281 220.273438 973.144531 220.667969 971.28125 220.988281 C 969.417969 221.308594 967.542969 221.550781 965.660156 221.714844 C 963.777344 221.875 961.890625 221.960938 960 221.964844 Z M 960 221.964844 " fill-opacity="1" fill-rule="nonzero"/></g><g clip-path="url(#771c2b1fd6)"><path fill="#5bd3c7" d="M 756.089844 472.058594 C 735.207031 467.066406 714.042969 458.570312 692.660156 446.828125 L 677.140625 438.164062 L 677.140625 416.121094 C 696.980469 400.644531 712.046875 377.375 715.753906 350.429688 C 715.832031 349.859375 715.777344 349.285156 715.84375 348.710938 L 725.566406 340.6875 C 726.902344 339.605469 728.144531 338.421875 729.292969 337.140625 C 730.441406 335.859375 731.480469 334.496094 732.414062 333.050781 C 733.34375 331.601562 734.152344 330.089844 734.84375 328.515625 C 735.535156 326.9375 736.097656 325.320312 736.527344 323.652344 C 736.960938 321.988281 737.261719 320.300781 737.421875 318.585938 C 737.585938 316.875 737.613281 315.160156 737.503906 313.441406 C 737.398438 311.726562 737.152344 310.027344 736.773438 308.351562 C 736.394531 306.671875 735.882812 305.035156 735.246094 303.4375 C 733.023438 297.902344 728.726562 293.515625 724.757812 290.265625 L 724.757812 225.058594 C 724.757812 188.851562 694.988281 158.871094 658.753906 158.871094 L 573.003906 158.871094 C 536.765625 158.871094 507.832031 188.851562 507.832031 225.066406 L 507.832031 292.238281 C 505.917969 293.75 504.234375 295.480469 502.777344 297.433594 C 501.320312 299.386719 500.136719 301.496094 499.234375 303.757812 C 498.585938 305.347656 498.0625 306.980469 497.671875 308.652344 C 497.28125 310.324219 497.027344 312.019531 496.90625 313.734375 C 496.785156 315.445312 496.800781 317.160156 496.953125 318.871094 C 497.105469 320.582031 497.394531 322.269531 497.816406 323.9375 C 498.238281 325.601562 498.789062 327.222656 499.46875 328.800781 C 500.148438 330.378906 500.949219 331.894531 501.867188 333.34375 C 502.789062 334.792969 503.820312 336.160156 504.960938 337.449219 C 506.097656 338.734375 507.332031 339.921875 508.660156 341.011719 L 518.6875 349.066406 C 519.101562 352.386719 519.683594 355.679688 520.429688 358.941406 C 521.175781 362.203125 522.085938 365.417969 523.15625 368.585938 C 524.230469 371.757812 525.460938 374.863281 526.851562 377.90625 C 528.238281 380.953125 529.777344 383.917969 531.464844 386.808594 C 533.15625 389.695312 534.988281 392.492188 536.960938 395.195312 C 538.933594 397.898438 541.035156 400.492188 543.273438 402.984375 C 545.507812 405.472656 547.867188 407.84375 550.34375 410.09375 C 552.820312 412.34375 555.402344 414.460938 558.097656 416.449219 L 558.097656 440.816406 L 537.789062 450.867188 C 518.6875 460.246094 498.765625 467.3125 478.019531 472.0625 C 475.101562 472.753906 472.21875 473.5625 469.371094 474.496094 C 466.519531 475.429688 463.714844 476.476562 460.953125 477.644531 C 458.191406 478.8125 455.484375 480.09375 452.828125 481.488281 C 450.175781 482.882812 447.582031 484.386719 445.054688 485.996094 C 442.527344 487.609375 440.070312 489.324219 437.683594 491.140625 C 435.300781 492.957031 432.996094 494.871094 430.769531 496.882812 C 428.546875 498.890625 426.410156 500.992188 424.359375 503.183594 C 422.3125 505.371094 420.359375 507.644531 418.5 509.996094 C 416.644531 512.347656 414.886719 514.777344 413.230469 517.277344 C 411.578125 519.777344 410.027344 522.339844 408.589844 524.972656 C 407.148438 527.601562 405.820312 530.289062 404.605469 533.027344 C 403.390625 535.769531 402.292969 538.558594 401.3125 541.390625 C 400.332031 544.222656 399.46875 547.09375 398.730469 550 C 397.988281 552.902344 397.371094 555.835938 396.875 558.792969 C 396.378906 561.75 396.007812 564.722656 395.761719 567.710938 C 395.515625 570.699219 395.398438 573.691406 395.402344 576.691406 L 395.402344 710.242188 C 395.398438 710.765625 395.449219 711.289062 395.546875 711.804688 C 395.648438 712.324219 395.796875 712.824219 395.992188 713.3125 C 396.191406 713.800781 396.433594 714.265625 396.722656 714.707031 C 397.011719 715.148438 397.335938 715.554688 397.707031 715.933594 C 398.074219 716.3125 398.472656 716.648438 398.90625 716.949219 C 399.339844 717.246094 399.796875 717.5 400.28125 717.710938 C 400.765625 717.921875 401.261719 718.082031 401.777344 718.195312 C 402.289062 718.308594 402.8125 718.371094 403.335938 718.382812 L 830.699219 718.382812 C 831.222656 718.371094 831.738281 718.304688 832.25 718.191406 C 832.757812 718.078125 833.253906 717.914062 833.734375 717.703125 C 834.210938 717.492188 834.667969 717.238281 835.09375 716.9375 C 835.523438 716.636719 835.917969 716.296875 836.28125 715.921875 C 836.644531 715.542969 836.964844 715.132812 837.25 714.695312 C 837.53125 714.253906 837.769531 713.789062 837.960938 713.300781 C 838.152344 712.816406 838.292969 712.3125 838.386719 711.796875 C 838.480469 711.285156 838.519531 710.765625 838.511719 710.242188 L 838.511719 576.691406 C 838.523438 573.695312 838.40625 570.703125 838.164062 567.714844 C 837.925781 564.730469 837.558594 561.757812 837.070312 558.804688 C 836.578125 555.847656 835.964844 552.917969 835.230469 550.011719 C 834.496094 547.109375 833.636719 544.242188 832.660156 541.410156 C 831.683594 538.574219 830.59375 535.789062 829.382812 533.046875 C 828.171875 530.308594 826.847656 527.621094 825.414062 524.992188 C 823.980469 522.363281 822.4375 519.796875 820.785156 517.296875 C 819.136719 514.796875 817.382812 512.371094 815.527344 510.015625 C 813.675781 507.664062 811.726562 505.390625 809.679688 503.203125 C 807.636719 501.011719 805.503906 498.910156 803.285156 496.898438 C 801.0625 494.886719 798.761719 492.972656 796.378906 491.15625 C 794 489.335938 791.546875 487.621094 789.019531 486.007812 C 786.496094 484.398438 783.90625 482.894531 781.257812 481.496094 C 778.605469 480.101562 775.902344 478.820312 773.140625 477.652344 C 770.382812 476.484375 767.582031 475.433594 764.734375 474.5 C 761.886719 473.566406 759.007812 472.753906 756.089844 472.058594 Z M 689.746094 463.386719 L 672.90625 512.375 L 636.453125 484.308594 C 650.183594 479.828125 663.195312 470.570312 674.800781 456.886719 C 675.113281 456.515625 675.390625 456.117188 675.628906 455.695312 Z M 641.691406 508.351562 L 629.609375 538.492188 L 604.363281 538.492188 L 592.082031 508.699219 L 617.101562 489.433594 Z M 573.96875 448.78125 L 573.96875 426.109375 C 577.355469 427.761719 580.828125 429.21875 584.382812 430.476562 C 587.9375 431.734375 591.554688 432.785156 595.230469 433.632812 C 598.90625 434.476562 602.617188 435.109375 606.363281 435.53125 C 610.113281 435.949219 613.871094 436.15625 617.640625 436.148438 C 621.414062 436.140625 625.171875 435.914062 628.917969 435.476562 C 632.664062 435.039062 636.371094 434.390625 640.042969 433.527344 C 643.714844 432.664062 647.324219 431.597656 650.871094 430.324219 C 654.421875 429.046875 657.886719 427.574219 661.269531 425.90625 L 661.269531 448.789062 C 648.039062 463.699219 632.882812 471.558594 617.617188 471.558594 C 602.351562 471.558594 587.195312 463.691406 573.96875 448.78125 Z M 720.339844 309.355469 C 720.671875 310.167969 720.933594 311.007812 721.128906 311.863281 C 721.328125 312.722656 721.453125 313.589844 721.511719 314.46875 C 721.570312 315.34375 721.5625 316.222656 721.480469 317.097656 C 721.398438 317.976562 721.25 318.839844 721.03125 319.691406 C 720.8125 320.542969 720.527344 321.375 720.175781 322.179688 C 719.824219 322.988281 719.410156 323.761719 718.9375 324.503906 C 718.464844 325.246094 717.933594 325.945312 717.347656 326.601562 C 716.761719 327.257812 716.128906 327.863281 715.445312 328.417969 L 715.367188 328.484375 L 711.472656 301.007812 C 713.4375 301.769531 715.1875 302.871094 716.722656 304.316406 C 718.253906 305.761719 719.460938 307.4375 720.339844 309.355469 Z M 518.625 328.769531 L 518.585938 328.734375 C 517.902344 328.179688 517.269531 327.574219 516.683594 326.917969 C 516.097656 326.257812 515.566406 325.558594 515.09375 324.820312 C 514.621094 324.078125 514.207031 323.304688 513.855469 322.496094 C 513.503906 321.6875 513.21875 320.859375 513 320.007812 C 512.78125 319.15625 512.632812 318.289062 512.550781 317.414062 C 512.46875 316.539062 512.460938 315.660156 512.519531 314.78125 C 512.574219 313.90625 512.703125 313.035156 512.902344 312.179688 C 513.097656 311.320312 513.359375 310.484375 513.691406 309.667969 C 514.546875 307.730469 515.742188 306.03125 517.273438 304.566406 C 518.804688 303.101562 520.554688 301.984375 522.527344 301.214844 Z M 525.226562 284.230469 C 524.621094 284.328125 523.699219 284.289062 523.699219 284.414062 L 523.699219 225.066406 C 523.703125 197.605469 545.519531 174.746094 573.003906 174.746094 L 658.753906 174.746094 C 660.398438 174.757812 662.035156 174.851562 663.667969 175.027344 C 665.300781 175.199219 666.917969 175.453125 668.527344 175.785156 C 670.136719 176.117188 671.722656 176.527344 673.292969 177.011719 C 674.859375 177.5 676.402344 178.058594 677.914062 178.695312 C 679.429688 179.332031 680.90625 180.042969 682.351562 180.820312 C 683.796875 181.601562 685.199219 182.453125 686.5625 183.367188 C 687.921875 184.285156 689.238281 185.265625 690.503906 186.3125 C 691.769531 187.355469 692.984375 188.460938 694.140625 189.625 C 695.300781 190.789062 696.398438 192.003906 697.441406 193.273438 C 698.480469 194.542969 699.457031 195.863281 700.367188 197.226562 C 701.28125 198.59375 702.125 200 702.898438 201.449219 C 703.671875 202.894531 704.375 204.375 705.007812 205.894531 C 705.636719 207.410156 706.191406 208.953125 706.671875 210.523438 C 707.152344 212.089844 707.558594 213.679688 707.882812 215.289062 C 708.207031 216.898438 708.453125 218.519531 708.621094 220.15625 C 708.789062 221.789062 708.878906 223.425781 708.886719 225.066406 L 708.886719 280.695312 L 702.828125 239.246094 C 702.632812 237.757812 702.375 236.285156 702.046875 234.820312 C 701.71875 233.355469 701.324219 231.910156 700.867188 230.480469 C 700.40625 229.050781 699.886719 227.648438 699.300781 226.265625 C 698.714844 224.886719 698.066406 223.53125 697.359375 222.210938 C 696.652344 220.886719 695.886719 219.597656 695.0625 218.34375 C 694.238281 217.089844 693.359375 215.878906 692.425781 214.703125 C 691.488281 213.53125 690.503906 212.398438 689.46875 211.316406 C 688.433594 210.230469 687.351562 209.195312 686.21875 208.207031 C 685.089844 207.21875 683.917969 206.285156 682.703125 205.402344 C 681.492188 204.523438 680.238281 203.699219 678.949219 202.929688 C 677.660156 202.160156 676.339844 201.453125 674.988281 200.804688 C 673.636719 200.15625 672.257812 199.570312 670.851562 199.042969 C 669.445312 198.519531 668.019531 198.0625 666.570312 197.664062 C 665.125 197.269531 663.660156 196.941406 662.183594 196.679688 C 660.707031 196.414062 659.222656 196.21875 657.726562 196.089844 C 656.230469 195.960938 654.734375 195.902344 653.234375 195.90625 L 651.25 195.90625 L 644.273438 199.328125 C 641.988281 200.550781 639.632812 201.613281 637.207031 202.523438 C 634.78125 203.433594 632.304688 204.175781 629.777344 204.757812 C 627.253906 205.339844 624.703125 205.75 622.121094 205.992188 C 619.542969 206.234375 616.957031 206.304688 614.371094 206.203125 C 611.78125 206.101562 609.210938 205.832031 606.65625 205.390625 C 604.105469 204.949219 601.59375 204.339844 599.121094 203.5625 C 596.648438 202.789062 594.238281 201.855469 591.890625 200.757812 C 589.542969 199.664062 587.277344 198.417969 585.09375 197.023438 L 583.136719 195.90625 L 580.800781 195.90625 C 579.304688 195.902344 577.8125 195.960938 576.324219 196.089844 C 574.832031 196.21875 573.351562 196.414062 571.878906 196.675781 C 570.40625 196.9375 568.949219 197.265625 567.503906 197.660156 C 566.0625 198.050781 564.640625 198.511719 563.238281 199.03125 C 561.835938 199.554688 560.460938 200.140625 559.113281 200.785156 C 557.765625 201.433594 556.449219 202.140625 555.164062 202.90625 C 553.878906 203.671875 552.632812 204.492188 551.421875 205.371094 C 550.210938 206.25 549.042969 207.183594 547.917969 208.167969 C 546.789062 209.152344 545.710938 210.183594 544.679688 211.265625 C 543.644531 212.347656 542.664062 213.472656 541.734375 214.644531 C 540.800781 215.816406 539.925781 217.027344 539.105469 218.277344 C 538.285156 219.527344 537.519531 220.808594 536.816406 222.128906 C 536.109375 223.449219 535.464844 224.796875 534.882812 226.171875 C 534.296875 227.550781 533.777344 228.953125 533.320312 230.375 C 532.867188 231.800781 532.472656 233.242188 532.148438 234.703125 C 531.820312 236.160156 531.5625 237.632812 531.367188 239.117188 Z M 534.003906 346.476562 C 533.453125 341.355469 533.558594 336.246094 534.320312 331.148438 L 547.097656 240.921875 C 547.21875 239.949219 547.382812 238.988281 547.589844 238.03125 C 547.796875 237.074219 548.042969 236.128906 548.332031 235.191406 C 548.621094 234.257812 548.949219 233.335938 549.316406 232.429688 C 549.683594 231.523438 550.089844 230.632812 550.53125 229.761719 C 550.976562 228.890625 551.457031 228.039062 551.976562 227.207031 C 552.492188 226.378906 553.046875 225.570312 553.632812 224.789062 C 554.222656 224.007812 554.839844 223.25 555.492188 222.519531 C 556.144531 221.792969 556.828125 221.09375 557.542969 220.421875 C 558.253906 219.75 558.996094 219.113281 559.765625 218.507812 C 560.53125 217.902344 561.324219 217.328125 562.140625 216.789062 C 562.960938 216.253906 563.796875 215.75 564.660156 215.285156 C 565.519531 214.820312 566.398438 214.394531 567.296875 214.003906 C 568.195312 213.613281 569.109375 213.261719 570.035156 212.953125 C 570.964844 212.640625 571.902344 212.371094 572.855469 212.140625 C 573.804688 211.914062 574.765625 211.722656 575.730469 211.578125 C 576.699219 211.429688 577.671875 211.324219 578.648438 211.261719 C 581.386719 212.894531 584.21875 214.34375 587.144531 215.613281 C 590.070312 216.878906 593.0625 217.957031 596.125 218.839844 C 599.1875 219.722656 602.296875 220.40625 605.445312 220.894531 C 608.597656 221.378906 611.765625 221.660156 614.953125 221.738281 C 618.140625 221.816406 621.320312 221.6875 624.492188 221.359375 C 627.660156 221.027344 630.796875 220.496094 633.902344 219.761719 C 637.003906 219.03125 640.046875 218.101562 643.03125 216.976562 C 646.011719 215.855469 648.910156 214.542969 651.726562 213.046875 L 655.113281 211.246094 C 656.097656 211.304688 657.078125 211.402344 658.054688 211.542969 C 659.03125 211.6875 660 211.871094 660.957031 212.097656 C 661.917969 212.324219 662.867188 212.589844 663.804688 212.898438 C 664.742188 213.207031 665.664062 213.554688 666.570312 213.945312 C 667.476562 214.332031 668.367188 214.761719 669.234375 215.226562 C 670.105469 215.691406 670.953125 216.195312 671.777344 216.734375 C 672.605469 217.273438 673.40625 217.847656 674.179688 218.457031 C 674.957031 219.066406 675.707031 219.707031 676.425781 220.382812 C 677.144531 221.058594 677.835938 221.761719 678.496094 222.496094 C 679.152344 223.230469 679.78125 223.992188 680.371094 224.78125 C 680.964844 225.566406 681.523438 226.382812 682.042969 227.21875 C 682.566406 228.054688 683.050781 228.914062 683.5 229.792969 C 683.945312 230.671875 684.355469 231.570312 684.726562 232.484375 C 685.09375 233.398438 685.421875 234.328125 685.710938 235.269531 C 686 236.214844 686.25 237.167969 686.453125 238.132812 C 686.660156 239.097656 686.824219 240.070312 686.945312 241.046875 L 699.6875 331.042969 C 700.527344 336.777344 700.5625 342.519531 699.796875 348.265625 C 699.449219 350.753906 698.988281 353.222656 698.417969 355.671875 C 697.847656 358.121094 697.167969 360.539062 696.378906 362.925781 C 695.589844 365.3125 694.695312 367.660156 693.695312 369.964844 C 692.691406 372.273438 691.589844 374.527344 690.386719 376.734375 C 689.179688 378.941406 687.878906 381.089844 686.480469 383.179688 C 685.085938 385.269531 683.59375 387.289062 682.015625 389.246094 C 680.433594 391.199219 678.769531 393.082031 677.019531 394.886719 C 675.269531 396.691406 673.441406 398.410156 671.535156 400.050781 C 669.628906 401.691406 667.652344 403.242188 665.609375 404.703125 C 663.5625 406.164062 661.453125 407.53125 659.285156 408.804688 C 657.117188 410.074219 654.894531 411.246094 652.621094 412.316406 C 650.347656 413.386719 648.027344 414.355469 645.667969 415.214844 C 643.304688 416.078125 640.910156 416.832031 638.480469 417.476562 C 636.050781 418.121094 633.597656 418.65625 631.117188 419.082031 C 628.640625 419.503906 626.148438 419.816406 623.644531 420.015625 C 621.136719 420.214844 618.625 420.300781 616.113281 420.273438 C 613.597656 420.246094 611.089844 420.109375 608.589844 419.855469 C 606.089844 419.601562 603.605469 419.234375 601.136719 418.757812 C 598.667969 418.28125 596.226562 417.691406 593.8125 416.996094 C 591.394531 416.296875 589.015625 415.492188 586.675781 414.578125 C 584.332031 413.667969 582.035156 412.648438 579.785156 411.53125 C 577.535156 410.410156 575.339844 409.191406 573.195312 407.875 C 571.054688 406.554688 568.980469 405.144531 566.964844 403.640625 C 564.953125 402.132812 563.011719 400.542969 561.140625 398.859375 C 559.269531 397.179688 557.480469 395.417969 555.769531 393.578125 C 554.058594 391.734375 552.433594 389.820312 550.894531 387.832031 C 549.359375 385.84375 547.914062 383.789062 546.558594 381.667969 C 545.207031 379.550781 543.953125 377.375 542.796875 375.144531 C 541.640625 372.910156 540.585938 370.632812 539.636719 368.304688 C 538.683594 365.976562 537.839844 363.609375 537.101562 361.207031 C 536.367188 358.804688 535.738281 356.371094 535.222656 353.914062 C 534.703125 351.453125 534.296875 348.972656 534.003906 346.476562 Z M 544.628906 465.054688 L 559.882812 457.402344 C 571.367188 470.789062 584.210938 479.878906 597.757812 484.304688 L 561.238281 512.441406 L 544.449219 465.140625 C 544.511719 465.113281 544.574219 465.082031 544.632812 465.054688 Z M 490.636719 702.507812 L 490.636719 619.222656 C 490.644531 618.703125 490.601562 618.1875 490.511719 617.671875 C 490.421875 617.160156 490.28125 616.660156 490.09375 616.171875 C 489.90625 615.6875 489.675781 615.222656 489.398438 614.78125 C 489.125 614.339844 488.808594 613.925781 488.453125 613.546875 C 488.097656 613.164062 487.710938 612.820312 487.289062 612.511719 C 486.867188 612.207031 486.421875 611.941406 485.949219 611.71875 C 485.476562 611.496094 484.988281 611.324219 484.484375 611.195312 C 483.980469 611.066406 483.464844 610.988281 482.945312 610.957031 C 482.414062 610.941406 481.886719 610.980469 481.363281 611.070312 C 480.839844 611.160156 480.328125 611.300781 479.832031 611.492188 C 479.335938 611.683594 478.867188 611.921875 478.417969 612.210938 C 477.972656 612.496094 477.554688 612.824219 477.175781 613.195312 C 476.792969 613.566406 476.453125 613.96875 476.152344 614.40625 C 475.851562 614.847656 475.597656 615.3125 475.390625 615.800781 C 475.183594 616.289062 475.027344 616.796875 474.921875 617.316406 C 474.816406 617.835938 474.765625 618.363281 474.765625 618.894531 L 474.765625 702.507812 L 411.273438 702.507812 L 411.273438 576.691406 C 411.265625 574.136719 411.367188 571.585938 411.574219 569.039062 C 411.78125 566.492188 412.09375 563.960938 412.511719 561.4375 C 412.929688 558.917969 413.453125 556.421875 414.082031 553.945312 C 414.710938 551.46875 415.441406 549.023438 416.273438 546.609375 C 417.109375 544.195312 418.042969 541.820312 419.074219 539.480469 C 420.105469 537.144531 421.234375 534.855469 422.460938 532.613281 C 423.683594 530.371094 425 528.1875 426.410156 526.054688 C 427.816406 523.921875 429.3125 521.855469 430.890625 519.847656 C 432.472656 517.839844 434.136719 515.90625 435.878906 514.039062 C 437.625 512.171875 439.441406 510.382812 441.335938 508.667969 C 443.230469 506.953125 445.191406 505.320312 447.222656 503.769531 C 449.253906 502.21875 451.347656 500.757812 453.5 499.382812 C 455.652344 498.011719 457.859375 496.726562 460.121094 495.539062 C 462.382812 494.347656 464.6875 493.257812 467.039062 492.261719 C 469.394531 491.265625 471.785156 490.371094 474.210938 489.574219 C 476.636719 488.777344 479.09375 488.085938 481.582031 487.496094 C 483.199219 487.109375 484.769531 487.015625 486.363281 486.613281 L 512.816406 543.160156 C 513.140625 543.847656 513.550781 544.472656 514.050781 545.042969 C 514.546875 545.613281 515.117188 546.101562 515.757812 546.507812 C 516.394531 546.914062 517.078125 547.222656 517.804688 547.433594 C 518.53125 547.644531 519.273438 547.75 520.03125 547.75 L 520.042969 547.75 C 520.375 547.75 520.707031 547.730469 521.039062 547.6875 C 521.371094 547.648438 521.695312 547.585938 522.019531 547.5 C 522.34375 547.417969 522.660156 547.316406 522.96875 547.191406 C 523.28125 547.070312 523.582031 546.929688 523.875 546.769531 C 524.167969 546.609375 524.449219 546.429688 524.71875 546.234375 C 524.988281 546.039062 525.246094 545.824219 525.488281 545.597656 C 525.730469 545.367188 525.960938 545.125 526.171875 544.871094 C 526.386719 544.613281 526.582031 544.34375 526.761719 544.0625 C 526.941406 543.78125 527.101562 543.488281 527.242188 543.1875 C 527.386719 542.886719 527.507812 542.574219 527.613281 542.257812 C 527.714844 541.941406 527.796875 541.617188 527.863281 541.289062 C 527.925781 540.964844 527.964844 540.632812 527.988281 540.300781 C 528.007812 539.96875 528.011719 539.632812 527.988281 539.300781 C 527.96875 538.96875 527.929688 538.636719 527.867188 538.308594 C 527.804688 537.980469 527.722656 537.660156 527.621094 537.339844 C 527.515625 537.023438 527.394531 536.714844 527.253906 536.410156 L 501.871094 482.1875 C 511.421875 479.265625 520.792969 475.847656 529.984375 471.933594 L 549.945312 528.117188 C 550.050781 528.410156 550.171875 528.695312 550.3125 528.972656 C 550.453125 529.253906 550.609375 529.523438 550.777344 529.78125 C 550.949219 530.042969 551.136719 530.292969 551.335938 530.53125 C 551.539062 530.769531 551.75 530.996094 551.980469 531.207031 C 552.207031 531.421875 552.445312 531.621094 552.695312 531.804688 C 552.945312 531.992188 553.207031 532.160156 553.476562 532.316406 C 553.75 532.46875 554.027344 532.609375 554.316406 532.730469 C 554.601562 532.851562 554.894531 532.957031 555.195312 533.042969 C 555.492188 533.128906 555.796875 533.199219 556.105469 533.25 C 556.414062 533.300781 556.722656 533.335938 557.03125 533.351562 C 557.34375 533.363281 557.65625 533.359375 557.964844 533.339844 C 558.277344 533.316406 558.585938 533.277344 558.890625 533.21875 C 559.199219 533.160156 559.5 533.085938 559.796875 532.992188 C 560.09375 532.898438 560.386719 532.785156 560.667969 532.660156 C 560.953125 532.53125 561.230469 532.386719 561.496094 532.226562 C 561.765625 532.066406 562.019531 531.890625 562.269531 531.699219 L 579.050781 518.765625 L 591.714844 549.492188 C 591.808594 549.71875 591.929688 549.925781 592.039062 550.140625 L 579.390625 647.246094 L 553.347656 592 C 553.027344 591.316406 552.613281 590.695312 552.117188 590.128906 C 551.617188 589.5625 551.050781 589.078125 550.410156 588.671875 C 549.773438 588.269531 549.09375 587.960938 548.371094 587.75 C 547.644531 587.539062 546.90625 587.433594 546.152344 587.433594 C 545.816406 587.433594 545.484375 587.453125 545.152344 587.496094 C 544.820312 587.539062 544.492188 587.601562 544.171875 587.683594 C 543.847656 587.765625 543.53125 587.871094 543.21875 587.992188 C 542.90625 588.117188 542.605469 588.257812 542.3125 588.417969 C 542.019531 588.578125 541.738281 588.757812 541.46875 588.953125 C 541.199219 589.152344 540.941406 589.363281 540.699219 589.59375 C 540.453125 589.820312 540.226562 590.0625 540.011719 590.320312 C 539.800781 590.578125 539.605469 590.847656 539.425781 591.132812 C 539.246094 591.414062 539.085938 591.707031 538.945312 592.007812 C 538.800781 592.3125 538.679688 592.621094 538.574219 592.9375 C 538.472656 593.257812 538.390625 593.578125 538.328125 593.90625 C 538.265625 594.234375 538.222656 594.566406 538.203125 594.902344 C 538.179688 595.234375 538.179688 595.566406 538.203125 595.902344 C 538.222656 596.234375 538.265625 596.566406 538.328125 596.894531 C 538.390625 597.222656 538.472656 597.542969 538.578125 597.863281 C 538.679688 598.179688 538.804688 598.488281 538.945312 598.792969 L 587.828125 702.507812 Z M 628.113281 702.507812 L 605.363281 702.507812 L 591.925781 673.777344 L 607.488281 554.363281 L 626.070312 554.363281 L 640.175781 668.527344 Z M 642.351562 549.417969 L 654.765625 518.4375 L 671.980469 531.695312 C 672.230469 531.886719 672.488281 532.0625 672.757812 532.222656 C 673.027344 532.382812 673.304688 532.527344 673.59375 532.65625 C 673.878906 532.78125 674.171875 532.894531 674.472656 532.984375 C 674.773438 533.078125 675.078125 533.152344 675.386719 533.210938 C 675.695312 533.269531 676.003906 533.304688 676.316406 533.328125 C 676.628906 533.347656 676.945312 533.347656 677.257812 533.332031 C 677.570312 533.3125 677.882812 533.277344 678.191406 533.222656 C 678.5 533.171875 678.804688 533.097656 679.105469 533.007812 C 679.40625 532.917969 679.699219 532.8125 679.988281 532.6875 C 680.277344 532.558594 680.554688 532.417969 680.828125 532.261719 C 681.097656 532.101562 681.359375 531.929688 681.609375 531.738281 C 681.859375 531.550781 682.097656 531.347656 682.324219 531.128906 C 682.550781 530.914062 682.761719 530.683594 682.960938 530.441406 C 683.160156 530.199219 683.34375 529.945312 683.511719 529.679688 C 683.683594 529.414062 683.835938 529.140625 683.972656 528.859375 C 684.109375 528.578125 684.226562 528.285156 684.328125 527.988281 L 704.09375 470.480469 C 713.238281 474.71875 722.585938 478.445312 732.136719 481.65625 L 652.90625 642.0625 L 641.617188 550.792969 C 641.910156 550.359375 642.152344 549.902344 642.351562 549.417969 Z M 822.640625 702.507812 L 759.148438 702.507812 L 759.148438 618.890625 C 759.148438 618.371094 759.097656 617.855469 758.996094 617.34375 C 758.894531 616.832031 758.746094 616.335938 758.542969 615.855469 C 758.34375 615.371094 758.101562 614.914062 757.8125 614.480469 C 757.523438 614.046875 757.191406 613.648438 756.824219 613.28125 C 756.457031 612.910156 756.054688 612.582031 755.621094 612.292969 C 755.1875 612.003906 754.730469 611.757812 754.25 611.558594 C 753.769531 611.359375 753.273438 611.210938 752.761719 611.105469 C 752.25 611.003906 751.734375 610.953125 751.210938 610.953125 C 750.691406 610.953125 750.175781 611.003906 749.664062 611.105469 C 749.152344 611.210938 748.65625 611.359375 748.175781 611.558594 C 747.695312 611.757812 747.238281 612.003906 746.804688 612.292969 C 746.371094 612.582031 745.96875 612.910156 745.601562 613.28125 C 745.234375 613.648438 744.902344 614.046875 744.613281 614.480469 C 744.324219 614.914062 744.078125 615.371094 743.878906 615.855469 C 743.679688 616.335938 743.53125 616.832031 743.429688 617.34375 C 743.328125 617.855469 743.277344 618.371094 743.277344 618.890625 L 743.277344 702.507812 L 644.960938 702.507812 L 655.605469 672.535156 L 747.5625 486.3125 C 749.195312 486.742188 750.765625 487.132812 752.394531 487.519531 C 754.878906 488.109375 757.332031 488.804688 759.761719 489.597656 C 762.1875 490.394531 764.574219 491.289062 766.925781 492.285156 C 769.277344 493.28125 771.582031 494.371094 773.84375 495.5625 C 776.101562 496.75 778.308594 498.03125 780.460938 499.40625 C 782.613281 500.78125 784.703125 502.242188 786.734375 503.792969 C 788.761719 505.339844 790.722656 506.972656 792.617188 508.6875 C 794.511719 510.402344 796.328125 512.191406 798.070312 514.058594 C 799.8125 515.921875 801.472656 517.859375 803.054688 519.867188 C 804.632812 521.871094 806.128906 523.941406 807.535156 526.070312 C 808.941406 528.203125 810.253906 530.386719 811.480469 532.628906 C 812.703125 534.871094 813.828125 537.160156 814.859375 539.496094 C 815.890625 541.832031 816.824219 544.207031 817.65625 546.621094 C 818.488281 549.035156 819.21875 551.480469 819.84375 553.953125 C 820.472656 556.429688 820.992188 558.925781 821.410156 561.445312 C 821.828125 563.964844 822.140625 566.496094 822.34375 569.042969 C 822.550781 571.585938 822.648438 574.136719 822.640625 576.691406 Z M 822.640625 702.507812 " fill-opacity="1" fill-rule="nonzero"/></g></svg>