<svg xmlns="http://www.w3.org/2000/svg" xmlns:xlink="http://www.w3.org/1999/xlink" width="1920" zoomAndPan="magnify" viewBox="0 0 1440 809.999993" height="1080" preserveAspectRatio="xMidYMid meet" version="1.0"><defs><clipPath id="5f7b5a162a"><path d="M 400.011719 171 L 853 171 L 853 742.5 L 400.011719 742.5 Z M 400.011719 171 " clip-rule="nonzero"/></clipPath></defs><rect x="-144" width="1728" fill="#ffffff" y="-80.999999" height="971.999992" fill-opacity="1"/><rect x="-144" width="1728" fill="#feffff" y="-80.999999" height="971.999992" fill-opacity="1"/><path fill="#000000" d="M 1015.8125 148.378906 L 995.5625 148.378906 L 995.5625 126.773438 C 995.5625 122.300781 993.285156 120.023438 988.8125 120.023438 L 963.164062 120.023438 C 958.691406 120.023438 953.714844 122.300781 953.714844 126.773438 L 953.714844 148.378906 L 934.8125 148.378906 C 930.34375 148.378906 925.363281 150.65625 925.363281 155.128906 L 925.363281 179.433594 C 925.363281 183.910156 930.34375 188.886719 934.8125 188.886719 L 953.714844 188.886719 L 953.714844 206.441406 C 953.714844 210.914062 958.691406 215.890625 963.164062 215.890625 L 988.8125 215.890625 C 993.285156 215.890625 995.5625 210.914062 995.5625 206.441406 L 995.5625 188.886719 L 1015.8125 188.886719 C 1020.28125 188.886719 1022.558594 183.910156 1022.558594 179.433594 L 1022.558594 155.128906 C 1022.558594 150.65625 1020.28125 148.378906 1015.8125 148.378906 Z M 1006.359375 172.683594 L 988.8125 172.683594 C 984.339844 172.683594 979.363281 174.960938 979.363281 179.433594 L 979.363281 199.6875 L 969.914062 199.6875 L 969.914062 179.433594 C 969.914062 174.960938 967.636719 172.683594 963.164062 172.683594 L 941.5625 172.683594 L 941.5625 164.582031 L 963.164062 164.582031 C 967.636719 164.582031 969.914062 159.605469 969.914062 155.128906 L 969.914062 136.226562 L 979.363281 136.226562 L 979.363281 155.128906 C 979.363281 159.605469 984.339844 164.582031 988.8125 164.582031 L 1006.359375 164.582031 Z M 1006.359375 172.683594 " fill-opacity="1" fill-rule="nonzero"/><path fill="#000000" d="M 1014.675781 90.121094 C 1008.75 87.128906 1002.558594 84.867188 996.101562 83.339844 C 989.640625 81.808594 983.09375 81.054688 976.457031 81.074219 C 974.234375 81.078125 972.011719 81.167969 969.792969 81.347656 C 967.578125 81.523438 965.371094 81.789062 963.171875 82.136719 C 960.976562 82.488281 958.796875 82.921875 956.632812 83.445312 C 954.472656 83.964844 952.332031 84.570312 950.214844 85.257812 C 948.101562 85.945312 946.015625 86.714844 943.960938 87.566406 C 941.90625 88.414062 939.886719 89.34375 937.902344 90.355469 C 935.917969 91.363281 933.980469 92.449219 932.082031 93.609375 C 930.183594 94.769531 928.332031 96 926.53125 97.304688 C 924.730469 98.609375 922.980469 99.984375 921.285156 101.425781 C 919.59375 102.867188 917.957031 104.371094 916.378906 105.941406 C 914.804688 107.511719 913.289062 109.140625 911.839844 110.828125 C 910.390625 112.515625 909.007812 114.257812 907.695312 116.050781 C 906.382812 117.847656 905.140625 119.691406 903.96875 121.585938 C 902.800781 123.476562 901.707031 125.414062 900.6875 127.390625 C 899.671875 129.371094 898.730469 131.386719 897.871094 133.4375 C 897.007812 135.488281 896.230469 137.570312 895.53125 139.683594 C 884.972656 140.28125 874.589844 139.183594 864.390625 136.390625 L 842.34375 130.359375 C 841.128906 130.03125 839.902344 129.734375 838.671875 129.476562 C 837.4375 129.21875 836.199219 128.996094 834.953125 128.8125 C 833.707031 128.628906 832.457031 128.480469 831.203125 128.371094 C 829.949219 128.261719 828.691406 128.1875 827.433594 128.152344 C 826.175781 128.117188 824.914062 128.121094 823.65625 128.160156 C 822.398438 128.199219 821.140625 128.277344 819.886719 128.390625 C 818.632812 128.507812 817.382812 128.65625 816.136719 128.847656 C 814.890625 129.035156 813.652344 129.261719 812.421875 129.523438 C 811.191406 129.785156 809.96875 130.085938 808.753906 130.417969 C 807.539062 130.753906 806.335938 131.125 805.144531 131.53125 C 803.953125 131.9375 802.773438 132.378906 801.609375 132.855469 C 800.441406 133.335938 799.292969 133.84375 798.15625 134.390625 C 797.019531 134.9375 795.902344 135.515625 794.800781 136.125 C 793.699219 136.738281 792.621094 137.382812 791.558594 138.058594 C 790.492188 138.734375 789.453125 139.441406 788.433594 140.179688 C 787.410156 140.917969 786.414062 141.683594 785.4375 142.480469 C 784.464844 143.28125 783.511719 144.105469 782.585938 144.960938 C 781.660156 145.8125 780.761719 146.695312 779.886719 147.601562 C 779.015625 148.507812 778.167969 149.441406 777.351562 150.398438 C 776.53125 151.355469 775.742188 152.339844 774.984375 153.34375 C 774.226562 154.347656 773.496094 155.375 772.796875 156.421875 C 772.097656 157.472656 771.429688 158.539062 770.796875 159.625 C 770.160156 160.714844 769.558594 161.820312 768.988281 162.945312 C 768.417969 164.066406 767.882812 165.207031 767.382812 166.363281 C 766.878906 167.519531 766.414062 168.6875 765.980469 169.871094 C 765.550781 171.054688 765.152344 172.25 764.792969 173.457031 C 764.429688 174.660156 764.105469 175.878906 763.816406 177.105469 C 763.527344 178.332031 763.277344 179.566406 763.0625 180.804688 C 762.84375 182.046875 762.667969 183.292969 762.527344 184.546875 C 762.382812 185.796875 762.28125 187.050781 762.214844 188.308594 C 762.148438 189.566406 762.117188 190.828125 762.125 192.085938 C 762.132812 193.347656 762.179688 194.605469 762.261719 195.859375 C 763.003906 207.808594 764.808594 219.597656 767.671875 231.222656 C 770.535156 242.847656 774.410156 254.125 779.300781 265.050781 C 779.386719 265.3125 779.640625 265.574219 779.757812 265.832031 C 785.097656 277.578125 789.121094 289.761719 791.820312 302.382812 C 794.519531 315.003906 795.835938 327.765625 795.769531 340.671875 L 795.769531 371.863281 C 795.769531 372.851562 795.820312 373.839844 795.914062 374.824219 C 796.011719 375.808594 796.15625 376.785156 796.351562 377.753906 C 796.542969 378.722656 796.78125 379.683594 797.070312 380.628906 C 797.355469 381.574219 797.6875 382.503906 798.066406 383.417969 C 798.445312 384.332031 798.867188 385.226562 799.335938 386.097656 C 799.800781 386.96875 800.308594 387.816406 800.859375 388.640625 C 801.40625 389.460938 801.996094 390.253906 802.625 391.019531 C 803.25 391.785156 803.914062 392.515625 804.613281 393.214844 C 805.3125 393.914062 806.046875 394.578125 806.8125 395.203125 C 807.574219 395.832031 808.371094 396.417969 809.191406 396.96875 C 810.015625 397.515625 810.863281 398.023438 811.734375 398.488281 C 812.605469 398.957031 813.5 399.378906 814.414062 399.753906 C 815.328125 400.132812 816.257812 400.464844 817.203125 400.75 C 818.148438 401.039062 819.109375 401.277344 820.078125 401.46875 C 821.046875 401.660156 822.023438 401.804688 823.007812 401.902344 C 823.992188 401.996094 824.980469 402.042969 825.96875 402.042969 C 827.828125 402.046875 829.675781 401.878906 831.507812 401.546875 C 833.339844 401.214844 835.125 400.71875 836.867188 400.058594 C 838.609375 399.402344 840.277344 398.589844 841.871094 397.628906 C 843.464844 396.667969 844.957031 395.570312 846.351562 394.335938 C 848 392.910156 849.5625 391.402344 851.046875 389.808594 C 852.53125 388.214844 853.925781 386.546875 855.226562 384.800781 C 856.53125 383.058594 857.738281 381.25 858.847656 379.375 C 859.957031 377.503906 860.964844 375.574219 861.863281 373.59375 C 862.765625 371.613281 863.558594 369.585938 864.242188 367.519531 C 864.929688 365.453125 865.5 363.355469 865.957031 361.226562 C 866.414062 359.097656 866.757812 356.949219 866.984375 354.785156 C 867.214844 352.617188 867.324219 350.445312 867.316406 348.269531 L 867.316406 331.304688 C 867.3125 330.578125 867.34375 329.851562 867.410156 329.128906 C 867.476562 328.402344 867.582031 327.683594 867.71875 326.972656 C 867.855469 326.257812 868.03125 325.550781 868.238281 324.855469 C 868.445312 324.160156 868.6875 323.476562 868.960938 322.800781 C 869.234375 322.128906 869.542969 321.472656 869.882812 320.828125 C 870.222656 320.1875 870.59375 319.5625 870.996094 318.957031 C 871.398438 318.351562 871.828125 317.765625 872.285156 317.203125 C 872.746094 316.640625 873.230469 316.097656 873.742188 315.585938 C 874.253906 315.070312 874.792969 314.578125 875.351562 314.117188 C 875.914062 313.65625 876.496094 313.21875 877.097656 312.816406 C 877.703125 312.410156 878.324219 312.035156 878.964844 311.691406 C 879.605469 311.347656 880.257812 311.035156 880.929688 310.757812 C 881.601562 310.476562 882.285156 310.234375 882.980469 310.019531 C 883.675781 309.808594 884.378906 309.632812 885.089844 309.488281 C 885.804688 309.347656 886.523438 309.242188 887.246094 309.167969 C 887.96875 309.097656 888.691406 309.0625 889.417969 309.0625 L 889.453125 309.0625 C 890.898438 309.039062 892.328125 309.15625 893.75 309.414062 C 895.171875 309.675781 896.550781 310.070312 897.894531 310.601562 C 899.238281 311.132812 900.515625 311.789062 901.730469 312.574219 C 902.941406 313.355469 904.066406 314.25 905.105469 315.257812 C 906.167969 316.289062 907.121094 317.414062 907.957031 318.636719 C 908.796875 319.859375 909.507812 321.152344 910.085938 322.515625 C 910.667969 323.878906 911.109375 325.285156 911.40625 326.738281 C 911.707031 328.191406 911.859375 329.65625 911.867188 331.136719 L 911.867188 348.269531 C 911.878906 350.457031 912.007812 352.632812 912.253906 354.808594 C 912.5 356.980469 912.863281 359.132812 913.34375 361.265625 C 913.820312 363.398438 914.410156 365.5 915.117188 367.566406 C 915.820312 369.636719 916.632812 371.664062 917.558594 373.644531 C 918.480469 375.625 919.507812 377.554688 920.636719 379.425781 C 921.765625 381.296875 922.992188 383.101562 924.316406 384.839844 C 925.640625 386.578125 927.054688 388.242188 928.558594 389.828125 C 930.0625 391.417969 931.644531 392.917969 933.308594 394.335938 C 934.699219 395.566406 936.191406 396.664062 937.78125 397.625 C 939.371094 398.582031 941.035156 399.394531 942.769531 400.050781 C 944.507812 400.710938 946.289062 401.207031 948.117188 401.539062 C 949.945312 401.875 951.785156 402.042969 953.644531 402.039062 C 954.625 402.035156 955.605469 401.980469 956.578125 401.875 C 957.554688 401.773438 958.523438 401.625 959.488281 401.425781 C 960.449219 401.226562 961.398438 400.984375 962.335938 400.691406 C 963.273438 400.398438 964.191406 400.0625 965.097656 399.683594 C 966 399.300781 966.886719 398.875 967.746094 398.40625 C 968.609375 397.9375 969.449219 397.425781 970.261719 396.875 C 971.074219 396.324219 971.855469 395.734375 972.613281 395.109375 C 973.367188 394.480469 974.089844 393.816406 974.777344 393.117188 C 975.464844 392.417969 976.121094 391.6875 976.738281 390.925781 C 977.355469 390.160156 977.933594 389.371094 978.472656 388.550781 C 979.015625 387.730469 979.511719 386.886719 979.96875 386.015625 C 980.425781 385.148438 980.839844 384.257812 981.207031 383.347656 C 981.578125 382.4375 981.902344 381.511719 982.179688 380.570312 C 982.460938 379.628906 982.691406 378.675781 982.875 377.710938 C 983.0625 376.75 983.199219 375.777344 983.289062 374.800781 C 983.378906 373.820312 983.417969 372.84375 983.414062 371.859375 L 983.414062 340.667969 C 983.414062 315.957031 989.046875 291.476562 1000.605469 265.828125 C 1000.6875 265.648438 1000.765625 265.46875 1000.832031 265.289062 C 1003.730469 258.890625 1006.265625 252.351562 1008.441406 245.675781 C 1010.328125 244.90625 1012.1875 244.070312 1014.015625 243.171875 C 1015.84375 242.269531 1017.640625 241.304688 1019.398438 240.273438 C 1021.15625 239.242188 1022.878906 238.152344 1024.558594 237 C 1026.242188 235.84375 1027.878906 234.632812 1029.472656 233.363281 C 1031.066406 232.09375 1032.613281 230.769531 1034.113281 229.386719 C 1035.613281 228.003906 1037.0625 226.574219 1038.460938 225.089844 C 1039.859375 223.605469 1041.199219 222.070312 1042.488281 220.488281 C 1043.777344 218.910156 1045.003906 217.285156 1046.175781 215.617188 C 1047.347656 213.945312 1048.457031 212.238281 1049.507812 210.492188 C 1050.558594 208.742188 1051.542969 206.957031 1052.464844 205.140625 C 1053.386719 203.320312 1054.242188 201.472656 1055.03125 199.59375 C 1055.820312 197.710938 1056.542969 195.804688 1057.195312 193.875 C 1057.847656 191.941406 1058.429688 189.992188 1058.945312 188.015625 C 1059.457031 186.042969 1059.902344 184.054688 1060.273438 182.050781 C 1060.644531 180.042969 1060.941406 178.027344 1061.167969 176.003906 C 1061.394531 173.976562 1061.550781 171.945312 1061.632812 169.90625 C 1061.714844 167.871094 1061.722656 165.832031 1061.660156 163.792969 C 1061.59375 161.753906 1061.457031 159.722656 1061.246094 157.695312 C 1061.039062 155.667969 1060.757812 153.648438 1060.402344 151.640625 C 1060.046875 149.632812 1059.625 147.640625 1059.125 145.660156 C 1058.628906 143.683594 1058.0625 141.726562 1057.425781 139.789062 C 1056.792969 137.851562 1056.085938 135.941406 1055.3125 134.054688 C 1054.539062 132.167969 1053.699219 130.308594 1052.792969 128.484375 C 1051.886719 126.65625 1050.917969 124.863281 1049.882812 123.109375 C 1048.847656 121.351562 1047.753906 119.632812 1046.597656 117.953125 C 1045.441406 116.273438 1044.222656 114.640625 1042.949219 113.046875 C 1041.675781 111.457031 1040.347656 109.914062 1038.960938 108.414062 C 1037.578125 106.917969 1036.140625 105.472656 1034.652344 104.078125 C 1033.164062 102.6875 1031.628906 101.347656 1030.046875 100.0625 C 1028.460938 98.777344 1026.835938 97.554688 1025.164062 96.386719 C 1023.492188 95.21875 1021.78125 94.113281 1020.03125 93.066406 C 1018.28125 92.023438 1016.496094 91.042969 1014.675781 90.125 Z M 985.851562 259.121094 C 985.753906 259.332031 985.648438 259.542969 985.582031 259.757812 C 973.234375 287.332031 967.222656 313.804688 967.222656 340.671875 L 967.222656 371.863281 C 967.242188 372.773438 967.171875 373.675781 967.011719 374.570312 C 966.851562 375.46875 966.605469 376.339844 966.269531 377.1875 C 965.9375 378.03125 965.523438 378.839844 965.027344 379.601562 C 964.535156 380.367188 963.96875 381.074219 963.332031 381.722656 C 962.695312 382.375 962.003906 382.957031 961.25 383.46875 C 960.496094 383.980469 959.703125 384.414062 958.863281 384.769531 C 958.023438 385.121094 957.160156 385.386719 956.269531 385.570312 C 955.375 385.75 954.476562 385.839844 953.566406 385.839844 C 951.773438 385.839844 950.046875 385.515625 948.375 384.863281 C 946.707031 384.214844 945.214844 383.285156 943.898438 382.074219 C 941.4375 379.992188 939.230469 377.671875 937.273438 375.113281 C 935.316406 372.554688 933.652344 369.820312 932.285156 366.902344 C 930.921875 363.984375 929.882812 360.957031 929.167969 357.8125 C 928.457031 354.671875 928.089844 351.492188 928.066406 348.269531 L 928.066406 331.136719 C 928.0625 329.878906 928 328.621094 927.875 327.367188 C 927.75 326.113281 927.5625 324.867188 927.316406 323.632812 C 927.066406 322.394531 926.757812 321.175781 926.390625 319.96875 C 926.019531 318.765625 925.59375 317.582031 925.109375 316.417969 C 924.625 315.253906 924.082031 314.117188 923.484375 313.007812 C 922.886719 311.898438 922.238281 310.820312 921.53125 309.773438 C 920.828125 308.730469 920.074219 307.71875 919.273438 306.75 C 918.46875 305.777344 917.621094 304.847656 916.726562 303.960938 C 915.832031 303.074219 914.894531 302.234375 913.914062 301.4375 C 912.9375 300.644531 911.921875 299.898438 910.871094 299.203125 C 909.820312 298.507812 908.738281 297.867188 907.621094 297.28125 C 906.507812 296.691406 905.367188 296.160156 904.199219 295.683594 C 903.03125 295.210938 901.84375 294.792969 900.636719 294.433594 C 899.429688 294.078125 898.207031 293.78125 896.96875 293.542969 C 895.730469 293.304688 894.484375 293.128906 893.230469 293.015625 C 891.972656 292.902344 890.714844 292.847656 889.457031 292.859375 L 889.394531 292.859375 C 888.140625 292.859375 886.886719 292.921875 885.636719 293.046875 C 884.382812 293.171875 883.144531 293.355469 881.910156 293.605469 C 880.679688 293.851562 879.460938 294.15625 878.261719 294.523438 C 877.058594 294.890625 875.875 295.316406 874.714844 295.796875 C 873.554688 296.28125 872.421875 296.820312 871.316406 297.414062 C 870.207031 298.007812 869.132812 298.65625 868.089844 299.355469 C 867.046875 300.054688 866.039062 300.804688 865.070312 301.605469 C 864.097656 302.402344 863.171875 303.25 862.285156 304.140625 C 861.398438 305.03125 860.558594 305.960938 859.761719 306.933594 C 858.964844 307.910156 858.222656 308.917969 857.527344 309.964844 C 856.828125 311.011719 856.1875 312.089844 855.597656 313.199219 C 855.007812 314.308594 854.472656 315.445312 853.996094 316.609375 C 853.519531 317.769531 853.097656 318.953125 852.738281 320.160156 C 852.375 321.363281 852.074219 322.582031 851.832031 323.8125 C 851.589844 325.046875 851.410156 326.289062 851.292969 327.542969 C 851.171875 328.792969 851.113281 330.046875 851.117188 331.304688 L 851.117188 348.269531 C 851.125 351.476562 850.785156 354.644531 850.109375 357.777344 C 849.429688 360.910156 848.425781 363.9375 847.09375 366.851562 C 845.765625 369.769531 844.136719 372.511719 842.214844 375.078125 C 840.292969 377.640625 838.121094 379.972656 835.695312 382.070312 C 834.359375 383.277344 832.851562 384.207031 831.171875 384.855469 C 829.492188 385.503906 827.75 385.832031 825.949219 385.835938 C 825.03125 385.839844 824.121094 385.753906 823.21875 385.578125 C 822.320312 385.398438 821.441406 385.136719 820.59375 384.785156 C 819.746094 384.4375 818.9375 384.007812 818.171875 383.496094 C 817.410156 382.988281 816.703125 382.40625 816.050781 381.757812 C 815.402344 381.109375 814.824219 380.402344 814.3125 379.636719 C 813.804688 378.875 813.375 378.066406 813.023438 377.21875 C 812.671875 376.367188 812.410156 375.492188 812.230469 374.589844 C 812.054688 373.6875 811.96875 372.777344 811.96875 371.859375 L 811.96875 340.667969 C 812.039062 326.769531 810.636719 313.019531 807.757812 299.417969 C 804.878906 285.820312 800.589844 272.679688 794.894531 260 C 794.769531 259.699219 794.628906 259.40625 794.472656 259.121094 C 789.878906 248.984375 786.234375 238.515625 783.542969 227.714844 C 780.855469 216.910156 779.164062 205.957031 778.46875 194.847656 C 778.40625 193.910156 778.371094 192.972656 778.363281 192.035156 C 778.355469 191.09375 778.375 190.15625 778.425781 189.21875 C 778.472656 188.28125 778.546875 187.347656 778.652344 186.414062 C 778.757812 185.480469 778.886719 184.550781 779.046875 183.628906 C 779.207031 182.703125 779.394531 181.78125 779.605469 180.867188 C 779.820312 179.953125 780.0625 179.046875 780.328125 178.148438 C 780.597656 177.25 780.890625 176.359375 781.210938 175.476562 C 781.535156 174.59375 781.878906 173.722656 782.253906 172.859375 C 782.625 172 783.023438 171.148438 783.445312 170.3125 C 783.871094 169.472656 784.316406 168.648438 784.789062 167.839844 C 785.261719 167.027344 785.757812 166.230469 786.277344 165.449219 C 786.796875 164.667969 787.339844 163.902344 787.90625 163.152344 C 788.472656 162.402344 789.058594 161.671875 789.667969 160.957031 C 790.277344 160.242188 790.90625 159.546875 791.554688 158.871094 C 792.207031 158.191406 792.875 157.535156 793.566406 156.898438 C 794.253906 156.261719 794.960938 155.644531 795.6875 155.050781 C 796.414062 154.457031 797.15625 153.882812 797.917969 153.332031 C 798.675781 152.78125 799.453125 152.253906 800.242188 151.75 C 801.035156 151.246094 801.839844 150.765625 802.660156 150.308594 C 803.480469 149.851562 804.3125 149.421875 805.160156 149.011719 C 806.003906 148.605469 806.863281 148.222656 807.730469 147.867188 C 808.597656 147.511719 809.476562 147.183594 810.363281 146.878906 C 811.253906 146.574219 812.148438 146.296875 813.054688 146.046875 C 813.957031 145.796875 814.867188 145.574219 815.785156 145.378906 C 816.703125 145.183594 817.628906 145.015625 818.554688 144.871094 C 819.484375 144.730469 820.414062 144.617188 821.347656 144.53125 C 822.28125 144.445312 823.21875 144.390625 824.15625 144.359375 C 825.09375 144.328125 826.035156 144.328125 826.972656 144.351562 C 827.910156 144.378906 828.847656 144.433594 829.78125 144.515625 C 830.714844 144.59375 831.648438 144.703125 832.574219 144.839844 C 833.503906 144.980469 834.429688 145.144531 835.347656 145.335938 C 836.265625 145.527344 837.175781 145.746094 838.082031 145.992188 L 860.128906 152.023438 C 870.519531 154.867188 881.097656 156.207031 891.871094 156.039062 C 891.683594 157.535156 891.535156 159.03125 891.425781 160.535156 C 891.316406 162.039062 891.25 163.542969 891.222656 165.050781 C 891.191406 166.554688 891.203125 168.0625 891.253906 169.566406 C 891.304688 171.074219 891.398438 172.578125 891.527344 174.078125 C 891.660156 175.578125 891.828125 177.074219 892.039062 178.566406 C 892.25 180.058594 892.5 181.542969 892.789062 183.023438 C 893.078125 184.5 893.40625 185.972656 893.773438 187.433594 C 894.140625 188.894531 894.542969 190.34375 894.988281 191.785156 C 895.433594 193.222656 895.914062 194.652344 896.433594 196.066406 C 896.953125 197.480469 897.507812 198.878906 898.101562 200.261719 C 898.695312 201.648438 899.324219 203.015625 899.992188 204.367188 C 900.65625 205.71875 901.359375 207.050781 902.09375 208.367188 C 902.832031 209.679688 903.601562 210.972656 904.40625 212.246094 C 905.210938 213.519531 906.050781 214.773438 906.921875 216 C 907.792969 217.230469 908.695312 218.433594 909.632812 219.617188 C 910.566406 220.796875 911.53125 221.953125 912.53125 223.082031 C 913.527344 224.210938 914.550781 225.316406 915.605469 226.390625 C 916.660156 227.464844 917.746094 228.511719 918.855469 229.53125 C 919.964844 230.546875 921.101562 231.535156 922.265625 232.496094 C 923.425781 233.453125 924.613281 234.378906 925.824219 235.273438 C 927.039062 236.167969 928.273438 237.03125 929.53125 237.859375 C 930.789062 238.6875 932.066406 239.484375 933.367188 240.246094 C 934.664062 241.007812 935.984375 241.734375 937.320312 242.425781 C 938.660156 243.117188 940.015625 243.773438 941.390625 244.394531 C 942.761719 245.011719 944.148438 245.597656 945.554688 246.140625 C 946.957031 246.6875 948.375 247.199219 949.804688 247.667969 C 951.234375 248.140625 952.679688 248.574219 954.132812 248.96875 C 955.585938 249.363281 957.050781 249.71875 958.519531 250.035156 C 959.992188 250.351562 961.472656 250.628906 962.960938 250.867188 C 964.449219 251.105469 965.941406 251.304688 967.4375 251.464844 C 968.9375 251.625 970.4375 251.746094 971.941406 251.824219 C 973.445312 251.90625 974.949219 251.945312 976.457031 251.945312 C 980.765625 251.945312 985.050781 251.621094 989.308594 250.972656 C 988.214844 253.726562 987.070312 256.457031 985.851562 259.121094 Z M 976.457031 235.742188 C 975.328125 235.738281 974.199219 235.703125 973.070312 235.644531 C 971.941406 235.582031 970.816406 235.496094 969.695312 235.378906 C 968.570312 235.265625 967.449219 235.121094 966.332031 234.953125 C 965.214844 234.78125 964.105469 234.582031 962.996094 234.359375 C 961.890625 234.132812 960.789062 233.882812 959.695312 233.605469 C 958.601562 233.324219 957.511719 233.019531 956.433594 232.6875 C 955.355469 232.355469 954.28125 232 953.21875 231.613281 C 952.160156 231.230469 951.105469 230.820312 950.0625 230.382812 C 949.023438 229.949219 947.992188 229.488281 946.972656 229 C 945.953125 228.515625 944.945312 228.003906 943.949219 227.46875 C 942.957031 226.933594 941.976562 226.371094 941.007812 225.789062 C 940.039062 225.207031 939.089844 224.597656 938.152344 223.96875 C 937.214844 223.335938 936.292969 222.683594 935.386719 222.007812 C 934.480469 221.335938 933.59375 220.636719 932.722656 219.917969 C 931.851562 219.199219 930.996094 218.460938 930.160156 217.699219 C 929.328125 216.9375 928.511719 216.15625 927.714844 215.355469 C 926.917969 214.554688 926.140625 213.734375 925.382812 212.898438 C 924.625 212.058594 923.890625 211.203125 923.175781 210.328125 C 922.460938 209.453125 921.765625 208.5625 921.097656 207.652344 C 920.425781 206.742188 919.777344 205.820312 919.148438 204.878906 C 918.523438 203.9375 917.921875 202.984375 917.34375 202.011719 C 916.761719 201.042969 916.207031 200.058594 915.675781 199.0625 C 915.144531 198.066406 914.640625 197.054688 914.15625 196.035156 C 913.675781 195.011719 913.21875 193.976562 912.789062 192.933594 C 912.355469 191.890625 911.953125 190.835938 911.574219 189.769531 C 911.191406 188.707031 910.839844 187.632812 910.511719 186.554688 C 910.1875 185.472656 909.886719 184.382812 909.613281 183.285156 C 909.339844 182.191406 909.089844 181.089844 908.871094 179.980469 C 908.652344 178.871094 908.460938 177.757812 908.292969 176.640625 C 908.128906 175.523438 907.992188 174.402344 907.878906 173.277344 C 907.769531 172.152344 907.6875 171.027344 907.632812 169.898438 C 907.578125 168.769531 907.550781 167.640625 907.550781 166.511719 C 907.550781 165.382812 907.578125 164.25 907.632812 163.125 C 907.6875 161.996094 907.769531 160.867188 907.878906 159.742188 C 907.992188 158.621094 908.128906 157.5 908.292969 156.382812 C 908.460938 155.261719 908.652344 154.148438 908.871094 153.042969 C 909.089844 151.933594 909.339844 150.832031 909.613281 149.734375 C 909.886719 148.640625 910.1875 147.550781 910.511719 146.46875 C 910.839844 145.386719 911.191406 144.316406 911.574219 143.25 C 911.953125 142.1875 912.355469 141.132812 912.789062 140.089844 C 913.21875 139.042969 913.675781 138.011719 914.15625 136.988281 C 914.640625 135.964844 915.144531 134.957031 915.675781 133.960938 C 916.207031 132.960938 916.761719 131.980469 917.34375 131.007812 C 917.921875 130.039062 918.523438 129.085938 919.148438 128.144531 C 919.777344 127.203125 920.425781 126.277344 921.097656 125.371094 C 921.765625 124.460938 922.460938 123.570312 923.175781 122.695312 C 923.890625 121.820312 924.625 120.964844 925.382812 120.125 C 926.140625 119.285156 926.917969 118.464844 927.714844 117.664062 C 928.511719 116.863281 929.328125 116.082031 930.160156 115.324219 C 930.996094 114.5625 931.851562 113.824219 932.722656 113.105469 C 933.59375 112.386719 934.480469 111.6875 935.386719 111.011719 C 936.292969 110.335938 937.214844 109.683594 938.152344 109.054688 C 939.089844 108.421875 940.039062 107.816406 941.007812 107.234375 C 941.976562 106.648438 942.957031 106.089844 943.949219 105.554688 C 944.945312 105.019531 945.953125 104.507812 946.972656 104.019531 C 947.992188 103.535156 949.023438 103.074219 950.0625 102.636719 C 951.105469 102.203125 952.160156 101.792969 953.21875 101.40625 C 954.28125 101.023438 955.355469 100.664062 956.433594 100.332031 C 957.511719 100 958.601562 99.695312 959.695312 99.417969 C 960.789062 99.140625 961.890625 98.886719 962.996094 98.664062 C 964.105469 98.4375 965.214844 98.242188 966.332031 98.070312 C 967.449219 97.898438 968.570312 97.757812 969.695312 97.640625 C 970.816406 97.527344 971.941406 97.4375 973.070312 97.378906 C 974.199219 97.316406 975.328125 97.285156 976.457031 97.28125 C 981.828125 97.265625 987.128906 97.875 992.355469 99.109375 C 997.585938 100.347656 1002.597656 102.175781 1007.390625 104.597656 C 1009.117188 105.464844 1010.800781 106.402344 1012.445312 107.410156 C 1014.089844 108.417969 1015.6875 109.492188 1017.242188 110.636719 C 1018.796875 111.777344 1020.304688 112.980469 1021.757812 114.25 C 1023.210938 115.515625 1024.609375 116.84375 1025.953125 118.226562 C 1027.296875 119.613281 1028.582031 121.050781 1029.804688 122.542969 C 1031.027344 124.035156 1032.1875 125.574219 1033.28125 127.164062 C 1034.375 128.753906 1035.402344 130.382812 1036.363281 132.058594 C 1037.320312 133.734375 1038.207031 135.445312 1039.023438 137.191406 C 1039.835938 138.941406 1040.578125 140.722656 1041.246094 142.53125 C 1041.910156 144.34375 1042.5 146.175781 1043.015625 148.039062 C 1043.527344 149.898438 1043.964844 151.777344 1044.320312 153.671875 C 1044.675781 155.566406 1044.953125 157.476562 1045.148438 159.394531 C 1045.347656 161.3125 1045.464844 163.238281 1045.5 165.167969 C 1045.535156 167.097656 1045.492188 169.023438 1045.367188 170.949219 C 1045.242188 172.875 1045.039062 174.792969 1044.753906 176.699219 C 1044.46875 178.609375 1044.105469 180.5 1043.660156 182.378906 C 1043.21875 184.257812 1042.699219 186.113281 1042.101562 187.949219 C 1041.503906 189.78125 1040.828125 191.589844 1040.078125 193.367188 C 1039.332031 195.144531 1038.507812 196.890625 1037.613281 198.597656 C 1036.71875 200.308594 1035.753906 201.976562 1034.722656 203.605469 C 1033.6875 205.234375 1032.585938 206.816406 1031.421875 208.355469 C 1030.253906 209.890625 1029.027344 211.375 1027.734375 212.8125 C 1026.445312 214.246094 1025.097656 215.621094 1023.691406 216.945312 C 1022.285156 218.265625 1020.828125 219.527344 1019.316406 220.726562 C 1017.808594 221.925781 1016.25 223.058594 1014.644531 224.128906 C 1013.039062 225.199219 1011.390625 226.199219 1009.699219 227.132812 C 1008.011719 228.0625 1006.285156 228.921875 1004.523438 229.710938 C 1002.765625 230.496094 1000.972656 231.210938 999.152344 231.847656 C 997.332031 232.484375 995.488281 233.046875 993.621094 233.53125 C 991.753906 234.015625 989.871094 234.417969 987.96875 234.746094 C 986.066406 235.070312 984.15625 235.316406 982.234375 235.484375 C 980.3125 235.648438 978.386719 235.734375 976.457031 235.742188 Z M 976.457031 235.742188 " fill-opacity="1" fill-rule="nonzero"/><g clip-path="url(#5f7b5a162a)"><path fill="#000000" d="M 768.351562 491.046875 C 747.039062 485.949219 725.4375 477.273438 703.613281 465.289062 L 687.773438 456.445312 L 687.773438 433.941406 C 708.023438 418.140625 723.398438 394.386719 727.183594 366.882812 C 727.265625 366.300781 727.207031 365.714844 727.277344 365.125 L 737.199219 356.9375 C 738.5625 355.832031 739.832031 354.625 741.003906 353.316406 C 742.171875 352.007812 743.234375 350.617188 744.183594 349.140625 C 745.136719 347.664062 745.960938 346.121094 746.667969 344.511719 C 747.371094 342.902344 747.945312 341.246094 748.386719 339.546875 C 748.828125 337.847656 749.132812 336.125 749.300781 334.375 C 749.464844 332.628906 749.492188 330.878906 749.382812 329.125 C 749.273438 327.371094 749.023438 325.640625 748.636719 323.925781 C 748.25 322.210938 747.726562 320.539062 747.074219 318.910156 C 744.808594 313.261719 740.421875 308.785156 736.375 305.464844 L 736.375 238.898438 C 736.375 201.9375 705.988281 171.332031 669.011719 171.332031 L 581.496094 171.332031 C 544.511719 171.332031 514.984375 201.9375 514.984375 238.90625 L 514.984375 307.480469 C 513.03125 309.019531 511.3125 310.789062 509.824219 312.78125 C 508.335938 314.773438 507.128906 316.925781 506.207031 319.238281 C 505.542969 320.859375 505.011719 322.527344 504.613281 324.234375 C 504.214844 325.941406 503.957031 327.671875 503.832031 329.421875 C 503.710938 331.171875 503.726562 332.917969 503.882812 334.664062 C 504.035156 336.414062 504.328125 338.136719 504.757812 339.835938 C 505.191406 341.535156 505.75 343.191406 506.445312 344.800781 C 507.140625 346.414062 507.957031 347.957031 508.898438 349.4375 C 509.835938 350.917969 510.886719 352.316406 512.050781 353.628906 C 513.214844 354.941406 514.472656 356.15625 515.828125 357.265625 L 526.0625 365.488281 C 526.484375 368.878906 527.074219 372.238281 527.839844 375.570312 C 528.601562 378.898438 529.527344 382.183594 530.625 385.417969 C 531.71875 388.652344 532.976562 391.824219 534.390625 394.933594 C 535.808594 398.039062 537.378906 401.070312 539.101562 404.019531 C 540.828125 406.964844 542.695312 409.820312 544.710938 412.578125 C 546.722656 415.339844 548.871094 417.988281 551.152344 420.53125 C 553.4375 423.070312 555.839844 425.488281 558.367188 427.789062 C 560.894531 430.085938 563.535156 432.246094 566.28125 434.277344 L 566.28125 459.152344 L 545.554688 469.414062 C 526.058594 478.988281 505.726562 486.199219 484.558594 491.046875 C 481.582031 491.753906 478.636719 492.582031 475.730469 493.53125 C 472.820312 494.484375 469.957031 495.554688 467.136719 496.75 C 464.320312 497.941406 461.554688 499.246094 458.847656 500.671875 C 456.136719 502.09375 453.492188 503.628906 450.914062 505.273438 C 448.332031 506.917969 445.824219 508.667969 443.390625 510.523438 C 440.957031 512.378906 438.605469 514.332031 436.335938 516.386719 C 434.066406 518.4375 431.882812 520.582031 429.792969 522.816406 C 427.703125 525.050781 425.710938 527.371094 423.8125 529.773438 C 421.917969 532.175781 420.125 534.652344 418.433594 537.203125 C 416.746094 539.757812 415.167969 542.375 413.699219 545.058594 C 412.226562 547.746094 410.875 550.488281 409.632812 553.285156 C 408.394531 556.082031 407.273438 558.929688 406.269531 561.820312 C 405.269531 564.714844 404.390625 567.640625 403.636719 570.609375 C 402.878906 573.574219 402.246094 576.566406 401.742188 579.585938 C 401.238281 582.605469 400.859375 585.636719 400.609375 588.6875 C 400.355469 591.738281 400.234375 594.796875 400.238281 597.855469 L 400.238281 734.1875 C 400.234375 734.726562 400.285156 735.257812 400.386719 735.785156 C 400.488281 736.316406 400.640625 736.828125 400.84375 737.324219 C 401.042969 737.824219 401.292969 738.296875 401.585938 738.75 C 401.878906 739.199219 402.214844 739.617188 402.589844 740 C 402.964844 740.386719 403.375 740.730469 403.816406 741.035156 C 404.257812 741.339844 404.726562 741.601562 405.21875 741.816406 C 405.710938 742.03125 406.21875 742.195312 406.746094 742.308594 C 407.269531 742.425781 407.800781 742.488281 408.335938 742.5 L 844.492188 742.5 C 845.027344 742.488281 845.554688 742.421875 846.074219 742.304688 C 846.597656 742.191406 847.101562 742.023438 847.589844 741.808594 C 848.078125 741.59375 848.542969 741.332031 848.980469 741.023438 C 849.417969 740.71875 849.820312 740.375 850.191406 739.988281 C 850.5625 739.601562 850.890625 739.183594 851.179688 738.734375 C 851.464844 738.285156 851.707031 737.8125 851.902344 737.3125 C 852.097656 736.816406 852.242188 736.304688 852.339844 735.777344 C 852.433594 735.253906 852.476562 734.722656 852.46875 734.1875 L 852.46875 597.855469 C 852.476562 594.796875 852.359375 591.742188 852.113281 588.695312 C 851.867188 585.648438 851.496094 582.613281 850.996094 579.597656 C 850.496094 576.578125 849.871094 573.589844 849.117188 570.625 C 848.367188 567.660156 847.492188 564.730469 846.496094 561.839844 C 845.5 558.949219 844.386719 556.101562 843.148438 553.304688 C 841.914062 550.507812 840.566406 547.765625 839.101562 545.082031 C 837.636719 542.398438 836.0625 539.777344 834.375 537.226562 C 832.691406 534.671875 830.902344 532.195312 829.011719 529.792969 C 827.121094 527.390625 825.128906 525.070312 823.042969 522.835938 C 820.957031 520.601562 818.78125 518.457031 816.515625 516.402344 C 814.246094 514.351562 811.898438 512.394531 809.46875 510.539062 C 807.039062 508.683594 804.535156 506.933594 801.957031 505.285156 C 799.382812 503.640625 796.738281 502.105469 794.035156 500.679688 C 791.328125 499.253906 788.566406 497.945312 785.753906 496.753906 C 782.9375 495.5625 780.078125 494.488281 777.171875 493.535156 C 774.265625 492.582031 771.324219 491.753906 768.351562 491.046875 Z M 700.640625 482.191406 L 683.457031 532.203125 L 646.25 503.550781 C 660.261719 498.976562 673.542969 489.523438 685.386719 475.558594 C 685.707031 475.179688 685.988281 474.773438 686.234375 474.34375 Z M 651.597656 528.09375 L 639.269531 558.863281 L 613.5 558.863281 L 600.964844 528.449219 L 626.5 508.78125 Z M 582.480469 467.28125 L 582.480469 444.136719 C 585.9375 445.828125 589.480469 447.3125 593.109375 448.597656 C 596.738281 449.882812 600.429688 450.953125 604.179688 451.816406 C 607.929688 452.679688 611.71875 453.324219 615.542969 453.753906 C 619.367188 454.183594 623.203125 454.394531 627.050781 454.386719 C 630.902344 454.378906 634.738281 454.148438 638.558594 453.703125 C 642.382812 453.253906 646.167969 452.589844 649.914062 451.710938 C 653.660156 450.832031 657.34375 449.738281 660.96875 448.4375 C 664.589844 447.136719 668.125 445.636719 671.574219 443.929688 L 671.574219 467.289062 C 658.078125 482.511719 642.609375 490.535156 627.027344 490.535156 C 611.449219 490.535156 595.980469 482.503906 582.480469 467.28125 Z M 731.863281 324.949219 C 732.199219 325.78125 732.46875 326.636719 732.671875 327.511719 C 732.871094 328.386719 733 329.273438 733.0625 330.171875 C 733.121094 331.066406 733.109375 331.960938 733.027344 332.855469 C 732.945312 333.75 732.792969 334.632812 732.566406 335.503906 C 732.34375 336.375 732.054688 337.21875 731.695312 338.042969 C 731.335938 338.867188 730.917969 339.660156 730.433594 340.414062 C 729.949219 341.171875 729.40625 341.886719 728.808594 342.554688 C 728.210938 343.226562 727.566406 343.84375 726.871094 344.414062 L 726.789062 344.480469 L 722.816406 316.429688 C 724.820312 317.207031 726.605469 318.332031 728.171875 319.808594 C 729.734375 321.28125 730.96875 322.996094 731.863281 324.949219 Z M 526 344.769531 L 525.957031 344.734375 C 525.261719 344.167969 524.613281 343.550781 524.015625 342.878906 C 523.417969 342.207031 522.878906 341.496094 522.394531 340.738281 C 521.910156 339.980469 521.488281 339.191406 521.128906 338.367188 C 520.773438 337.542969 520.480469 336.695312 520.257812 335.824219 C 520.035156 334.957031 519.882812 334.074219 519.800781 333.179688 C 519.714844 332.285156 519.703125 331.386719 519.765625 330.492188 C 519.824219 329.597656 519.953125 328.710938 520.15625 327.835938 C 520.355469 326.957031 520.625 326.105469 520.960938 325.273438 C 521.835938 323.292969 523.054688 321.558594 524.617188 320.0625 C 526.179688 318.570312 527.96875 317.429688 529.980469 316.640625 Z M 532.734375 299.304688 C 532.117188 299.402344 531.175781 299.363281 531.175781 299.488281 L 531.175781 238.90625 C 531.183594 210.875 553.445312 187.535156 581.496094 187.535156 L 669.011719 187.535156 C 670.6875 187.550781 672.359375 187.648438 674.023438 187.824219 C 675.691406 188.003906 677.34375 188.261719 678.984375 188.597656 C 680.625 188.9375 682.246094 189.355469 683.847656 189.851562 C 685.449219 190.347656 687.019531 190.921875 688.566406 191.570312 C 690.109375 192.222656 691.621094 192.945312 693.09375 193.742188 C 694.566406 194.539062 696 195.402344 697.390625 196.339844 C 698.78125 197.277344 700.121094 198.277344 701.414062 199.34375 C 702.707031 200.410156 703.945312 201.539062 705.125 202.726562 C 706.308594 203.914062 707.429688 205.15625 708.492188 206.453125 C 709.554688 207.75 710.550781 209.09375 711.480469 210.488281 C 712.410156 211.882812 713.273438 213.316406 714.0625 214.796875 C 714.855469 216.273438 715.570312 217.785156 716.214844 219.332031 C 716.859375 220.882812 717.425781 222.457031 717.917969 224.058594 C 718.40625 225.660156 718.816406 227.285156 719.148438 228.925781 C 719.480469 230.570312 719.734375 232.226562 719.90625 233.894531 C 720.074219 235.558594 720.164062 237.230469 720.171875 238.90625 L 720.171875 295.695312 L 713.992188 253.382812 C 713.792969 251.863281 713.527344 250.359375 713.191406 248.863281 C 712.859375 247.367188 712.457031 245.890625 711.988281 244.433594 C 711.519531 242.976562 710.988281 241.542969 710.390625 240.132812 C 709.792969 238.722656 709.132812 237.339844 708.410156 235.992188 C 707.6875 234.640625 706.90625 233.324219 706.066406 232.046875 C 705.222656 230.765625 704.328125 229.527344 703.375 228.328125 C 702.421875 227.128906 701.414062 225.976562 700.359375 224.867188 C 699.300781 223.761719 698.195312 222.703125 697.042969 221.695312 C 695.890625 220.6875 694.691406 219.734375 693.453125 218.835938 C 692.214844 217.933594 690.9375 217.09375 689.621094 216.308594 C 688.308594 215.523438 686.957031 214.800781 685.578125 214.140625 C 684.199219 213.476562 682.789062 212.878906 681.355469 212.34375 C 679.921875 211.808594 678.464844 211.339844 676.988281 210.933594 C 675.511719 210.53125 674.019531 210.195312 672.511719 209.929688 C 671.003906 209.660156 669.488281 209.460938 667.960938 209.328125 C 666.4375 209.195312 664.90625 209.132812 663.375 209.140625 L 661.351562 209.140625 L 654.230469 212.632812 C 651.898438 213.878906 649.496094 214.96875 647.019531 215.894531 C 644.542969 216.824219 642.015625 217.582031 639.4375 218.175781 C 636.863281 218.769531 634.257812 219.1875 631.625 219.433594 C 628.992188 219.683594 626.355469 219.753906 623.710938 219.652344 C 621.070312 219.546875 618.445312 219.269531 615.839844 218.820312 C 613.234375 218.371094 610.671875 217.75 608.148438 216.957031 C 605.625 216.164062 603.164062 215.210938 600.769531 214.09375 C 598.375 212.976562 596.0625 211.707031 593.832031 210.28125 L 591.835938 209.140625 L 589.453125 209.140625 C 587.925781 209.132812 586.402344 209.195312 584.882812 209.328125 C 583.363281 209.457031 581.851562 209.65625 580.347656 209.921875 C 578.84375 210.191406 577.355469 210.527344 575.882812 210.925781 C 574.410156 211.328125 572.960938 211.796875 571.53125 212.332031 C 570.097656 212.863281 568.695312 213.460938 567.320312 214.121094 C 565.941406 214.78125 564.597656 215.503906 563.289062 216.285156 C 561.976562 217.066406 560.703125 217.90625 559.46875 218.800781 C 558.234375 219.699219 557.042969 220.648438 555.890625 221.65625 C 554.742188 222.660156 553.640625 223.714844 552.585938 224.820312 C 551.53125 225.921875 550.53125 227.074219 549.582031 228.269531 C 548.632812 229.464844 547.738281 230.699219 546.898438 231.976562 C 546.058594 233.25 545.28125 234.5625 544.5625 235.910156 C 543.84375 237.253906 543.183594 238.632812 542.589844 240.039062 C 541.992188 241.441406 541.464844 242.875 540.996094 244.328125 C 540.53125 245.78125 540.132812 247.253906 539.796875 248.742188 C 539.464844 250.234375 539.199219 251.734375 539.003906 253.25 Z M 541.691406 362.847656 C 541.132812 357.617188 541.238281 352.402344 542.015625 347.199219 L 555.054688 255.09375 C 555.179688 254.101562 555.347656 253.117188 555.558594 252.140625 C 555.769531 251.164062 556.023438 250.199219 556.316406 249.246094 C 556.609375 248.289062 556.945312 247.347656 557.320312 246.421875 C 557.695312 245.496094 558.109375 244.589844 558.5625 243.699219 C 559.015625 242.808594 559.507812 241.941406 560.035156 241.09375 C 560.5625 240.246094 561.128906 239.421875 561.726562 238.625 C 562.328125 237.824219 562.960938 237.050781 563.625 236.308594 C 564.292969 235.5625 564.988281 234.851562 565.714844 234.164062 C 566.441406 233.480469 567.199219 232.828125 567.984375 232.210938 C 568.765625 231.59375 569.574219 231.007812 570.410156 230.457031 C 571.246094 229.910156 572.101562 229.398438 572.980469 228.921875 C 573.859375 228.449219 574.753906 228.011719 575.671875 227.613281 C 576.585938 227.214844 577.519531 226.859375 578.464844 226.539062 C 579.414062 226.222656 580.371094 225.949219 581.34375 225.714844 C 582.3125 225.480469 583.292969 225.285156 584.28125 225.136719 C 585.265625 224.988281 586.257812 224.878906 587.257812 224.816406 C 590.050781 226.480469 592.941406 227.960938 595.925781 229.253906 C 598.910156 230.550781 601.96875 231.648438 605.09375 232.550781 C 608.21875 233.453125 611.390625 234.152344 614.605469 234.644531 C 617.820312 235.140625 621.054688 235.429688 624.308594 235.507812 C 627.5625 235.585938 630.804688 235.457031 634.042969 235.121094 C 637.277344 234.785156 640.480469 234.242188 643.644531 233.492188 C 646.8125 232.746094 649.917969 231.796875 652.960938 230.648438 C 656.007812 229.503906 658.964844 228.164062 661.839844 226.636719 L 665.292969 224.800781 C 666.296875 224.855469 667.300781 224.957031 668.296875 225.101562 C 669.292969 225.246094 670.28125 225.4375 671.261719 225.667969 C 672.242188 225.898438 673.207031 226.171875 674.164062 226.484375 C 675.121094 226.800781 676.0625 227.15625 676.988281 227.554688 C 677.914062 227.949219 678.820312 228.386719 679.707031 228.863281 C 680.59375 229.335938 681.460938 229.851562 682.304688 230.402344 C 683.144531 230.953125 683.964844 231.539062 684.753906 232.160156 C 685.546875 232.78125 686.3125 233.4375 687.046875 234.125 C 687.78125 234.8125 688.484375 235.53125 689.15625 236.28125 C 689.828125 237.03125 690.46875 237.808594 691.074219 238.613281 C 691.679688 239.417969 692.246094 240.25 692.78125 241.101562 C 693.3125 241.957031 693.808594 242.832031 694.265625 243.730469 C 694.722656 244.628906 695.136719 245.542969 695.515625 246.476562 C 695.894531 247.410156 696.230469 248.359375 696.523438 249.324219 C 696.820312 250.285156 697.070312 251.261719 697.28125 252.246094 C 697.492188 253.230469 697.660156 254.222656 697.78125 255.222656 L 710.789062 347.089844 C 711.640625 352.945312 711.679688 358.804688 710.898438 364.671875 C 710.542969 367.214844 710.074219 369.734375 709.492188 372.234375 C 708.90625 374.734375 708.214844 377.203125 707.410156 379.636719 C 706.601562 382.074219 705.691406 384.46875 704.667969 386.824219 C 703.648438 389.179688 702.523438 391.480469 701.292969 393.734375 C 700.0625 395.988281 698.734375 398.179688 697.308594 400.3125 C 695.882812 402.445312 694.363281 404.511719 692.75 406.507812 C 691.136719 408.503906 689.4375 410.421875 687.648438 412.261719 C 685.863281 414.105469 684 415.863281 682.054688 417.539062 C 680.109375 419.210938 678.09375 420.792969 676.003906 422.285156 C 673.917969 423.777344 671.765625 425.171875 669.554688 426.472656 C 667.339844 427.769531 665.074219 428.964844 662.75 430.058594 C 660.429688 431.152344 658.066406 432.136719 655.652344 433.015625 C 653.242188 433.898438 650.800781 434.667969 648.320312 435.324219 C 645.839844 435.984375 643.335938 436.53125 640.804688 436.964844 C 638.277344 437.398438 635.734375 437.714844 633.175781 437.917969 C 630.617188 438.121094 628.058594 438.210938 625.492188 438.183594 C 622.925781 438.15625 620.367188 438.011719 617.8125 437.753906 C 615.261719 437.492188 612.726562 437.121094 610.207031 436.632812 C 607.6875 436.144531 605.195312 435.546875 602.730469 434.832031 C 600.265625 434.121094 597.839844 433.300781 595.449219 432.367188 C 593.058594 431.4375 590.714844 430.398438 588.414062 429.253906 C 586.117188 428.113281 583.878906 426.867188 581.691406 425.523438 C 579.507812 424.179688 577.386719 422.738281 575.332031 421.199219 C 573.277344 419.664062 571.296875 418.039062 569.386719 416.320312 C 567.480469 414.605469 565.652344 412.808594 563.90625 410.929688 C 562.160156 409.046875 560.503906 407.09375 558.933594 405.0625 C 557.363281 403.03125 555.886719 400.9375 554.507812 398.773438 C 553.128906 396.609375 551.847656 394.386719 550.667969 392.109375 C 549.484375 389.832031 548.410156 387.503906 547.441406 385.128906 C 546.46875 382.753906 545.609375 380.335938 544.855469 377.882812 C 544.105469 375.429688 543.464844 372.949219 542.933594 370.4375 C 542.40625 367.925781 541.992188 365.394531 541.691406 362.847656 Z M 552.535156 483.894531 L 568.101562 476.082031 C 579.824219 489.75 592.933594 499.027344 606.757812 503.546875 L 569.488281 532.269531 L 552.351562 483.984375 C 552.417969 483.953125 552.480469 483.921875 552.539062 483.894531 Z M 497.433594 726.296875 L 497.433594 641.277344 C 497.441406 640.746094 497.398438 640.214844 497.304688 639.691406 C 497.210938 639.167969 497.070312 638.660156 496.878906 638.164062 C 496.6875 637.664062 496.453125 637.191406 496.171875 636.742188 C 495.890625 636.289062 495.566406 635.867188 495.203125 635.480469 C 494.84375 635.089844 494.445312 634.738281 494.015625 634.425781 C 493.585938 634.109375 493.132812 633.839844 492.648438 633.613281 C 492.167969 633.390625 491.667969 633.210938 491.152344 633.078125 C 490.636719 632.949219 490.113281 632.867188 489.582031 632.839844 C 489.042969 632.820312 488.503906 632.859375 487.96875 632.949219 C 487.433594 633.042969 486.914062 633.1875 486.40625 633.382812 C 485.902344 633.578125 485.421875 633.824219 484.964844 634.117188 C 484.507812 634.410156 484.082031 634.742188 483.695312 635.121094 C 483.304688 635.5 482.957031 635.914062 482.652344 636.359375 C 482.34375 636.808594 482.085938 637.28125 481.875 637.78125 C 481.664062 638.28125 481.503906 638.796875 481.394531 639.328125 C 481.289062 639.859375 481.234375 640.398438 481.234375 640.941406 L 481.234375 726.296875 L 416.4375 726.296875 L 416.4375 597.855469 C 416.429688 595.25 416.53125 592.644531 416.742188 590.046875 C 416.953125 587.445312 417.273438 584.859375 417.699219 582.289062 C 418.128906 579.714844 418.660156 577.164062 419.304688 574.636719 C 419.945312 572.109375 420.691406 569.613281 421.542969 567.148438 C 422.390625 564.683594 423.34375 562.257812 424.398438 559.875 C 425.453125 557.488281 426.601562 555.152344 427.851562 552.863281 C 429.101562 550.574219 430.445312 548.339844 431.882812 546.164062 C 433.320312 543.988281 434.84375 541.878906 436.460938 539.828125 C 438.074219 537.78125 439.769531 535.804688 441.550781 533.898438 C 443.328125 531.992188 445.1875 530.164062 447.117188 528.414062 C 449.050781 526.664062 451.054688 525 453.125 523.417969 C 455.199219 521.835938 457.335938 520.34375 459.53125 518.941406 C 461.730469 517.535156 463.980469 516.226562 466.289062 515.015625 C 468.597656 513.800781 470.949219 512.683594 473.351562 511.667969 C 475.753906 510.652344 478.191406 509.738281 480.667969 508.925781 C 483.148438 508.113281 485.652344 507.40625 488.191406 506.804688 C 489.84375 506.410156 491.445312 506.3125 493.070312 505.902344 L 520.070312 563.628906 C 520.398438 564.328125 520.816406 564.96875 521.328125 565.550781 C 521.835938 566.128906 522.417969 566.628906 523.070312 567.042969 C 523.722656 567.457031 524.417969 567.773438 525.160156 567.988281 C 525.902344 568.207031 526.660156 568.3125 527.433594 568.3125 L 527.441406 568.3125 C 527.785156 568.3125 528.121094 568.292969 528.460938 568.25 C 528.796875 568.207031 529.132812 568.144531 529.460938 568.058594 C 529.792969 567.976562 530.113281 567.871094 530.433594 567.746094 C 530.75 567.621094 531.054688 567.476562 531.355469 567.3125 C 531.652344 567.148438 531.941406 566.964844 532.214844 566.765625 C 532.492188 566.566406 532.753906 566.347656 533 566.113281 C 533.25 565.882812 533.484375 565.632812 533.699219 565.371094 C 533.917969 565.109375 534.117188 564.835938 534.300781 564.546875 C 534.484375 564.261719 534.648438 563.960938 534.792969 563.65625 C 534.9375 563.347656 535.0625 563.03125 535.167969 562.707031 C 535.273438 562.382812 535.359375 562.054688 535.425781 561.71875 C 535.488281 561.386719 535.53125 561.046875 535.554688 560.707031 C 535.574219 560.367188 535.574219 560.027344 535.554688 559.6875 C 535.535156 559.347656 535.492188 559.011719 535.429688 558.675781 C 535.367188 558.339844 535.28125 558.011719 535.175781 557.6875 C 535.074219 557.363281 534.949219 557.046875 534.804688 556.738281 L 508.898438 501.386719 C 518.644531 498.398438 528.210938 494.910156 537.589844 490.917969 L 557.960938 548.269531 C 558.070312 548.570312 558.195312 548.859375 558.335938 549.144531 C 558.480469 549.429688 558.640625 549.707031 558.8125 549.972656 C 558.988281 550.238281 559.179688 550.492188 559.382812 550.734375 C 559.585938 550.980469 559.804688 551.210938 560.039062 551.425781 C 560.269531 551.644531 560.515625 551.847656 560.769531 552.039062 C 561.027344 552.226562 561.292969 552.398438 561.566406 552.558594 C 561.84375 552.714844 562.128906 552.855469 562.421875 552.980469 C 562.714844 553.105469 563.015625 553.210938 563.320312 553.300781 C 563.625 553.386719 563.933594 553.460938 564.25 553.511719 C 564.5625 553.5625 564.878906 553.597656 565.195312 553.613281 C 565.515625 553.628906 565.832031 553.625 566.148438 553.601562 C 566.464844 553.578125 566.78125 553.539062 567.09375 553.480469 C 567.40625 553.421875 567.714844 553.34375 568.015625 553.246094 C 568.320312 553.152344 568.617188 553.039062 568.90625 552.90625 C 569.199219 552.777344 569.480469 552.628906 569.75 552.464844 C 570.023438 552.300781 570.285156 552.121094 570.539062 551.925781 L 587.667969 538.722656 L 600.59375 570.09375 C 600.6875 570.324219 600.808594 570.535156 600.925781 570.75 L 588.015625 669.878906 L 561.433594 613.484375 C 561.105469 612.789062 560.6875 612.152344 560.179688 611.574219 C 559.667969 610.996094 559.089844 610.5 558.4375 610.089844 C 557.789062 609.675781 557.09375 609.363281 556.355469 609.144531 C 555.617188 608.929688 554.859375 608.824219 554.089844 608.824219 C 553.75 608.824219 553.410156 608.84375 553.070312 608.886719 C 552.734375 608.929688 552.398438 608.992188 552.070312 609.078125 C 551.738281 609.164062 551.414062 609.269531 551.097656 609.394531 C 550.78125 609.519531 550.472656 609.664062 550.171875 609.828125 C 549.875 609.992188 549.585938 610.175781 549.3125 610.375 C 549.035156 610.578125 548.773438 610.792969 548.523438 611.027344 C 548.277344 611.261719 548.042969 611.507812 547.824219 611.773438 C 547.609375 612.035156 547.410156 612.308594 547.226562 612.597656 C 547.042969 612.886719 546.878906 613.183594 546.734375 613.492188 C 546.589844 613.800781 546.464844 614.117188 546.359375 614.441406 C 546.253906 614.769531 546.167969 615.097656 546.105469 615.433594 C 546.042969 615.769531 546 616.105469 545.976562 616.445312 C 545.957031 616.785156 545.957031 617.125 545.976562 617.46875 C 546 617.808594 546.042969 618.144531 546.105469 618.480469 C 546.171875 618.816406 546.253906 619.144531 546.359375 619.46875 C 546.464844 619.792969 546.59375 620.109375 546.738281 620.417969 L 596.625 726.296875 Z M 637.738281 726.296875 L 614.519531 726.296875 L 600.808594 696.964844 L 616.691406 575.066406 L 635.65625 575.066406 L 650.050781 691.605469 Z M 652.273438 570.015625 L 664.941406 538.386719 L 682.511719 551.921875 C 682.765625 552.117188 683.027344 552.296875 683.304688 552.460938 C 683.578125 552.625 683.863281 552.773438 684.15625 552.902344 C 684.449219 553.035156 684.746094 553.148438 685.050781 553.242188 C 685.359375 553.335938 685.667969 553.414062 685.984375 553.472656 C 686.296875 553.53125 686.617188 553.570312 686.933594 553.589844 C 687.253906 553.609375 687.574219 553.609375 687.894531 553.59375 C 688.214844 553.578125 688.53125 553.539062 688.847656 553.484375 C 689.164062 553.429688 689.472656 553.355469 689.78125 553.265625 C 690.085938 553.171875 690.386719 553.0625 690.679688 552.933594 C 690.976562 552.808594 691.261719 552.664062 691.535156 552.5 C 691.8125 552.339844 692.078125 552.164062 692.335938 551.96875 C 692.589844 551.777344 692.832031 551.570312 693.066406 551.347656 C 693.296875 551.125 693.511719 550.890625 693.714844 550.640625 C 693.917969 550.394531 694.105469 550.136719 694.277344 549.867188 C 694.453125 549.597656 694.609375 549.316406 694.746094 549.027344 C 694.886719 548.738281 695.007812 548.445312 695.113281 548.140625 L 715.285156 489.433594 C 724.613281 493.761719 734.152344 497.566406 743.902344 500.84375 L 663.042969 664.589844 L 651.519531 571.421875 C 651.816406 570.976562 652.070312 570.511719 652.273438 570.015625 Z M 836.269531 726.296875 L 771.472656 726.296875 L 771.472656 640.9375 C 771.472656 640.40625 771.417969 639.878906 771.316406 639.355469 C 771.210938 638.835938 771.058594 638.328125 770.855469 637.835938 C 770.652344 637.34375 770.402344 636.878906 770.105469 636.433594 C 769.8125 635.992188 769.476562 635.582031 769.097656 635.207031 C 768.722656 634.832031 768.3125 634.496094 767.871094 634.199219 C 767.429688 633.90625 766.960938 633.65625 766.472656 633.453125 C 765.980469 633.246094 765.472656 633.09375 764.953125 632.992188 C 764.429688 632.886719 763.902344 632.835938 763.371094 632.835938 C 762.839844 632.835938 762.3125 632.886719 761.792969 632.992188 C 761.269531 633.09375 760.761719 633.246094 760.273438 633.453125 C 759.78125 633.65625 759.3125 633.90625 758.871094 634.199219 C 758.429688 634.496094 758.019531 634.832031 757.644531 635.207031 C 757.269531 635.582031 756.933594 635.992188 756.636719 636.433594 C 756.339844 636.878906 756.09375 637.34375 755.890625 637.835938 C 755.683594 638.328125 755.53125 638.835938 755.429688 639.355469 C 755.324219 639.878906 755.273438 640.40625 755.273438 640.9375 L 755.273438 726.296875 L 654.933594 726.296875 L 665.796875 695.699219 L 759.644531 505.59375 C 761.3125 506.03125 762.914062 506.429688 764.578125 506.828125 C 767.113281 507.429688 769.617188 508.136719 772.09375 508.949219 C 774.570312 509.761719 777.007812 510.675781 779.410156 511.691406 C 781.808594 512.707031 784.160156 513.824219 786.46875 515.039062 C 788.773438 516.25 791.027344 517.558594 793.222656 518.960938 C 795.417969 520.363281 797.550781 521.855469 799.625 523.4375 C 801.695312 525.019531 803.695312 526.6875 805.628906 528.4375 C 807.558594 530.1875 809.414062 532.011719 811.195312 533.917969 C 812.972656 535.824219 814.667969 537.800781 816.28125 539.847656 C 817.894531 541.894531 819.417969 544.007812 820.851562 546.183594 C 822.289062 548.359375 823.628906 550.589844 824.878906 552.878906 C 826.125 555.164062 827.277344 557.5 828.328125 559.886719 C 829.382812 562.269531 830.332031 564.695312 831.183594 567.160156 C 832.03125 569.625 832.777344 572.121094 833.414062 574.648438 C 834.054688 577.171875 834.589844 579.722656 835.015625 582.292969 C 835.441406 584.867188 835.757812 587.449219 835.96875 590.046875 C 836.175781 592.648438 836.277344 595.25 836.269531 597.855469 Z M 836.269531 726.296875 " fill-opacity="1" fill-rule="nonzero"/></g></svg>